<?xml version="1.0" standalone="no"?>
<!DOCTYPE svg PUBLIC "-//W3C//DTD SVG 1.1//EN" "http://www.w3.org/Graphics/SVG/1.1/DTD/svg11.dtd" >
<svg xmlns="http://www.w3.org/2000/svg" xmlns:xlink="http://www.w3.org/1999/xlink" version="1.1">
<metadata>
Created by FontForge 20190801 at Mon Jan 10 17:26:27 2022
 By www-data
Kaitlynn Albani
</metadata>
<defs>
<font id="WildMango" horiz-adv-x="324" >
  <font-face 
    font-family="WildMango"
    font-weight="400"
    font-stretch="normal"
    units-per-em="1000"
    panose-1="1 0 0 0 0 0 0 0 0 0"
    ascent="800"
    descent="-200"
    x-height="501"
    cap-height="701"
    bbox="-323 -377 1390 960"
    underline-thickness="50"
    underline-position="-175"
    unicode-range="U+000D-FB06"
  />
<missing-glyph horiz-adv-x="250" 
 />
    <glyph glyph-name="uniF22A" unicode="fb" horiz-adv-x="933" 
d="M400 596q0 68 -32.5 108.5t-92.5 40.5q-45 0 -77 -27.5t-32 -79.5q0 -41 20.5 -77.5t50.5 -60.5h125q2 -2 1 -10t-7 -12q-11 -8 -56 -8h-63v-385q0 -35 24 -50q10 -6 22.5 -9.5t17.5 -7.5t6.5 -10t-1.5 -8q-10 -2 -21.5 -1t-50.5 3.5t-73 2.5t-74 -2.5t-53 -3.5t-23 1
q-3 2 -1.5 8t6.5 10t19.5 7.5t24.5 9.5q21 13 21 50v385h-75q-4 15 6 22q11 8 56 8h13v7q0 122 57.5 192.5t136.5 70.5q37 0 90 -18.5t86 -18.5q57 0 82 37h23v-298q54 38 116 38q104 0 173.5 -74t67.5 -183q-2 -119 -73.5 -191t-161.5 -72q-57 0 -107.5 25.5t-73.5 55.5
q-10 -14 -39.5 -39.5t-43.5 -31.5l-21 9q7 45 7 180v407zM556 187q0 -64 36.5 -117.5t83.5 -53.5q81 0 81 147q0 58 -10 106q-17 81 -55 138.5t-83 57.5q-24 0 -53 -22v-256z" />
    <glyph glyph-name="uniF22B" unicode="fft" horiz-adv-x="990" 
d="M572 646q-1 29 20 49.5t51 20.5h8q-19 29 -64 29q-40 0 -71.5 -28t-31.5 -79q0 -41 21 -77.5t51 -60.5h79q75 0 130.5 40t74.5 95h22v-135h101q4 -15 -6 -22q-12 -8 -56 -8h-39v-368q0 -60 43 -60q25 0 47 22l18 -12q-45 -62 -134 -62q-64 0 -97 40.5t-33 114.5v267
q0 58 -57 58h-93v-385q0 -35 23 -50q10 -7 22.5 -10.5t18.5 -6.5q4 -3 5.5 -9.5t-0.5 -8.5q-10 -2 -21.5 -1t-50.5 3.5t-73 2.5t-74.5 -2.5t-53.5 -3.5t-23 1q-3 2 -1.5 8t6.5 10q6 4 20.5 7.5t24.5 9.5q21 15 21 50v385h-162v-385q0 -35 23 -50q10 -7 22.5 -10.5t18.5 -6.5
q4 -3 5.5 -9.5t-0.5 -8.5q-10 -2 -21.5 -1t-50.5 3.5t-73 2.5t-74.5 -2.5t-53.5 -3.5t-23 1q-3 2 -1.5 8t6.5 10q6 4 20.5 7.5t24.5 9.5q21 15 21 50v385h-75q-7 14 6 22q10 8 56 8h13v7q0 110 63 173.5t150 63.5q91 0 152 -55q53 81 141 81q56 0 92 -33.5t36 -80.5
q0 -34 -20 -57t-52 -23q-29 0 -50.5 20.5t-21.5 49.5zM238 500h162v66q0 65 -26 109t-84 44q-55 0 -89.5 -33t-34.5 -85q0 -32 19.5 -60.5t52.5 -40.5z" />
    <glyph glyph-name="uniF22C" unicode="fh" horiz-adv-x="981" 
d="M400 596q0 68 -32.5 108.5t-92.5 40.5q-45 0 -77 -27.5t-32 -79.5q0 -41 21 -77.5t51 -60.5h125q5 -14 -6 -22q-12 -8 -56 -8h-63v-385q0 -35 23 -50q10 -7 22.5 -10.5t18.5 -6.5q4 -3 5.5 -9.5t-0.5 -8.5q-10 -2 -21.5 -1t-50.5 3.5t-73 2.5t-74.5 -2.5t-53.5 -3.5
t-23 1q-3 2 -1.5 8t6.5 10t19.5 7.5t25.5 9.5q21 15 21 50v385h-75q-7 14 6 22q10 8 56 8h13v7q0 122 57 192.5t136 70.5q38 0 90.5 -18.5t85.5 -18.5q56 0 83 37h22v-340q104 80 177 80q79 0 119 -50t40 -142v-233q0 -36 22 -50q10 -6 25 -9.5t20 -7.5q5 -3 6 -9.5t-1 -8.5
q-10 -2 -22.5 -1t-52 3.5t-73.5 2.5t-73.5 -2.5t-52 -3.5t-22.5 1q-2 2 -0.5 8.5t5.5 9.5q6 4 19 7.5t23 9.5q21 14 21 50v253q0 108 -76 108q-44 0 -104 -46v-315q0 -37 21 -50q10 -6 23.5 -9.5t18.5 -7.5q5 -3 6 -9.5t-1 -8.5q-10 -2 -21.5 -1t-50.5 3.5t-73 2.5t-74 -2.5
t-53 -3.5t-23 1q-2 2 -0.5 8.5t5.5 9.5q6 3 20.5 6.5t24.5 10.5q21 14 21 50v511z" />
    <glyph glyph-name="uniF22D" unicode="fj" horiz-adv-x="597" 
d="M301 470h-63v-385q0 -35 23 -50q10 -7 22.5 -10.5t18.5 -6.5q4 -3 5.5 -9.5t-0.5 -8.5q-10 -2 -21.5 -1t-50.5 3.5t-73 2.5t-74.5 -2.5t-53.5 -3.5t-23 1q-3 2 -1.5 8t6.5 10q6 4 20.5 7.5t24.5 9.5q21 15 21 50v385h-75q-7 14 6 22q10 8 56 8h13v7q0 118 82 190.5
t196 72.5q44 0 85.5 -10t76 -40t34.5 -76q0 -36 -25 -61t-61 -25q-37 0 -62.5 25t-25.5 61q0 31 20 55t51 30q-35 16 -88 16q-74 0 -131 -42t-57 -114q0 -31 17 -55t44 -34h125q5 -14 -6 -22t-56 -8zM398 346q0 34 -20 49q-8 5 -20.5 9.5t-17.5 8.5q-10 6 -5 18
q61 0 115.5 20.5t81.5 58.5h22v-453q0 -79 -12 -124t-46 -86q-29 -36 -77 -62t-86 -35l-10 22q40 26 57.5 64.5t17.5 116.5v393z" />
    <glyph glyph-name="uniF22E" unicode="fk" horiz-adv-x="930" 
d="M301 470h-63v-385q0 -35 23 -50q10 -7 22.5 -10.5t18.5 -6.5q4 -3 5.5 -9.5t-0.5 -8.5q-10 -2 -21.5 -1t-50.5 3.5t-73 2.5t-74.5 -2.5t-53.5 -3.5t-23 1q-3 2 -1.5 8t6.5 10q6 4 20.5 7.5t24.5 9.5q21 15 21 50v385h-75q-7 14 6 22q10 8 56 8h13v7q0 122 57 192.5
t136 70.5q38 0 90.5 -18.5t85.5 -18.5q56 0 83 37h22v-502q84 67 154 143q31 34 17 51q-7 8 -25 13t-23 8q-4 3 -5.5 9t0.5 8q8 2 15.5 1t39 -3t60.5 -2t60 2t38.5 3t15.5 -1q6 -9 -6 -17q-4 -3 -12 -5.5t-22 -7t-27 -9.5q-44 -17 -97 -65q-68 -62 -81 -73l195 -238
q29 -35 53 -50q10 -6 23 -9.5t19 -7.5q5 -3 6 -9.5t-1 -8.5q-8 -2 -16.5 -1.5t-39.5 2.5t-59 2q-17 0 -43 -1.5t-38 -2.5t-24 1q-12 3 -37 36l-140 187v-138q0 -37 21 -50q10 -7 23 -10.5t19 -6.5q5 -3 6 -9.5t-1 -8.5q-10 -2 -21.5 -1t-50.5 3.5t-73 2.5t-74 -2.5t-53 -3.5
t-23 1q-2 2 -0.5 8.5t5.5 9.5q6 3 20.5 6.5t24.5 10.5q21 14 21 50v511q0 68 -32.5 108.5t-92.5 40.5q-45 0 -77 -27.5t-32 -79.5q0 -41 21 -77.5t51 -60.5h125q5 -14 -6 -22t-56 -8z" />
    <glyph glyph-name="uniF22F" unicode="ft" horiz-adv-x="673" 
d="M254 646q-1 29 20 49.5t51 20.5h8q-19 29 -64 29q-40 0 -71.5 -28t-31.5 -79q0 -41 21 -77.5t51 -60.5h80q75 1 130.5 40.5t74.5 94.5h22v-135h102q4 -15 -6 -22q-11 -8 -56 -8h-40v-368q0 -60 43 -60q25 0 47 22l18 -12q-47 -62 -134 -62q-64 0 -97 40.5t-33 114.5v273
q0 22 -11.5 37t-33.5 15h-106v-385q0 -35 23 -50q10 -7 22.5 -10.5t18.5 -6.5q4 -3 5.5 -9.5t-0.5 -8.5q-10 -2 -21.5 -1t-50.5 3.5t-73 2.5t-74.5 -2.5t-53.5 -3.5t-23 1q-3 2 -1.5 8t6.5 10q6 4 20.5 7.5t24.5 9.5q21 15 21 50v385h-75q-7 14 6 22q10 8 56 8h13v7
q0 123 54.5 193t133.5 70q56 0 92 -33.5t36 -80.5q0 -34 -20 -57t-52 -23q-29 0 -50.5 20.5t-21.5 49.5z" />
    <glyph glyph-name="f_f" unicode="ff" horiz-adv-x="666" 
d="M572 646q-1 29 20 49.5t51 20.5h8q-19 29 -64 29q-40 0 -71.5 -28t-31.5 -79q0 -41 21 -77.5t51 -60.5h124q4 -15 -6 -22q-11 -8 -56 -8h-62v-385q0 -35 23 -50q10 -7 22.5 -10.5t18.5 -6.5q4 -3 5.5 -9.5t-0.5 -8.5q-10 -2 -21.5 -1t-50.5 3.5t-73 2.5t-74.5 -2.5
t-53.5 -3.5t-23 1q-3 2 -1.5 8t6.5 10q6 4 20.5 7.5t24.5 9.5q21 15 21 50v385h-162v-385q0 -35 23 -50q10 -7 22.5 -10.5t18.5 -6.5q4 -3 5.5 -9.5t-0.5 -8.5q-10 -2 -21.5 -1t-50.5 3.5t-73 2.5t-74.5 -2.5t-53.5 -3.5t-23 1q-3 2 -1.5 8t6.5 10q6 4 20.5 7.5t24.5 9.5
q21 15 21 50v385h-75q-7 14 6 22q10 8 56 8h13v7q0 110 63 173.5t150 63.5q91 0 152 -55q53 81 141 81q56 0 92 -33.5t36 -80.5q0 -34 -20 -57t-52 -23q-29 0 -50.5 20.5t-21.5 49.5zM238 500h162v66q0 65 -26 109t-84 44q-55 0 -89.5 -33t-34.5 -85q0 -32 19.5 -60.5
t52.5 -40.5z" />
    <glyph glyph-name="fi" unicode="fi" horiz-adv-x="628" 
d="M238 85q0 -35 23 -50q10 -7 22.5 -10.5t18.5 -6.5q4 -3 5.5 -9.5t-0.5 -8.5q-10 -2 -21.5 -1t-50.5 3.5t-73 2.5t-74.5 -2.5t-53.5 -3.5t-23 1q-3 2 -1.5 8t6.5 10q6 4 20.5 7.5t24.5 9.5q21 15 21 50v385h-75q-7 14 6 22q10 8 56 8h13v7q0 118 82 190.5t196 72.5
q93 0 144 -35.5t51 -90.5q0 -36 -25 -61t-61 -25t-61.5 25t-25.5 61q0 31 20 55t51 30q-35 16 -88 16q-74 0 -131 -42t-57 -114q0 -31 17 -55t44 -34h125q4 -15 -6 -22q-11 -8 -56 -8h-63v-385zM397 346q0 35 -20 48q-8 6 -20.5 10.5t-17.5 8.5q-10 6 -5 18q61 0 115.5 20.5
t81.5 58.5h22v-425q0 -37 21 -50q10 -7 23 -10.5t19 -6.5q5 -3 6 -9.5t-1 -8.5q-10 -2 -21.5 -1t-50.5 3.5t-73 2.5t-74 -2.5t-53 -3.5t-23 1q-2 2 -1 8.5t6 9.5q6 4 20.5 7.5t24.5 9.5q21 14 21 50v261z" />
    <glyph glyph-name="fl" unicode="fl" horiz-adv-x="634" 
d="M301 470h-63v-385q0 -35 23 -50q10 -7 22.5 -10.5t18.5 -6.5q4 -3 5.5 -9.5t-0.5 -8.5q-10 -2 -21.5 -1t-50.5 3.5t-73 2.5t-74.5 -2.5t-53.5 -3.5t-23 1q-3 2 -1.5 8t6.5 10q6 4 20.5 7.5t24.5 9.5q21 15 21 50v385h-75q-7 14 6 22q10 8 56 8h13v7q0 122 57 192.5
t136 70.5q38 0 84.5 -18.5t79.5 -18.5q56 0 83 37h22v-685q0 -37 21 -50q10 -6 23.5 -9.5t18.5 -7.5q5 -3 6 -9.5t-1 -8.5q-10 -2 -21.5 -1t-50.5 3.5t-73 2.5t-74 -2.5t-53 -3.5t-23 1q-2 2 -0.5 8.5t5.5 9.5q6 4 20.5 7.5t24.5 9.5q21 14 21 50v511q0 66 -30 107.5
t-86 41.5q-45 0 -75.5 -27.5t-30.5 -79.5q0 -41 21 -77.5t51 -60.5h125q4 -15 -6 -22q-11 -8 -56 -8z" />
    <glyph glyph-name="f_f_i" unicode="ffi" horiz-adv-x="945" 
d="M618 470h-63v-385q0 -35 23 -50q10 -7 22.5 -10.5t18.5 -6.5q4 -3 5.5 -9.5t-0.5 -8.5q-10 -2 -21.5 -1t-50.5 3.5t-73 2.5t-74.5 -2.5t-53.5 -3.5t-23 1q-2 2 -1 8.5t6 9.5q6 4 20.5 7.5t24.5 9.5q21 15 21 50v385h-161v-385q0 -35 23 -50q10 -7 22.5 -10.5t18.5 -6.5
q4 -3 5.5 -9.5t-0.5 -8.5q-10 -2 -21.5 -1t-50.5 3.5t-73 2.5t-74.5 -2.5t-53.5 -3.5t-23 1q-3 2 -1.5 8t6.5 10q6 4 20.5 7.5t24.5 9.5q21 15 21 50v385h-75q-7 14 6 22q10 8 56 8h13v7q0 111 63 174t151 63q101 0 164 -69q39 45 96 70t121 25q92 0 143.5 -36t51.5 -87
q0 -39 -25 -64t-61 -25t-61 25t-25 61q0 31 20 55t50 30q-34 16 -88 16q-74 0 -131 -42t-57 -114q0 -31 17 -55t44 -34h125q4 -15 -6 -22q-11 -8 -56 -8zM238 500h161v66q0 66 -25.5 109.5t-83.5 43.5q-55 0 -89.5 -33t-34.5 -85q0 -32 19.5 -60.5t52.5 -40.5zM714 346
q0 35 -20 48q-8 6 -20.5 10.5t-17.5 8.5q-10 6 -5 18q61 0 115.5 20.5t81.5 58.5h22v-425q0 -37 21 -50q10 -6 23.5 -9.5t18.5 -7.5q5 -3 6 -9.5t-1 -8.5q-10 -2 -21.5 -1t-50.5 3.5t-73 2.5t-74 -2.5t-53 -3.5t-23 1q-2 2 -0.5 8.5t5.5 9.5q6 4 20.5 7.5t24.5 9.5
q21 14 21 50v261z" />
    <glyph glyph-name="f_f_l" unicode="ffl" horiz-adv-x="952" 
d="M619 470h-63v-385q0 -35 23 -50q10 -7 22.5 -10.5t18.5 -6.5q4 -3 5.5 -9.5t-0.5 -8.5q-10 -2 -21.5 -1t-50.5 3.5t-73 2.5t-74.5 -2.5t-53.5 -3.5t-23 1q-2 2 -1 8.5t6 9.5q6 4 20.5 7.5t24.5 9.5q21 15 21 50v385h-162v-385q0 -35 23 -50q10 -7 22.5 -10.5t18.5 -6.5
q4 -3 5.5 -9.5t-0.5 -8.5q-10 -2 -21.5 -1t-50.5 3.5t-73 2.5t-74.5 -2.5t-53.5 -3.5t-23 1q-3 2 -1.5 8t6.5 10q6 4 20.5 7.5t24.5 9.5q21 15 21 50v385h-75q-7 14 6 22q10 8 56 8h13v7q0 111 63 174t151 63q93 0 152 -57q56 83 145 83q38 0 84.5 -18.5t79.5 -18.5
q56 0 83 37h22v-685q0 -37 21 -50q10 -6 23.5 -9.5t18.5 -7.5q5 -3 6 -9.5t-1 -8.5q-10 -2 -21.5 -1t-50.5 3.5t-73 2.5t-74 -2.5t-53 -3.5t-23 1q-2 2 -0.5 8.5t5.5 9.5q6 4 20.5 7.5t24.5 9.5q21 14 21 50v511q0 66 -30 107.5t-86 41.5q-45 0 -75.5 -27.5t-30.5 -79.5
q0 -41 21 -77.5t51 -60.5h125q4 -15 -6 -22q-11 -8 -56 -8zM238 500h162v66q0 65 -26 109t-84 44q-55 0 -89.5 -33t-34.5 -85q0 -32 19.5 -60.5t52.5 -40.5z" />
    <glyph glyph-name=".notdef" horiz-adv-x="250" 
 />
    <glyph glyph-name="uni0000" horiz-adv-x="0" 
 />
    <glyph glyph-name="uni0000" horiz-adv-x="0" 
 />
    <glyph glyph-name="uni000D" unicode="&#xd;" horiz-adv-x="230" 
 />
    <glyph glyph-name="space" unicode=" " horiz-adv-x="230" 
 />
    <glyph glyph-name="exclam" unicode="!" horiz-adv-x="293" 
d="M147 710q36 0 61 -24t25 -64q0 -22 -3 -44.5t-11 -62.5t-11 -59q-43 -230 -44 -234h-35q-5 35 -22.5 125.5t-20.5 108.5q-4 22 -11.5 60t-11 61t-3.5 45q0 40 25 64t62 24zM67 70q0 33 23.5 56t56.5 23t56 -23t23 -56t-23 -56.5t-56 -23.5t-56.5 23.5t-23.5 56.5z" />
    <glyph glyph-name="quotedbl" unicode="&#x22;" horiz-adv-x="321" 
d="M68 460q-2 8 -13.5 55t-20 86t-8.5 57q0 24 17 38t43 14t42.5 -14t16.5 -38q0 -25 -42 -198h-35zM219 460q-2 9 -14 55t-20.5 85.5t-8.5 57.5q0 24 17 38t43 14t43 -14t17 -38q0 -14 -6 -44t-12 -55t-15 -59t-10 -40h-34z" />
    <glyph glyph-name="numbersign" unicode="#" horiz-adv-x="519" 
d="M168 474l21 172h44l-21 -172h122l21 172h44l-21 -172h116l-11 -86h-115l-12 -94h116l-11 -86h-115l-21 -169h-44l21 169h-122l-21 -169h-44l21 169h-111l11 86h110l12 94h-111l11 86h110zM202 388l-12 -94h122l12 94h-122z" />
    <glyph glyph-name="dollar" unicode="$" horiz-adv-x="546" 
d="M192 156q0 -32 -21 -55t-52 -26q34 -35 94 -46l28 246q-104 55 -148 104.5t-44 123.5q1 69 62 122.5t175 54.5l12 109l36 -3l-12 -108q71 -8 117 -45.5t46 -88.5q0 -34 -23.5 -57.5t-57.5 -23.5t-57.5 23.5t-23.5 57.5q0 28 17 49.5t44 28.5q-25 17 -66 22l-23 -211
q7 -5 22 -12.5t19 -10.5q89 -50 134.5 -98.5t45.5 -120.5q0 -89 -72.5 -145t-182.5 -56h-16l-12 -111l-36 3l12 112q-76 14 -127.5 59.5t-51.5 102.5q0 34 23.5 57.5t57.5 23.5t57.5 -23.5t23.5 -57.5zM261 452l21 194q-47 -2 -75.5 -26.5t-28.5 -61.5q0 -32 21.5 -57
t61.5 -49zM275 257l-26 -232q140 0 140 96q0 73 -114 136z" />
    <glyph glyph-name="percent" unicode="%" horiz-adv-x="667" 
d="M93 -10l442 690h42l-442 -690h-42zM26 525q0 68 44 111.5t112 43.5q69 0 112 -43t43 -112q0 -68 -43.5 -111.5t-111.5 -43.5q-70 0 -113 43t-43 112zM121 523q2 -63 19 -97.5t44 -33.5t40.5 37t11.5 98q-2 63 -18.5 97.5t-44.5 33.5q-26 -2 -40 -37.5t-12 -97.5zM331 145
q0 68 43.5 111.5t111.5 43.5q69 0 112.5 -43t43.5 -112q0 -68 -44 -111.5t-112 -43.5q-69 0 -112 43t-43 112zM426 143q2 -62 18 -96.5t42 -34.5q19 0 31.5 15.5t17 40.5t6 43t0.5 36q-2 63 -19 97.5t-44 33.5t-40.5 -37t-11.5 -98z" />
    <glyph glyph-name="ampersand" unicode="&#x26;" horiz-adv-x="720" 
d="M628 308q0 -59 -70 -158l14 -14l17 -17t16.5 -15t19.5 -14.5t18.5 -8.5t19.5 -4q19 0 30 7l17 -12q-12 -24 -24 -39.5t-36 -29t-54 -13.5q-58 0 -129 61q-81 -61 -202 -61q-103 0 -168.5 49t-65.5 136q0 54 30.5 97t65.5 63.5t73 31.5q-78 114 -78 189q0 58 47 106
t133 48q72 0 122.5 -36.5t50.5 -95.5q0 -61 -43 -104t-97 -58q97 -129 201 -242q23 33 35 61q-9 -3 -19 -3q-31 0 -53 22t-22 54t22 54t53 22q32 0 54 -22t22 -54zM320 436q47 58 42 143q-3 45 -22 72.5t-47 27.5t-43.5 -19t-14.5 -47q1 -62 85 -177zM441 74
q-92 85 -224 268q-43 -51 -40 -141q4 -66 48 -114t107 -48q60 0 109 35z" />
    <glyph glyph-name="quotesingle" unicode="'" horiz-adv-x="171" 
d="M68 460q-2 8 -13.5 55t-20 86t-8.5 57q0 24 17 38t43 14t42.5 -14t16.5 -38q0 -25 -42 -198h-35z" />
    <glyph glyph-name="parenleft" unicode="(" horiz-adv-x="341" 
d="M154 310q0 -271 152 -451l-13 -20q-112 76 -187.5 195.5t-75.5 275.5q0 107 40.5 202.5t96.5 157.5t126 110l13 -20q-152 -180 -152 -450z" />
    <glyph glyph-name="parenright" unicode=")" horiz-adv-x="341" 
d="M187 310q0 270 -152 450l12 20q112 -76 188 -195t76 -275t-76 -275.5t-188 -195.5l-12 20q152 180 152 451z" />
    <glyph glyph-name="asterisk" unicode="*" horiz-adv-x="394" 
d="M178 527q-11 0 -40.5 -0.5t-51 0t-33.5 4.5q-18 6 -24.5 22.5t0.5 35.5q6 19 20.5 28.5t32.5 3.5q9 -3 23.5 -12t26 -17.5t29 -22t24.5 -18.5q-35 102 -35 119q0 19 13.5 29.5t33.5 10.5t33.5 -10.5t13.5 -29.5q0 -12 -5.5 -32t-16 -50t-12.5 -37l32 24t41.5 29.5
t28.5 15.5q18 6 32.5 -3.5t20.5 -28.5q14 -45 -24 -57q-9 -3 -25.5 -4t-31 -1t-36.5 0.5t-31 0.5q6 -4 32.5 -22.5t42.5 -31.5t23 -22q24 -32 -14 -61q-16 -11 -30 -11q-18 0 -32 17q-10 14 -42 117q-2 -7 -8.5 -29t-11 -35.5t-10.5 -29.5t-12 -23q-12 -17 -32 -17
q-14 0 -30 11q-37 28 -14 61q6 8 19 19t24 19t31 21t25 17z" />
    <glyph glyph-name="plus" unicode="+" horiz-adv-x="594" 
d="M61 300v80h196v199h80v-199h196v-80h-196v-194h-80v194h-196z" />
    <glyph glyph-name="comma" unicode="," horiz-adv-x="245" 
d="M62 -117q47 54 58 107q-33 0 -56.5 23.5t-23.5 56.5t24.5 56t57.5 23q34 0 58 -23t24 -61q0 -51 -40.5 -108.5t-88.5 -87.5z" />
    <glyph glyph-name="hyphen" unicode="-" horiz-adv-x="352" 
d="M178 213h-164q-6 5 -2.5 29.5t16.5 34.5q15 12 42.5 14.5t84.5 2.5h19h164q6 -5 2.5 -29t-16.5 -34q-15 -12 -42.5 -15t-85.5 -3h-18z" />
    <glyph glyph-name="period" unicode="." horiz-adv-x="240" 
d="M40 70q0 33 23.5 56t56.5 23t56 -23t23 -56t-23 -56.5t-56 -23.5t-56.5 23.5t-23.5 56.5z" />
    <glyph glyph-name="slash" unicode="/" horiz-adv-x="320" 
d="M30 -40l229 780h55l-229 -780h-55z" />
    <glyph glyph-name="zero" unicode="0" horiz-adv-x="606" 
d="M41 335q0 146 72.5 245.5t189.5 99.5t190 -99.5t73 -245.5q0 -147 -72.5 -246t-190.5 -99q-117 0 -189.5 99t-72.5 246zM201 335q0 -312 102 -312q103 0 103 312q0 141 -24.5 226.5t-78.5 85.5q-102 0 -102 -312z" />
    <glyph glyph-name="one" unicode="1" horiz-adv-x="404" 
d="M103 553q-12 8 -32.5 13t-24.5 8q-10 6 -5 18q60 0 128 26.5t102 61.5h22v-595q0 -37 21 -50q10 -6 23.5 -9.5t19.5 -7.5q5 -4 6.5 -10t-1.5 -8q-10 -2 -23 -1t-53 3.5t-74 2.5t-75 -2.5t-54 -3.5t-23 1q-3 2 -1.5 8t6.5 10t20.5 7.5t25.5 9.5q22 14 22 50v398
q0 50 -30 70z" />
    <glyph glyph-name="two" unicode="2" horiz-adv-x="549" 
d="M50 533q0 59 59.5 103t151.5 44q111 0 172.5 -51t61.5 -136q0 -71 -48.5 -132t-151.5 -140l-148 -116h111q162 0 213 72q5 7 9.5 14t6.5 10.5t4 4.5q5 2 11 -3t7 -12t-7 -31q-28 -77 -45 -160l-273 -1h-153l-10 27q10 12 76.5 85t108 124.5t82 132.5t40.5 148
q0 66 -27 97.5t-69 31.5q-46 0 -83 -31q29 -5 48 -28t19 -53q0 -35 -24 -59t-59 -24q-36 0 -59.5 24t-23.5 59z" />
    <glyph glyph-name="three" unicode="3" horiz-adv-x="550" 
d="M313 522q0 61 -27 91t-66 30q-40 0 -68 -23q28 -7 46 -29t18 -52q0 -35 -24 -59t-59 -24q-36 0 -59.5 24t-23.5 59q0 53 54.5 97t142.5 44q106 0 165 -43.5t59 -111.5q0 -59 -40 -100t-93 -61q72 -8 121.5 -53t49.5 -112q0 -89 -78 -150t-210 -59q-77 2 -134 39t-57 96
q0 39 23.5 64t59.5 25q35 0 59 -24t24 -59q0 -31 -19.5 -54t-48.5 -28q37 -25 84 -25q57 0 93.5 44t36.5 131q0 64 -38 107t-104 42v31q54 0 83.5 41t29.5 102z" />
    <glyph glyph-name="four" unicode="4" horiz-adv-x="551" 
d="M20 190l336 480h78v-435h76l-14 -76h-62v-74q0 -37 21 -50q10 -6 24 -9.5t20 -7.5q4 -3 5.5 -9.5t-0.5 -8.5q-10 -2 -23 -1t-53.5 3.5t-74.5 2.5t-75 -2.5t-54 -3.5t-23 1q-2 2 -1 8.5t6 9.5q5 4 20.5 7.5t26.5 9.5q21 14 21 50v74h-253zM274 493l-181 -258h181v258z" />
    <glyph glyph-name="five" unicode="5" horiz-adv-x="534" 
d="M435 565h-295l-22 -159q56 28 129 28q97 0 162.5 -58.5t65.5 -151.5q0 -95 -69 -164.5t-188 -69.5q-89 0 -138.5 42t-49.5 93q0 39 23.5 64t59.5 25q35 0 59 -24t24 -59q0 -32 -21 -55.5t-52 -26.5q27 -24 68 -24q58 0 86.5 56.5t28.5 136.5q0 77 -36 125t-83 48
q-49 0 -86 -35l-24 9l46 305h243q33 0 56 5t34.5 9.5t15.5 4.5t8 -3q3 -3 3.5 -6.5t-2 -9.5t-6 -12t-9.5 -16.5t-11 -20.5q-14 -32 -20 -56z" />
    <glyph glyph-name="six" unicode="6" horiz-adv-x="570" 
d="M340 544q0 33 18 56t45 30q-20 17 -49 17q-64 0 -100.5 -67t-45.5 -176q54 32 116 32q87 0 146.5 -59.5t59.5 -157.5q0 -96 -66.5 -162.5t-174.5 -66.5q-115 0 -182 89.5t-67 234.5q0 66 21.5 131.5t60 117.5t96 84.5t123.5 32.5q76 0 120.5 -36.5t44.5 -93.5
q0 -34 -24 -58.5t-59 -24.5t-59 21.5t-24 55.5zM206 365q-1 -11 -1 -33q0 -88 13.5 -159.5t39.5 -112t60 -36.5q37 4 53 69t4 140t-42 113t-71 38q-29 0 -56 -19z" />
    <glyph glyph-name="seven" unicode="7" horiz-adv-x="494" 
d="M277 124q-6 -73 -18 -93q-24 -41 -78 -41q-36 0 -65.5 28.5t-29.5 74.5q0 95 129 260q35 46 105 122t104 100h-150q-70 0 -122 -14t-83 -58q-5 -7 -9.5 -14t-6.5 -10.5t-4 -4.5q-5 -2 -11 3t-7 12t7 31q32 96 46 160h433l11 -26q-49 -60 -105.5 -150t-85.5 -154
q-52 -116 -60 -226z" />
    <glyph glyph-name="eight" unicode="8" horiz-adv-x="559" 
d="M187 336q-114 82 -114 179q0 72 56.5 118.5t150.5 46.5q86 0 139.5 -38t53.5 -95q0 -50 -34 -83.5t-80 -49.5q160 -94 160 -214q0 -89 -65 -149.5t-185 -60.5q-102 0 -170.5 45.5t-68.5 125.5q0 69 51 114.5t106 60.5zM334 428q39 46 39 113q0 45 -28.5 75t-73.5 30
q-39 0 -65 -23t-27 -59q0 -15 7.5 -30t16.5 -25t28.5 -23.5t31 -20t37 -19.5t34.5 -18zM394 129q0 26 -11 50t-35.5 45t-42 34t-51.5 33.5t-44 27.5q-22 -20 -44 -63.5t-22 -91.5q0 -57 38 -98.5t99 -41.5q48 0 80.5 31t32.5 74z" />
    <glyph glyph-name="nine" unicode="9" horiz-adv-x="570" 
d="M229 126q0 -32 -17.5 -55t-44.5 -31q21 -17 53 -17q64 0 99 66.5t43 176.5q-54 -32 -116 -32q-87 0 -146.5 59.5t-59.5 157.5q0 96 66.5 162.5t174.5 66.5q115 0 182 -89.5t67 -234.5q0 -90 -35 -172.5t-104.5 -138t-157.5 -55.5q-76 0 -123 37t-47 93q0 34 24.5 58.5
t58.5 24.5q35 0 59 -21.5t24 -55.5zM364 305q1 11 1 33q0 89 -13.5 160t-39.5 111.5t-60 36.5q-37 -4 -53.5 -69.5t-3.5 -139.5q12 -75 42 -113t71 -38q29 0 56 19z" />
    <glyph glyph-name="colon" unicode=":" horiz-adv-x="260" 
d="M50 431q0 33 23.5 56t56.5 23t56 -23t23 -56q0 -34 -23 -57t-56 -23t-56.5 23t-23.5 57zM50 70q0 33 23.5 56t56.5 23t56 -23t23 -56t-23 -56.5t-56 -23.5t-56.5 23.5t-23.5 56.5z" />
    <glyph glyph-name="semicolon" unicode=";" horiz-adv-x="265" 
d="M53 431q0 33 23.5 56t56.5 23t56 -23t23 -56q0 -34 -23 -57t-56 -23t-56.5 23t-23.5 57zM72 -117q47 54 58 107q-33 0 -56.5 23.5t-23.5 56.5t24.5 56t57.5 23q34 0 58 -23t24 -61q0 -51 -40.5 -108.5t-88.5 -87.5z" />
    <glyph glyph-name="equal" unicode="=" horiz-adv-x="593" 
d="M61 382v70h472v-71zM61 242v70h472v-71z" />
    <glyph glyph-name="question" unicode="?" horiz-adv-x="525" 
d="M45 563q0 52 55.5 99.5t141.5 47.5q94 0 158.5 -41.5t64.5 -110.5q0 -15 -3.5 -30t-8 -26.5t-14.5 -25.5t-16 -22t-20 -21.5t-19.5 -18.5t-21 -18t-18.5 -16q-103 -93 -103 -158h-35q0 56 24 120t48 123.5t24 103.5q0 50 -24 77.5t-65 27.5q-44 0 -75 -29q31 -4 52 -27
t21 -55q0 -35 -24.5 -59t-58.5 -24q-36 0 -59.5 24t-23.5 59zM143 70q0 33 23 56t57 23q33 0 56 -23t23 -56t-23 -56.5t-56 -23.5q-34 0 -57 23.5t-23 56.5z" />
    <glyph glyph-name="at" unicode="@" horiz-adv-x="835" 
d="M617 -10q-89 0 -124 61q-38 -61 -118 -61q-77 0 -135 59t-58 155q0 117 73 191.5t163 74.5q55 0 94 -37l4 37h140l-36 -339q-11 -110 17 -110q31 0 53 57.5t29.5 114t7.5 94.5q0 152 -74 243.5t-213 91.5q-142 0 -240.5 -119.5t-94.5 -287.5q4 -145 99 -239.5t238 -90.5
q57 1 107 17l8 -21q-74 -21 -146 -21q-171 0 -277 98.5t-108 267.5q-1 112 51 208.5t149.5 155t219.5 58.5q160 0 262 -99.5t102 -262.5q0 -43 -12 -92t-34 -95.5t-61 -77.5t-86 -31zM331 205q3 -78 34.5 -128.5t59.5 -45.5q20 3 34.5 27t18.5 58l21 197q5 43 -21.5 87.5
t-60.5 42.5q-45 -3 -67.5 -72t-18.5 -166z" />
    <glyph glyph-name="A" unicode="A" horiz-adv-x="734" 
d="M453 697l208 -612q13 -35 39 -50q10 -5 23 -9t19 -8q5 -4 6.5 -10t-1.5 -8q-10 -2 -24 -1t-57 3.5t-77 2.5q-33 0 -75.5 -2.5t-56.5 -3.5t-24 1q-3 2 -1.5 8t6.5 10q5 3 20.5 6t23.5 11q14 14 1 50l-45 136h-263l-48 -126q-16 -41 0 -53q6 -5 33 -12.5t32 -11.5
q5 -3 6 -9.5t-1 -8.5q-8 -2 -17 -1t-40 3t-58 2t-58 -2t-40 -3t-17 1q-2 2 -1 8.5t6 9.5q5 4 30.5 9.5t42.5 15.5q28 16 42 52l182 471q11 30 15.5 43.5t3 30t-13.5 26.5q-6 5 -15.5 9t-14.5 8q-10 7 -4 17q3 4 15 4q7 0 39.5 -3t55.5 -3q21 0 50 2t35 2q17 0 18 -5z
M187 255h240l-112 338z" />
    <glyph glyph-name="B" unicode="B" horiz-adv-x="679" 
d="M423 0q-26 0 -113 2.5t-130 2.5q-34 0 -73.5 -2.5t-52 -3.5t-22.5 1q-3 2 -1.5 8t6.5 10t19.5 7.5t24.5 9.5q21 13 21 50v530q0 37 -21 50q-10 6 -24 10t-20 8q-5 3 -6.5 9t1.5 8q10 2 22.5 1t52.5 -3.5t74 -2.5q30 0 97 2.5t111 2.5q90 0 140 -46t50 -107t-41.5 -103.5
t-94.5 -58.5q89 -6 150 -55t61 -130q0 -94 -63 -147t-168 -53zM269 396h82q39 0 56 36t14 80t-19 76q-38 77 -91 77q-42 0 -42 -58v-211zM358 35h31q37 1 61.5 22.5t32.5 53t5.5 66t-15.5 63.5q-53 122 -156 122h-48v-257q0 -72 89 -70z" />
    <glyph glyph-name="C" unicode="C" horiz-adv-x="662" 
d="M590 672q13 -55 28 -166q-4 -3 -14.5 -1t-13.5 8q-31 70 -84.5 114.5t-115.5 44.5q-92 0 -137 -75t-44 -174q0 -47 6 -88q18 -140 79 -220t135 -80q58 0 106 31t79 80l27 -16q-34 -57 -96 -98.5t-157 -41.5q-149 0 -248.5 102t-99.5 253q0 163 99.5 264t261.5 101
q113 0 189 -38z" />
    <glyph glyph-name="D" unicode="D" horiz-adv-x="778" 
d="M404 0q-26 0 -106.5 2.5t-123.5 2.5q-34 0 -72 -2.5t-49.5 -3.5t-20.5 1q-3 2 -1.5 8t6.5 10q6 4 20 7.5t24 9.5q22 14 22 50v530q0 36 -22 50q-10 6 -24.5 9.5t-19.5 7.5t-6.5 10t1.5 8q9 2 20.5 1t49.5 -3.5t72 -2.5q40 0 115.5 2.5t117.5 2.5q153 0 246.5 -101.5
t93.5 -242.5q0 -161 -91.5 -258.5t-251.5 -97.5zM570 370q-24 147 -85.5 221t-154.5 74q-32 0 -46.5 -16t-14.5 -54v-491q0 -70 81 -70h51q74 0 118.5 45.5t54.5 120t-4 170.5z" />
    <glyph glyph-name="E" unicode="E" horiz-adv-x="632" 
d="M475 352q0 -21 2.5 -44.5t3.5 -30t-1 -13.5q-2 -2 -8 -0.5t-9 5.5q-4 6 -8 20.5t-10 24.5q-13 21 -50 21h-126v-230q0 -38 19 -54t61 -16h78q42 0 67 18.5t52 67.5q3 6 7.5 14.5t7 14t6 10t6.5 6.5q5 4 15 4t13 -3q-8 -32 -24 -87t-22 -80h-88q-43 0 -147.5 2.5
t-144.5 2.5q-34 0 -72.5 -2.5t-50 -3.5t-20.5 1q-2 2 -0.5 8.5t5.5 9.5q6 4 20.5 7.5t24.5 9.5q21 13 21 50v530q0 37 -21 50q-10 7 -24.5 10.5t-20.5 6.5q-5 3 -6 9.5t1 8.5q9 2 20.5 1t50 -3.5t72.5 -2.5q40 0 144 2.5t148 2.5h63q15 -98 26 -157q-3 -3 -11 -2t-13 5
q-4 3 -7 9.5t-7.5 19t-7.5 19.5q-16 37 -40 54t-70 17h-51q-41 1 -60.5 -15.5t-19.5 -54.5v-226h126q37 0 50 21q6 10 10 24.5t8 20.5q3 5 9 6t8 -1q2 -7 1 -13.5t-3.5 -30t-2.5 -44.5z" />
    <glyph glyph-name="F" unicode="F" horiz-adv-x="583" 
d="M475 345q0 -21 2.5 -44.5t3.5 -30t-1 -13.5q-8 -5 -17 5q-4 6 -8 20.5t-10 24.5q-12 21 -50 21h-126v-243q0 -37 21 -50q10 -7 24.5 -10.5t20.5 -6.5q5 -3 6 -9.5t-1 -8.5q-10 -2 -23.5 -1t-54.5 3.5t-75 2.5q-33 0 -75 -2.5t-56 -3.5t-24 1q-2 2 -0.5 8.5t5.5 9.5
q6 4 20.5 7.5t24.5 9.5q21 13 21 50v530q0 37 -21 50q-10 7 -24.5 10.5t-20.5 6.5q-5 3 -6 9.5t1 8.5q9 2 20.5 1t50 -3.5t72.5 -2.5q40 0 144 2.5t148 2.5h73q15 -102 27 -163q-3 -3 -11 -2t-13 5q-4 3 -7 9.5t-7.5 19t-7.5 19.5q-17 38 -41.5 57.5t-69.5 19.5h-61
q-41 1 -60.5 -15.5t-19.5 -54.5v-233h126q37 0 50 21q6 10 10 24.5t8 20.5q3 5 9 6t8 -1q2 -7 1 -13.5t-3.5 -30t-2.5 -44.5z" />
    <glyph glyph-name="G" unicode="G" horiz-adv-x="756" 
d="M504 236q0 36 -21 50q-10 6 -25.5 10t-21.5 8q-5 3 -6 9t1 8q10 2 24 1t56 -3.5t75 -2.5t75 2.5t55.5 3.5t23.5 -1q2 -2 0.5 -8t-5.5 -9q-6 -4 -20 -8t-24 -10q-21 -14 -21 -50v-175q-107 -71 -254 -71q-169 0 -272.5 101t-103.5 254q0 162 105.5 263.5t269.5 101.5
q56 0 113.5 -12.5t85.5 -26.5q13 -55 28 -166q-4 -3 -14.5 -1t-13.5 8q-33 71 -93.5 117t-128.5 46q-63 0 -106 -38.5t-60.5 -92.5t-17.5 -116q0 -47 7 -93q18 -143 83.5 -226.5t150.5 -83.5q31 0 55 5v206z" />
    <glyph glyph-name="H" unicode="H" horiz-adv-x="834" 
d="M566 615q0 37 -21 50q-10 6 -25.5 9.5t-20.5 7.5t-6.5 10t1.5 8q10 2 23.5 1t55.5 -3.5t75 -2.5t75 2.5t55.5 3.5t23.5 -1q3 -2 1.5 -8t-6.5 -10t-19 -7.5t-24 -9.5q-22 -14 -22 -50v-530q0 -36 22 -50q10 -6 24 -9.5t19 -7.5t6.5 -10t-1.5 -8q-10 -2 -23.5 -1t-55.5 3.5
t-75 2.5t-75 -2.5t-55.5 -3.5t-23.5 1q-3 2 -1.5 8t6.5 10q6 4 21 7.5t25 9.5q21 14 21 50v255h-295v-255q0 -37 21 -50q10 -7 24 -10.5t20 -6.5q4 -3 5.5 -9.5t-0.5 -8.5q-10 -2 -23.5 -1t-55.5 3.5t-75 2.5t-75 -2.5t-56 -3.5t-24 1q-2 2 -1 8.5t6 9.5q6 4 21.5 7.5
t25.5 9.5q21 15 21 50v530q0 35 -21 50q-11 6 -26.5 9.5t-20.5 7.5q-5 3 -6 9.5t1 8.5q10 2 24 1t56 -3.5t75 -2.5t75 2.5t55.5 3.5t23.5 -1q2 -2 0.5 -8.5t-5.5 -9.5q-6 -3 -20 -6.5t-24 -10.5q-21 -13 -21 -50v-241h295v241z" />
    <glyph glyph-name="I" unicode="I" horiz-adv-x="372" 
d="M105 615q0 35 -21 50q-11 6 -26.5 9.5t-20.5 7.5q-5 3 -6 9.5t1 8.5q10 2 24 1t56 -3.5t75 -2.5t75 2.5t55.5 3.5t23.5 -1q2 -2 0.5 -8.5t-5.5 -9.5q-6 -3 -20 -6.5t-24 -10.5q-21 -13 -21 -50v-530q0 -37 21 -50q10 -7 24 -10.5t20 -6.5q4 -3 5.5 -9.5t-0.5 -8.5
q-10 -2 -23.5 -1t-55.5 3.5t-75 2.5t-75 -2.5t-56 -3.5t-24 1q-2 2 -1 8.5t6 9.5q6 4 21.5 7.5t25.5 9.5q21 15 21 50v530z" />
    <glyph glyph-name="J" unicode="J" horiz-adv-x="415" 
d="M153 615q0 35 -21 50q-10 6 -25.5 10t-21.5 8q-5 3 -6 9t1 8q10 2 24 1t56 -3.5t75 -2.5t75 2.5t55.5 3.5t23.5 -1q2 -2 0.5 -8t-5.5 -9q-6 -4 -20 -8t-24 -10q-21 -13 -21 -50v-506q0 -178 -64 -262q-75 -97 -200 -97q-62 0 -96 30t-34 74q0 36 25.5 61t61.5 25t61 -25
t25 -61q0 -20 -11 -41.5t-24 -30.5q90 8 90 134v699z" />
    <glyph glyph-name="K" unicode="K" horiz-adv-x="756" 
d="M105 615q0 35 -21 50q-11 6 -26.5 9.5t-20.5 7.5q-5 3 -6 9.5t1 8.5q10 2 24 1t56 -3.5t75 -2.5t75 2.5t55.5 3.5t23.5 -1q2 -2 0.5 -8.5t-5.5 -9.5q-6 -3 -20 -6.5t-24 -10.5q-21 -13 -21 -50v-256l231 246q33 36 19 55q-8 12 -30 16t-25 6q-4 3 -5.5 9.5t0.5 8.5
q8 2 17.5 1t42 -3.5t62.5 -2.5t62.5 2.5t41.5 3.5t17 -1q2 -2 0.5 -8t-5.5 -9q-8 -8 -37.5 -16t-43.5 -15q-30 -14 -74 -60l-161 -163l248 -323q35 -46 67 -63q14 -7 32 -14t24 -11q5 -3 6 -9.5t-1 -8.5q-9 -2 -19 -1.5t-43.5 2.5t-61.5 2q-24 0 -54.5 -1.5t-41.5 -2
t-24 1.5q-7 2 -23 21l-221 294v-231q0 -37 21 -50q10 -7 24 -10.5t20 -6.5q4 -3 5.5 -9.5t-0.5 -8.5q-10 -2 -23.5 -1t-55.5 3.5t-75 2.5t-75 -2.5t-56 -3.5t-24 1q-2 2 -1 8.5t6 9.5q6 4 21.5 7.5t25.5 9.5q21 15 21 50v530z" />
    <glyph glyph-name="L" unicode="L" horiz-adv-x="596" 
d="M469 0q-43 0 -147.5 2.5t-144.5 2.5q-34 0 -72.5 -2.5t-50 -3.5t-20.5 1q-2 2 -0.5 8.5t5.5 9.5q6 4 20.5 7.5t24.5 9.5q21 13 21 50v530q0 35 -21 50q-11 6 -26.5 9.5t-20.5 7.5q-5 3 -6 9.5t1 8.5q10 2 24 1t56 -3.5t75 -2.5t75 2.5t55.5 3.5t23.5 -1q2 -2 0.5 -8.5
t-5.5 -9.5q-6 -3 -20 -6.5t-24 -10.5q-21 -13 -21 -50v-511q0 -38 19 -54t61 -16h75q41 0 68 22.5t55 73.5q3 6 7.5 14.5t7 13.5t6 10t6.5 7q5 4 13 4t12 -3q-39 -141 -47 -176h-85z" />
    <glyph glyph-name="M" unicode="M" horiz-adv-x="1023" 
d="M429 0l-220 571l-60 -486q-5 -39 18 -50q11 -5 37.5 -9t32.5 -8q4 -3 5.5 -9.5t-0.5 -8.5q-8 -2 -15.5 -1t-39 3t-62.5 2t-63 -2t-39.5 -3t-15.5 1q-2 2 -1 8.5t6 9.5t29 8t38 13q28 16 32 57l71 535q-11 17 -26 29q-16 11 -34 15.5t-22 7.5t-5.5 9t0.5 8q8 2 16 1t40 -3
t63 -2q29 0 63 2.5t40 2.5q15 0 16 -5l190 -477l202 477q3 7 17 7q5 0 39 -3.5t64 -3.5q31 0 62.5 2t39.5 3t16 -1q3 -2 2 -8.5t-6 -9.5q-7 -4 -29 -10.5t-31 -10.5q-28 -15 -24 -52l47 -524q3 -38 21 -50q10 -7 24 -10.5t20 -6.5q4 -3 5.5 -9.5t-0.5 -8.5q-10 -2 -23.5 -1
t-55.5 3.5t-75 2.5t-75 -2.5t-56 -3.5t-24 1q-3 2 -1.5 8t6.5 10q6 4 22 7.5t25 8.5q20 14 17 45l-43 481l-242 -560h-38z" />
    <glyph glyph-name="N" unicode="N" horiz-adv-x="820" 
d="M664 607q0 41 -21 54q-10 7 -40.5 12.5t-36.5 8.5q-5 3 -6 9.5t1 8.5q8 2 16 1t40 -3t63 -2t63 2t39.5 3t15.5 -1q2 -2 1 -8.5t-6 -9.5q-6 -3 -35 -8.5t-39 -12.5q-21 -13 -21 -54v-607h-77l-449 542v-449q0 -40 22 -54q10 -6 39 -11.5t34 -9.5t6.5 -10t-1.5 -8
q-8 -2 -15.5 -1t-39 3t-63.5 2q-31 0 -63 -2t-39.5 -3t-15.5 1q-3 2 -1.5 8t6.5 10q6 4 36 9.5t40 11.5q21 13 21 54v493q-36 55 -64 75q-12 8 -30 15l-17 6q-5 3 -6.5 9.5t1.5 8.5q8 2 16 1t39.5 -3t62.5 -2q32 0 62 2t35.5 3t13.5 -1l413 -491v398z" />
    <glyph glyph-name="O" unicode="O" horiz-adv-x="792" 
d="M40 350q0 158 101 259t255 101q156 0 256 -100.5t100 -259.5q0 -158 -101 -259t-255 -101q-156 0 -256 100.5t-100 259.5zM218 322q21 -138 94 -226t160 -70q69 14 95.5 109.5t6.5 234.5q-19 130 -79 219t-137 89q-14 0 -27 -3q-82 -18 -108 -113.5t-5 -239.5z" />
    <glyph glyph-name="P" unicode="P" horiz-adv-x="639" 
d="M271 289v-204q0 -37 21 -50q10 -6 24 -9.5t20 -7.5q4 -3 5.5 -9.5t-0.5 -8.5q-10 -2 -23.5 -1t-55.5 3.5t-75 2.5t-75 -2.5t-56 -3.5t-24 1q-2 2 -1 8.5t6 9.5q5 4 20.5 7.5t26.5 9.5q21 15 21 50v530q1 36 -21 50q-10 6 -24.5 9.5t-19.5 7.5t-6.5 10t1.5 8q9 2 20.5 1
t49.5 -3.5t72 -2.5q40 0 109 2.5t111 2.5q118 0 177.5 -57.5t59.5 -137.5q0 -103 -76.5 -168t-190.5 -66q-49 0 -96 18zM272 599l-1 -275q38 -18 79 -18q42 0 71 21q38 28 45 96.5t-26 145.5q-20 43 -51.5 69.5t-63.5 26.5q-28 0 -40.5 -14.5t-12.5 -51.5z" />
    <glyph glyph-name="Q" unicode="Q" horiz-adv-x="804" 
d="M40 350q0 158 101 259t255 101q156 0 256 -100.5t100 -259.5q0 -158 -101 -259t-255 -101q-156 0 -256 100.5t-100 259.5zM218 322q21 -138 94 -226t160 -70q69 14 95.5 109.5t6.5 234.5q-19 130 -79 219t-137 89q-14 0 -27 -3q-82 -18 -108 -113.5t-5 -239.5zM740 -34
l24 -14q-48 -172 -153 -172q-36 0 -67.5 17.5t-54 43t-43 50.5t-43 42.5t-45.5 17.5q-20 0 -34 -11q25 -6 41 -26.5t16 -46.5q0 -32 -22 -54.5t-54 -22.5q-33 0 -56 24t-23 61q-1 40 36 75t98 35q51 0 125.5 -35.5t125.5 -35.5q85 0 129 52z" />
    <glyph glyph-name="R" unicode="R" horiz-adv-x="715" 
d="M293 328h-22v-243q0 -37 21 -50q10 -6 24 -9.5t20 -7.5q4 -3 5.5 -9.5t-0.5 -8.5q-10 -2 -23.5 -1t-55.5 3.5t-75 2.5t-75 -2.5t-56 -3.5t-24 1q-2 2 -1 8.5t6 9.5q5 4 20.5 7.5t26.5 9.5q21 15 21 50v530q1 36 -21 50q-10 6 -24.5 9.5t-19.5 7.5t-6.5 10t1.5 8
q9 2 20.5 1t49.5 -3.5t72 -2.5q40 0 109 2.5t111 2.5q104 0 163.5 -52.5t59.5 -124.5q0 -75 -54.5 -124t-130.5 -65q46 -9 83 -41q24 -21 42.5 -51t42 -77.5t43.5 -79.5q22 -38 40 -49q10 -7 21 -11t16 -7t6 -9.5t-1 -8.5q-8 -2 -18.5 -1.5t-40 2.5t-49.5 2q-26 0 -53 -2
t-36 -1q-23 3 -39 26q-20 31 -44 89.5t-41.5 101.5t-47.5 77t-66 34zM272 601l-1 -239h77q47 0 73.5 36t26.5 82.5t-15 92.5q-18 46 -48 69t-63 23q-50 0 -50 -64z" />
    <glyph glyph-name="S" unicode="S" horiz-adv-x="584" 
d="M522 565q0 -35 -24 -59.5t-60 -24.5q-35 0 -60 24.5t-25 59.5q0 29 18 51.5t45 29.5q-37 28 -107 28q-53 0 -88.5 -26t-35.5 -66q0 -21 9.5 -39.5t31.5 -35.5t37.5 -27t49 -27.5t45.5 -24.5q47 -27 76.5 -46.5t60 -48t45 -61.5t14.5 -73q0 -92 -79 -150.5t-195 -58.5
q-100 0 -175 51.5t-75 123.5q0 37 25.5 62t61.5 25t61.5 -25t25.5 -62q0 -34 -23 -59t-57 -27q53 -53 154 -53q68 0 105.5 28t37.5 73q0 43 -37.5 79t-108.5 73q-121 62 -173 114.5t-52 131.5q0 76 68 130.5t188 54.5q92 0 154 -40t62 -105z" />
    <glyph glyph-name="T" unicode="T" horiz-adv-x="658" 
d="M329 695q55 0 161 2.5t150 2.5q15 -102 27 -163q-3 -3 -11 -2t-13 5q-4 3 -7 10t-7.5 18.5t-7.5 18.5q-17 39 -39.5 57.5t-67.5 19.5h-44q-31 0 -44.5 -16t-13.5 -54v-509q0 -37 21 -50q10 -7 24 -10.5t20 -6.5q4 -3 5.5 -9.5t-0.5 -8.5q-10 -2 -23.5 -1t-55.5 3.5
t-75 2.5t-75 -2.5t-56 -3.5t-24 1q-3 2 -1.5 8t6.5 10t20.5 7.5t26.5 9.5q21 15 21 50v509q0 39 -13 55t-43 15h-47q-45 0 -67.5 -18.5t-38.5 -57.5q-19 -45 -23 -48q-4 -4 -12.5 -5t-11.5 2q18 94 27 163q44 0 150.5 -2.5t161.5 -2.5z" />
    <glyph glyph-name="U" unicode="U" horiz-adv-x="754" 
d="M623 291v324q0 37 -21 50q-10 7 -40.5 10.5t-36.5 6.5q-4 3 -5.5 9.5t0.5 8.5q8 2 16 1t40 -3t63 -2t63 2t39.5 3t15.5 -1q2 -2 1 -8.5t-6 -9.5q-5 -4 -34.5 -7.5t-39.5 -9.5q-21 -13 -21 -50v-330q0 -155 -77 -225t-204 -70q-126 0 -203.5 71.5t-77.5 223.5v330
q0 35 -21 50q-11 6 -26.5 9.5t-20.5 7.5q-5 3 -6 9.5t1 8.5q10 2 24 1t56 -3.5t75 -2.5t75 2.5t55.5 3.5t23.5 -1q2 -2 0.5 -8.5t-5.5 -9.5q-6 -3 -20 -6.5t-24 -10.5q-21 -13 -21 -50v-381q0 -99 45.5 -149.5t116.5 -50.5q24 0 47.5 5t52.5 21.5t50 43t35.5 75t14.5 112.5z
" />
    <glyph glyph-name="V" unicode="V" horiz-adv-x="707" 
d="M72 615q-16 36 -38 50q-13 7 -25 10t-17 7t-6.5 10t1.5 8q10 2 23.5 1t56 -3.5t75.5 -2.5t75 2.5t56 3.5t24 -1q3 -2 1.5 -8t-6.5 -10q-5 -3 -16 -6t-17 -10q-14 -12 1 -51l188 -467l155 299q30 57 36 88q-11 -3 -23 -3q-37 0 -63 26t-26 63t26.5 63t65.5 26t66 -26
t27 -63q0 -13 -3 -28t-6.5 -26.5t-13.5 -32.5t-15.5 -31.5t-21.5 -41t-23 -44.5l-220 -417h-69z" />
    <glyph glyph-name="W" unicode="W" horiz-adv-x="1086" 
d="M72 615q-14 35 -38 50q-13 7 -25 10t-18 7q-4 3 -5.5 9.5t0.5 8.5q10 2 23.5 1t55.5 -3.5t75 -2.5q34 0 75 2.5t54.5 3.5t23.5 -1q3 -2 1.5 -8t-6.5 -10q-5 -3 -16.5 -6.5t-17.5 -9.5q-12 -12 2 -51l170 -460l138 267l-77 193q-14 36 -38 50q-13 7 -25 10t-17 7t-6.5 10
t1.5 8q10 2 23.5 1t55.5 -3.5t75 -2.5q34 0 75 2.5t54.5 3.5t22.5 -1q3 -2 1.5 -8t-6.5 -10q-5 -3 -16.5 -6.5t-16.5 -9.5q-13 -13 1 -51l168 -457l143 289q31 61 36 88q-14 -2 -22 -2q-37 0 -62.5 25.5t-25.5 62.5q0 38 26 63.5t64 25.5q39 0 66 -26t27 -63q0 -16 -3 -31.5
t-12.5 -37.5t-16 -35t-24.5 -48t-27 -52l-211 -417h-65l-150 378l-199 -378h-65z" />
    <glyph glyph-name="X" unicode="X" horiz-adv-x="743" 
d="M511 661q-11 8 -33 13.5t-27 8.5t-6.5 9t1.5 8q9 2 19 1t46 -3.5t70 -2.5t70 2.5t46 3.5t19 -1q3 -2 1.5 -8t-6.5 -9q-6 -5 -36 -13t-46 -15q-53 -22 -99 -94l-96 -146l210 -330q24 -36 55 -51q11 -6 23.5 -9t18.5 -7q5 -3 6 -9.5t-1 -8.5q-10 -2 -25.5 -1t-59.5 3.5
t-77 2.5t-77 -2.5t-59.5 -3.5t-25.5 1q-5 8 5 18q5 4 18.5 8.5t17.5 9.5q12 17 -10 49l-135 212l-113 -181q-36 -56 -8 -77q11 -8 33 -13t27 -8q5 -4 6.5 -10t-1.5 -8q-9 -2 -19 -1t-46.5 3.5t-70.5 2.5t-70 -2.5t-46 -3.5t-19 1q-2 2 -0.5 8.5t5.5 9.5q6 4 36 12t46 15
q56 25 100 94l119 191l-182 285q-23 35 -54 51q-10 5 -23 8.5t-19 8.5q-5 3 -6 9t1 8q10 2 26 1t60 -3.5t77 -2.5t76.5 2.5t59 3.5t25.5 -1q2 -2 0.5 -8t-5.5 -9q-5 -5 -18.5 -9.5t-17.5 -9.5q-12 -16 9 -49l108 -168l89 137q37 55 8 77z" />
    <glyph glyph-name="Y" unicode="Y" horiz-adv-x="710" 
d="M96 615q-13 23 -22 33.5t-23 17.5q-13 7 -24 10t-15 6q-5 4 -6.5 10t1.5 8q10 2 24 1t56 -3.5t75 -2.5t75.5 2.5t57 3.5t24.5 -1q3 -2 1.5 -8t-6.5 -9q-5 -4 -19.5 -8t-18.5 -10q-10 -16 10 -50l146 -250l113 231q24 50 1 67q-9 7 -35 11.5t-31 7.5t-6 9.5t1 8.5
q8 2 14 1t37.5 -3.5t65.5 -2.5t65 2.5t37 3.5t14 -1q3 -2 1.5 -8t-6.5 -10q-7 -5 -28.5 -11t-32.5 -11q-20 -10 -34.5 -29t-40.5 -70l-120 -244v-232q0 -37 21 -50q10 -7 24 -10.5t20 -6.5q4 -3 5.5 -9.5t-0.5 -8.5q-10 -2 -23.5 -1t-55.5 3.5t-75 2.5t-75 -2.5t-56 -3.5
t-24 1q-2 2 -1 8.5t6 9.5q6 4 21.5 7.5t25.5 9.5q21 15 21 50v217z" />
    <glyph glyph-name="Z" unicode="Z" horiz-adv-x="683" 
d="M280 666q-76 -1 -107 -25t-57 -95q-16 -43 -20 -47q-5 -7 -14.5 -8.5t-12.5 1.5q7 41 11 124q1 32 0 52.5t0.5 31.5t8.5 14q14 3 18.5 0t31.5 -8.5t64 -5.5h422l10 -26l-408 -639l140 1q93 0 142.5 18.5t88.5 86.5q4 7 9.5 18.5t9 18t7.5 8.5q5 4 16 4q10 0 13 -3
q-42 -139 -52 -187l-552 -1l-18 27l407 640h-158z" />
    <glyph glyph-name="bracketleft" unicode="[" horiz-adv-x="262" 
d="M30 770h86h109q3 -2 1.5 -8t-6.5 -10t-29.5 -7.5t-34.5 -9.5q-21 -14 -21 -50v-750q0 -38 21 -50q10 -6 34 -10t30 -8q5 -4 6.5 -9.5t-1.5 -7.5q-7 -2 -17.5 -1.5t-41 1t-51.5 0.5h-85v920z" />
    <glyph glyph-name="backslash" unicode="\" horiz-adv-x="319" 
d="M293 -40h-55l-257 780h55z" />
    <glyph glyph-name="bracketright" unicode="]" horiz-adv-x="262" 
d="M232 770v-920h-85q-21 0 -51.5 -0.5t-41 -1t-17.5 1.5q-3 2 -1.5 7.5t6.5 9.5q6 4 30 8t34 10q22 13 22 50v750q0 36 -22 50q-10 6 -34.5 9.5t-29.5 7.5t-6.5 10t1.5 8h109h86z" />
    <glyph glyph-name="asciicircum" unicode="^" horiz-adv-x="366" 
d="M252 527l-69 74l-68 -74q-10 -10 -23 -24.5t-20 -22t-14 -11.5q-9 -6 -18 -6q-10 0 -15 7l145 240h27l144 -240q-5 -7 -14 -7t-18 6q-7 5 -14 11.5t-22 23t-21 23.5z" />
    <glyph glyph-name="underscore" unicode="_" horiz-adv-x="465" 
d="M10 -144l1 70h444v-70h-445z" />
    <glyph glyph-name="grave" unicode="`" horiz-adv-x="239" 
d="M96 614l-76 60l49 64l21 -6l128 -155q-7 -15 -38 -8q-35 7 -84 45z" />
    <glyph glyph-name="a" unicode="a" horiz-adv-x="561" 
d="M444 -10q-42 0 -71.5 24t-40.5 68q-72 -92 -162 -92q-58 0 -96 34t-38 89q0 66 51.5 101t142.5 59q82 19 95 22v80q0 53 -28.5 80.5t-69.5 27.5q-45 0 -81 -29q25 -5 41 -24.5t16 -45.5q0 -30 -21 -51t-51 -21t-51 21t-21 51q0 48 54 87t137 39q99 0 165 -54t66 -154
v-172q0 -70 29 -70q15 0 39 24l17 -12q-50 -82 -122 -82zM327 112q-2 16 -2 26v131q-61 -19 -80 -28q-62 -30 -62 -98q0 -31 17 -53.5t45 -22.5q21 0 44 13t38 32z" />
    <glyph glyph-name="b" unicode="b" horiz-adv-x="602" 
d="M225 770v-298q54 38 116 38q103 0 173 -74t68 -183q-2 -119 -73.5 -191t-161.5 -72q-57 0 -107.5 25.5t-73.5 55.5q-10 -14 -39.5 -39.5t-43.5 -31.5l-21 9q7 46 7 180v403q0 35 -20 50q-8 6 -20.5 10t-17.5 8q-10 6 -5 18q139 0 197 92h22zM225 443v-268
q0 -56 37 -107.5t83 -51.5q81 0 81 147q0 58 -10 106q-17 81 -55 138.5t-83 57.5q-24 0 -53 -22z" />
    <glyph glyph-name="c" unicode="c" horiz-adv-x="479" 
d="M21 249q-1 106 75 183.5t190 77.5q69 0 121 -36.5t52 -85.5q0 -30 -19.5 -51t-49.5 -21q-28 0 -48.5 20t-20.5 49q0 26 17 45.5t43 22.5q-5 9 -30 20.5t-59 11.5q-73 0 -105.5 -72.5t-13.5 -168.5q15 -74 63.5 -125t117.5 -51q26 0 54.5 13t46.5 34l19 -12
q-7 -13 -22 -29.5t-39.5 -36.5t-62.5 -33.5t-80 -13.5q-108 0 -178.5 74t-70.5 185z" />
    <glyph glyph-name="d" unicode="d" horiz-adv-x="604" 
d="M528 143q0 -35 16 -48q6 -4 17 -8.5t16 -7.5q9 -8 5 -18q-35 -4 -78.5 -25t-74.5 -46h-22q-17 30 -24 58q-72 -58 -141 -58q-92 0 -157.5 75t-63.5 182q2 120 75.5 191.5t163.5 71.5q64 0 112 -32v118q0 31 -20 46q-8 6 -20.5 10t-17.5 8q-10 6 -5 18q139 0 197 92h22
v-627zM377 74q-5 30 -5 64v208q-1 52 -42.5 98.5t-86.5 37.5q-30 -6 -47 -32.5t-20.5 -65t-1 -75t9.5 -72.5q18 -84 57 -134.5t83 -50.5q26 0 53 22z" />
    <glyph glyph-name="e" unicode="e" horiz-adv-x="504" 
d="M21 249q0 108 72 184.5t178 76.5q105 0 163 -67.5t49 -154.5q-1 -15 -22 -17h-291q7 -52 26.5 -95.5t59 -75.5t91.5 -32q69 0 112 53l18 -12q-16 -37 -74 -78t-132 -41q-108 0 -179 74t-71 185zM167 296h180q-2 76 -30.5 136t-73.5 52q-40 -7 -61 -60t-15 -128z" />
    <glyph glyph-name="f" unicode="f" horiz-adv-x="348" 
d="M254 646q0 34 23 52t58 18q-17 29 -66 29q-42 0 -72.5 -28t-30.5 -79q0 -41 21 -77.5t51 -60.5h125q5 -14 -6 -22t-56 -8h-63v-385q0 -35 23 -50q10 -7 22.5 -10.5t18.5 -6.5q4 -3 5.5 -9.5t-0.5 -8.5q-10 -2 -21.5 -1t-50.5 3.5t-73 2.5t-74.5 -2.5t-53.5 -3.5t-23 1
q-3 2 -1.5 8t6.5 10q6 4 20.5 7.5t24.5 9.5q21 15 21 50v385h-75q-7 14 6 22q10 8 56 8h13v7q0 123 54.5 193t133.5 70q56 0 92 -33.5t36 -80.5q0 -34 -20 -57t-52 -23q-29 0 -50.5 20.5t-21.5 49.5z" />
    <glyph glyph-name="g" unicode="g" horiz-adv-x="539" 
d="M40 -127q0 30 21 51t51 21t51 -21t21 -51q0 -24 -15 -43t-37 -26q36 -29 128 -29q73 0 111.5 21t38.5 49q0 26 -39.5 46.5t-127.5 46.5q-116 35 -163.5 60.5t-47.5 68.5q0 30 23.5 57t58.5 44q-89 53 -89 151q0 84 62.5 137.5t166.5 53.5q60 0 109 -20q27 31 66 52.5
t76 21.5q31 0 49.5 -19t18.5 -45q0 -27 -18 -44.5t-44 -17.5t-44 17.5t-18 44.5q0 11 1 16q-34 -4 -64 -37q46 -24 72 -64.5t26 -89.5q0 -85 -63.5 -138.5t-166.5 -53.5q-65 0 -113 21q-27 -13 -27 -27q0 -18 185 -51q4 -1 7.5 -1.5t6.5 -1.5q110 -21 156.5 -55.5
t46.5 -92.5q0 -67 -71.5 -121t-187.5 -54q-86 0 -151.5 32t-65.5 91zM178 322q12 -75 38 -118t64 -43q32 0 48 45t4 116q-12 73 -40.5 116.5t-64.5 43.5q-32 0 -46.5 -45t-2.5 -115z" />
    <glyph glyph-name="h" unicode="h" horiz-adv-x="664" 
d="M575 85q0 -36 22 -50q10 -6 25 -9.5t20 -7.5q5 -3 6 -9.5t-1 -8.5q-10 -2 -22.5 -1t-52 3.5t-73.5 2.5t-73.5 -2.5t-52 -3.5t-22.5 1q-2 2 -0.5 8.5t5.5 9.5q6 4 19 7.5t23 9.5q21 14 21 50v253q0 108 -76 108q-44 0 -104 -46v-315q0 -37 21 -50q10 -6 23.5 -9.5
t18.5 -7.5q5 -3 6 -9.5t-1 -8.5q-10 -2 -21.5 -1t-50.5 3.5t-73 2.5t-74 -2.5t-53 -3.5t-23 1q-2 2 -0.5 8.5t5.5 9.5q6 4 20.5 7.5t24.5 9.5q21 13 21 50v511q0 31 -20 46q-8 6 -20.5 10t-17.5 8q-10 6 -5 18q139 0 197 92h22v-340q104 80 177 80q79 0 119 -50t40 -142
v-233z" />
    <glyph glyph-name="i" unicode="i" 
d="M78 644q0 36 25.5 61t61.5 25t61 -25t25 -61t-25 -61t-61 -25t-61.5 25t-25.5 61zM93 346q0 34 -20 49q-8 5 -20.5 9.5t-17.5 8.5q-10 6 -5 18q61 0 115.5 20.5t81.5 58.5h22v-425q0 -37 21 -50q10 -6 23.5 -9.5t18.5 -7.5q5 -3 6 -9.5t-1 -8.5q-10 -2 -21.5 -1
t-50.5 3.5t-73 2.5t-74 -2.5t-53 -3.5t-23 1q-2 2 -0.5 8.5t5.5 9.5q6 4 20.5 7.5t24.5 9.5q21 13 21 50v261z" />
    <glyph glyph-name="j" unicode="j" horiz-adv-x="285" 
d="M71 644q0 36 25.5 61t61.5 25t61 -25t25 -61t-25 -61t-61 -25t-61.5 25t-25.5 61zM86 346q0 35 -20 48q-8 6 -20.5 10.5t-17.5 8.5q-10 6 -5 18q61 0 115.5 20.5t81.5 58.5h22v-453q0 -79 -12 -124t-46 -86q-29 -36 -77 -62t-86 -35l-10 22q40 26 57.5 64.5t17.5 116.5
v393z" />
    <glyph glyph-name="k" unicode="k" horiz-adv-x="613" 
d="M83 596q0 32 -20 45q-9 7 -21 11.5t-17 7.5q-10 6 -5 18q139 0 197 92h22v-502q84 67 154 143q31 34 17 51q-7 8 -25 13t-23 8q-4 3 -5.5 9t0.5 8q8 2 15.5 1t39 -3t60.5 -2t60 2t38.5 3t15.5 -1q6 -9 -6 -17q-4 -3 -12 -5.5t-22 -7t-27 -9.5q-44 -17 -97 -65
q-17 -15 -43.5 -39t-37.5 -34l195 -238q29 -35 53 -50q10 -6 23 -9.5t19 -7.5q5 -3 6 -9.5t-1 -8.5q-8 -2 -17 -1.5t-40.5 2.5t-57.5 2q-21 0 -47.5 -1.5t-36 -2.5t-21.5 1q-12 3 -37 36l-140 187v-138q0 -37 21 -50q10 -6 23.5 -9.5t18.5 -7.5q5 -3 6 -9.5t-1 -8.5
q-10 -2 -21.5 -1t-50.5 3.5t-73 2.5t-74 -2.5t-53 -3.5t-23 1q-2 2 -0.5 8.5t5.5 9.5q6 4 20.5 7.5t24.5 9.5q21 13 21 50v511z" />
    <glyph glyph-name="l" unicode="l" horiz-adv-x="329" 
d="M83 593q0 34 -20 49q-8 6 -20.5 10t-17.5 8q-10 6 -5 18q139 0 197 92h22v-685q0 -37 21 -50q10 -6 23.5 -9.5t18.5 -7.5q5 -3 6 -9.5t-1 -8.5q-10 -2 -21.5 -1t-50.5 3.5t-73 2.5t-74 -2.5t-53 -3.5t-23 1q-2 2 -0.5 8.5t5.5 9.5q6 4 20.5 7.5t24.5 9.5q21 13 21 50v508
z" />
    <glyph glyph-name="m" unicode="m" horiz-adv-x="988" 
d="M574 85q0 -36 22 -50q10 -6 25 -9.5t20 -7.5q5 -3 6 -9.5t-1 -8.5q-10 -2 -22.5 -1t-52 3.5t-73.5 2.5t-73.5 -2.5t-52 -3.5t-22.5 1q-2 2 -0.5 8.5t5.5 9.5q6 4 19 7.5t23 9.5q21 14 21 50v253q0 108 -78 108q-33 0 -91 -45v-316q0 -37 21 -50q10 -6 23.5 -9.5
t18.5 -7.5q5 -3 6 -9.5t-1 -8.5q-10 -2 -21.5 -1t-50.5 3.5t-73 2.5t-74 -2.5t-53 -3.5t-23 1q-2 2 -0.5 8.5t5.5 9.5q6 4 20.5 7.5t24.5 9.5q21 13 21 50v260q0 36 -20 49q-8 6 -20.5 10.5t-17.5 8.5q-10 6 -5 18q61 0 115.5 20.5t81.5 58.5h22v-79q93 79 160 79
q113 0 149 -93q105 93 176 93q82 0 123.5 -50t41.5 -142v-233q0 -36 22 -50q10 -6 25 -9.5t20 -7.5q5 -3 6 -9.5t-1 -8.5q-10 -2 -22.5 -1t-52 3.5t-73.5 2.5t-73.5 -2.5t-52 -3.5t-22.5 1q-2 2 -0.5 8.5t5.5 9.5q6 4 19 7.5t23 9.5q21 14 21 50v253q0 108 -78 108
q-35 0 -100 -52q9 -33 9 -76v-233z" />
    <glyph glyph-name="n" unicode="n" horiz-adv-x="669" 
d="M580 85q0 -36 22 -50q10 -6 25 -9.5t20 -7.5q5 -3 6 -9.5t-1 -8.5q-10 -2 -22.5 -1t-52 3.5t-73.5 2.5t-73.5 -2.5t-52 -3.5t-22.5 1q-2 2 -0.5 8.5t5.5 9.5q6 4 19 7.5t23 9.5q21 14 21 50v253q0 108 -74 108q-41 0 -101 -44v-317q0 -37 21 -50q10 -6 23.5 -9.5
t18.5 -7.5q5 -3 6 -9.5t-1 -8.5q-10 -2 -21.5 -1t-50.5 3.5t-73 2.5t-74 -2.5t-53 -3.5t-23 1q-2 2 -0.5 8.5t5.5 9.5q6 4 20.5 7.5t24.5 9.5q21 13 21 50v260q0 36 -20 49q-8 6 -20.5 10.5t-17.5 8.5q-10 6 -5 18q61 0 115.5 20.5t81.5 58.5h22v-80q102 80 174 80
q78 0 117.5 -50t39.5 -142v-233z" />
    <glyph glyph-name="o" unicode="o" horiz-adv-x="564" 
d="M21 250q0 114 73.5 187t187.5 73q116 0 189 -72t73 -188q0 -115 -73.5 -187.5t-188.5 -72.5q-116 0 -188.5 72t-72.5 188zM185 240q22 -108 60 -168.5t85 -52.5q42 7 56.5 76t-4.5 167q-18 105 -58.5 166t-86.5 54q-42 -7 -57 -75.5t5 -166.5z" />
    <glyph glyph-name="p" unicode="p" horiz-adv-x="603" 
d="M68 346q0 35 -20 48q-8 6 -20.5 10.5t-17.5 8.5q-10 6 -5 18q61 0 115.5 20.5t81.5 58.5h22v-44q62 44 125 44q103 0 169.5 -73.5t64.5 -183.5q-2 -120 -71 -191.5t-164 -71.5q-66 0 -124 38v-193q0 -37 21 -50q10 -7 27 -10.5t23 -6.5q4 -3 5.5 -9.5t-0.5 -8.5
q-10 -2 -23.5 -1t-54.5 3.5t-75 2.5t-74 -2.5t-53 -3.5t-23 1q-2 2 -1 8.5t6 9.5q5 4 19.5 7.5t25.5 9.5q21 13 21 50v511zM224 435v-235q-1 -64 35 -125t86 -61q34 0 53.5 30t22.5 74t0.5 83t-8.5 67q-18 83 -57 135t-80 52q-23 0 -52 -20z" />
    <glyph glyph-name="q" unicode="q" horiz-adv-x="598" 
d="M445 439q44 53 74 71l21 -9q-7 -45 -7 -181v-485q0 -35 21 -50q10 -6 23 -10t19 -8q5 -3 6 -9t-1 -8q-10 -2 -21.5 -1t-50.5 3.5t-73 2.5q-33 0 -76 -2.5t-57.5 -3.5t-24.5 1q-2 2 -0.5 8t5.5 9q6 4 24.5 8t28.5 10q21 13 21 50v210q-68 -55 -139 -55q-89 0 -153.5 75
t-63.5 182q1 115 73.5 189t169.5 74q61 0 108 -22.5t73 -48.5zM377 73v271q0 52 -40 99t-83 40q-40 -6 -60 -50t-17.5 -97.5t11.5 -103.5q19 -86 54.5 -133t80.5 -47q26 0 54 21z" />
    <glyph glyph-name="r" unicode="r" horiz-adv-x="485" 
d="M407 510q38 0 65.5 -23t27.5 -65q0 -32 -22 -53.5t-53 -21.5q-30 0 -51 20t-21 50q0 40 33 61q-40 -6 -77 -42.5t-60 -79.5v-271q0 -37 21 -50q10 -6 23.5 -9.5t18.5 -7.5q5 -3 6 -9.5t-1 -8.5q-10 -2 -21.5 -1t-50.5 3.5t-73 2.5t-74 -2.5t-53 -3.5t-23 1q-2 2 -0.5 8.5
t5.5 9.5q6 4 20.5 7.5t24.5 9.5q21 13 21 50v260q0 36 -20 49q-8 6 -20.5 10.5t-17.5 8.5q-10 6 -5 18q61 0 115.5 20.5t81.5 58.5h22v-108q30 44 71.5 76t86.5 32z" />
    <glyph glyph-name="s" unicode="s" horiz-adv-x="473" 
d="M418 401q0 -27 -17 -45.5t-43 -18.5q-27 0 -47 17.5t-20 43.5q0 22 13.5 40t34.5 24q-28 23 -87 23q-35 0 -60.5 -17t-26.5 -43q0 -20 21 -41t42.5 -33.5t59.5 -31.5q74 -39 114 -78t40 -93q1 -67 -58.5 -112.5t-146.5 -45.5q-83 0 -139.5 36t-56.5 87q0 28 19 49t46 21
q28 0 47.5 -19.5t19.5 -47.5q0 -25 -16.5 -44t-41.5 -22q39 -35 118 -35q50 0 77 19t27 43q0 26 -29 49t-87 53q-86 44 -124.5 85.5t-37.5 93.5q1 62 51.5 107t141.5 45q68 0 117 -31t49 -78z" />
    <glyph glyph-name="t" unicode="t" horiz-adv-x="351" 
d="M67 418q0 32 -24 48q-9 6 -23.5 10t-18.5 7q-10 6 -5 18q75 0 130.5 39.5t74.5 94.5h22v-135h101q4 -15 -6 -22q-11 -8 -56 -8h-39v-368q0 -60 43 -60q25 0 47 22l18 -12q-47 -62 -134 -62q-64 0 -97 40.5t-33 114.5v273z" />
    <glyph glyph-name="u" unicode="u" horiz-adv-x="636" 
d="M75 352q-1 36 -21 48q-7 6 -19.5 10.5t-17.5 8.5q-10 6 -5 18q129 0 197 73h22v-348q0 -108 78 -108q43 0 97 43q-2 24 -2 41v213q0 36 -20 49q-8 6 -20.5 10.5t-17.5 8.5q-10 6 -5 18q130 0 197 73h22v-367q0 -35 16 -48q6 -4 17 -8.5t16 -7.5q9 -8 5 -18
q-35 -4 -78.5 -25t-74.5 -46h-22q-22 38 -29 80q-104 -80 -170 -80q-85 0 -124.5 52.5t-40.5 141.5v168z" />
    <glyph glyph-name="v" unicode="v" horiz-adv-x="544" 
d="M539 440q0 -11 -3 -23t-5.5 -20.5t-11 -25t-12.5 -25t-17 -32t-19 -34.5l-155 -280h-84l-183 396q-23 51 -46 67q-11 8 -23.5 12t-17.5 7t-6 9.5t1 8.5q10 2 22.5 1t52.5 -3.5t74 -2.5t74 2.5t53 3.5t23 -1q2 -2 1 -8t-6 -10t-15.5 -8.5t-17.5 -8.5q-22 -14 -6 -50
l132 -314l108 205q20 41 26 56q-10 -2 -15 -2q-31 0 -54 22t-23 52q0 31 23 54t54 23q32 0 54 -20t22 -51z" />
    <glyph glyph-name="w" unicode="w" horiz-adv-x="834" 
d="M206 415l107 -311l104 205l-34 87q-19 49 -46 67q-12 8 -24 12t-17 7q-5 4 -6.5 10t1.5 8q10 2 21.5 1t50.5 -3.5t73 -2.5t73.5 2.5t52 3.5t22.5 -1q5 -8 -5 -18q-5 -4 -15.5 -8.5t-17.5 -8.5q-20 -13 -7 -50l107 -308l101 210q9 17 17 44q-1 0 -5 -0.5t-6 -0.5
q-31 0 -54 22t-23 52q0 31 23 54t54 23q32 0 54 -20.5t22 -50.5q-1 -12 -3 -22.5t-8.5 -26t-10.5 -24t-17.5 -35t-20.5 -40.5l-149 -292h-81l-108 273l-145 -273h-80l-157 396q-19 49 -46 67q-11 8 -23.5 12t-17.5 7t-6 9.5t1 8.5q10 2 21.5 1t50.5 -3.5t73 -2.5t73.5 2.5
t52 3.5t22.5 -1q5 -8 -5 -18q-5 -4 -15.5 -8.5t-17.5 -8.5q-20 -12 -6 -50z" />
    <glyph glyph-name="x" unicode="x" horiz-adv-x="567" 
d="M493 85q23 -36 51 -51q11 -6 23.5 -9.5t17.5 -6.5q6 -4 7 -10t-2 -8q-10 -2 -22.5 -1t-52.5 3.5t-74 2.5t-73.5 -2.5t-52 -3.5t-22.5 1q-6 9 6 17q26 13 29 20q8 13 -15 48l-73 111l-83 -103q-19 -24 -19 -39q0 -16 29 -25q7 -2 23.5 -5t21.5 -6t6.5 -9.5t-1.5 -8.5
q-8 -2 -16 -1t-38.5 3.5t-60.5 2.5t-60.5 -2.5t-38.5 -3.5t-16 1q-1 1 -1.5 4.5t2 8t7.5 7.5q6 4 26.5 9.5t36.5 12.5q28 14 66 58l103 117l-129 198q-23 36 -51 51q-11 6 -23.5 9.5t-17.5 6.5q-11 8 -5 18q10 2 22.5 1t52.5 -3.5t74 -2.5t73.5 2.5t52 3.5t22.5 -1
q7 -10 -6 -17q-25 -12 -29 -20q-8 -13 16 -48l58 -90l66 82q20 25 20 40q0 16 -30 24q-6 2 -23 5.5t-22 6.5q-10 7 -5 18q8 2 16 1t39 -3.5t61 -2.5t60.5 2.5t38.5 3.5t16 -1q2 -2 0.5 -9.5t-8.5 -10.5q-6 -4 -26.5 -9.5t-37.5 -13.5q-26 -12 -66 -57l-85 -98z" />
    <glyph glyph-name="y" unicode="y" horiz-adv-x="527" 
d="M215 415l119 -255l109 247q17 37 0 54q-7 8 -35.5 13t-33.5 9q-5 3 -6 9t1 8q8 2 16 1t38.5 -3.5t60.5 -2.5t57 2.5t32.5 3.5t12.5 -1q1 -2 1 -4.5t-2 -7.5t-7 -8q-6 -4 -25 -8t-33 -9q-28 -13 -51 -63l-220 -497q-32 -72 -49 -100q-34 -54 -78 -54q-32 0 -54 22.5
t-22 53.5t22.5 53t53.5 22q49 0 70 -48q17 24 36 68l31 69l-213 426q-21 40 -40 51q-11 6 -25 9.5t-19 6.5t-6 9.5t1 8.5q10 2 23.5 1t54.5 -3.5t75 -2.5t72.5 2.5t50.5 3.5t21 -1q5 -8 -5 -18q-3 -3 -14.5 -8.5t-17.5 -10.5q-17 -16 -2 -48z" />
    <glyph glyph-name="z" unicode="z" horiz-adv-x="508" 
d="M67 445q2 12 3 24t1 19t1 13.5t2.5 9.5t4.5 4q4 1 11.5 -2.5t25 -8t42.5 -4.5h303l12 -17l-274 -458h78q67 -1 110 25t71 86q12 28 16 29q11 0 13 -10q1 -8 -5 -23q-27 -73 -38 -132h-412l-12 18l274 457h-87q-50 1 -78.5 -24t-47.5 -75q-9 -26 -12 -29q-3 -2 -8.5 0.5
t-6.5 7.5q-1 6 3 25q4 17 10 65z" />
    <glyph glyph-name="braceleft" unicode="{" horiz-adv-x="308" 
d="M93 309q87 -33 87 -145v-228q0 -36 21 -49q10 -6 34.5 -10t30.5 -8q12 -9 5 -18h-91q-52 0 -80 36q-24 33 -24 103v179q0 108 -45 134v16q45 26 45 133v179q0 72 25 103q26 36 79 36h91q3 -2 1.5 -8t-6.5 -10t-29.5 -7.5t-34.5 -9.5q-21 -14 -21 -50v-227
q0 -111 -88 -149z" />
    <glyph glyph-name="bar" unicode="|" horiz-adv-x="195" 
d="M70 -151v921h55v-921h-55z" />
    <glyph glyph-name="braceright" unicode="}" horiz-adv-x="308" 
d="M215 309q-87 38 -87 149v227q0 35 -21 50q-11 6 -35.5 9.5t-29.5 7.5q-5 3 -6 9.5t1 8.5h91q52 0 80 -36q24 -30 24 -103v-179q0 -107 45 -133v-16q-45 -26 -45 -134v-179q0 -72 -24 -103q-28 -36 -80 -36h-91q-5 11 5 18q6 4 30.5 8t34.5 10q21 12 21 49v228
q0 112 87 145z" />
    <glyph glyph-name="asciitilde" unicode="~" horiz-adv-x="500" 
d="M147 261q-53 0 -104 -36l-17 10q15 44 49.5 78.5t78.5 34.5q45 0 108.5 -29t92.5 -29q52 0 103 34l17 -9q-14 -43 -49.5 -78t-79.5 -35q-40 0 -104.5 29.5t-94.5 29.5z" />
    <glyph glyph-name="exclamdown" unicode="&#xa1;" horiz-adv-x="293" 
d="M67 430q0 33 23.5 56.5t56.5 23.5t56 -23.5t23 -56.5t-23 -56t-56 -23t-56.5 23t-23.5 56zM147 -210q-37 0 -62 23.5t-25 64.5q0 22 3.5 45t11 61t11.5 60q3 18 20.5 108.5t22.5 125.5h35q1 -4 44 -234q3 -19 11 -59t11 -62.5t3 -44.5q0 -41 -24.5 -64.5t-61.5 -23.5z
" />
    <glyph glyph-name="cent" unicode="&#xa2;" horiz-adv-x="514" 
d="M31 332q-1 103 72.5 180t184.5 81l14 111l36 -4l-14 -108q61 -8 103 -42t42 -79q0 -30 -19.5 -51t-49.5 -21q-28 0 -48.5 20.5t-20.5 48.5q0 25 16.5 44.5t40.5 23.5q-4 7 -23 17.5t-44 13.5l-51 -383q42 -33 94 -33q26 0 54.5 13t46.5 34l19 -12q-7 -13 -22 -29.5
t-39.5 -36.5t-62.5 -33.5t-80 -13.5q-16 0 -24 1l-15 -118l-36 4l16 120q-85 20 -137.5 88.5t-52.5 163.5zM238 215l46 352q-63 -9 -90 -78t-9 -158q14 -67 53 -116z" />
    <glyph glyph-name="sterling" unicode="&#xa3;" horiz-adv-x="560" 
d="M490 563q0 -28 -15.5 -48t-43.5 -20t-46.5 17t-18.5 42t16.5 44t40.5 21q-26 29 -67 29t-68 -29t-27 -81q0 -23 3.5 -48t11 -59.5t10.5 -53.5h104q7 -16 -7 -26q-13 -9 -46 -9h-46q4 -38 4 -60q1 -66 -38 -121.5t-101 -87.5l213 1q46 0 70 8.5t39 35.5q24 44 27 46
q5 4 13.5 3.5t11.5 -3.5q-7 -25 -16 -59.5t-15.5 -59t-11.5 -45.5h-50q-43 0 -125.5 2.5t-122.5 2.5q-34 0 -72.5 -2.5t-50 -3.5t-20.5 1q-2 2 -1 8.5t6 9.5q40 25 57 50q36 50 32 137q0 16 -13 137h-95q-7 15 7 25q13 10 65 10h20q-2 32 -2 49q0 104 58 179t157 75
q70 0 111.5 -36t41.5 -81z" />
    <glyph glyph-name="yen" unicode="&#xa5;" horiz-adv-x="720" 
d="M118 588q-22 40 -44 50q-12 6 -22.5 9t-15.5 6q-11 10 -4 17q9 2 22.5 1t54.5 -3.5t73 -2.5q33 0 74 2.5t54.5 3.5t23.5 -1q2 -2 1 -8t-6 -9t-19 -7t-18 -10q-9 -13 10 -48l131 -232l99 214q23 49 2 64q-9 7 -33 11.5t-29 7.5t-6 9t1 8q8 2 13.5 1t35 -3.5t62.5 -2.5
t62.5 2.5t35 3.5t13.5 -1q5 -8 -5 -17q-7 -5 -27 -11t-30 -11q-20 -9 -35 -28t-38 -67l-106 -226v-19h129q2 -2 1 -11.5t-8 -14.5q-13 -9 -46 -9h-76v-43h129q7 -15 -7 -26q-13 -9 -46 -9h-76v-96q0 -36 20 -48q10 -6 23 -9.5t19 -7.5q5 -3 6 -9t-1 -8q-10 -2 -23 -1
t-53 3.5t-73 2.5q-32 0 -72.5 -2.5t-54 -3.5t-23.5 1q-2 2 -0.5 8t5.5 9q6 4 21 7.5t25 9.5q20 12 20 48v96h-128q-7 15 7 26q11 9 46 9h75v43h-128q-7 15 7 26q13 9 65 9h56v2z" />
    <glyph glyph-name="section" unicode="&#xa7;" horiz-adv-x="486" 
d="M85 25q0 26 17 44t42 18q26 0 45.5 -17.5t19.5 -41.5q0 -22 -13 -40t-33 -23q21 -18 64 -18q37 0 63 18.5t26 42.5q0 30 -31.5 58t-103.5 68q-83 45 -116.5 86t-33.5 84q0 89 98 142q-47 48 -47 106q0 63 48.5 110t123.5 47q65 0 106 -29t41 -74q0 -26 -16.5 -44
t-42.5 -18t-45.5 17.5t-19.5 42.5q0 22 13.5 39.5t33.5 22.5q-22 18 -65 18q-37 0 -63 -18.5t-26 -42.5q0 -30 32 -58.5t104 -67.5q82 -45 115.5 -85.5t33.5 -84.5q0 -89 -98 -142q48 -49 48 -106q0 -62 -49 -109.5t-124 -47.5q-64 0 -105.5 29.5t-41.5 73.5zM254 263
q46 -27 81 -56q23 27 23 50q0 20 -26 43t-99 68q-55 33 -81 57q-24 -27 -24 -51q0 -20 26.5 -43t99.5 -68z" />
    <glyph glyph-name="dieresis" unicode="&#xa8;" horiz-adv-x="356" 
d="M23 630q0 26 17.5 43.5t43.5 17.5t43.5 -17.5t17.5 -43.5t-17.5 -43.5t-43.5 -17.5t-43.5 17.5t-17.5 43.5zM188 630q0 25 18 43t44 18t43.5 -17.5t17.5 -43.5t-17.5 -43.5t-43.5 -17.5t-44 18t-18 43z" />
    <glyph glyph-name="copyright" unicode="&#xa9;" horiz-adv-x="717" 
d="M45 304q0 129 91.5 221.5t220.5 92.5q131 0 222.5 -92t91.5 -222t-91.5 -222t-222.5 -92q-129 0 -220.5 92.5t-91.5 221.5zM88 304q0 -112 78.5 -191.5t190.5 -79.5q113 0 192.5 79.5t79.5 191.5t-79.5 192t-192.5 80q-111 0 -190 -80t-79 -192zM474 466q8 -37 15 -91
q-13 -7 -21 10q-17 39 -49.5 62.5t-71.5 15.5q-61 -14 -61 -121q0 -28 5.5 -58.5t17 -61.5t33 -51t50.5 -20q53 0 90 55l19 -11q-16 -30 -49.5 -51.5t-83.5 -21.5q-78 0 -130 51.5t-52 128.5q0 82 52 133t140 51q60 0 96 -20z" />
    <glyph glyph-name="ordfeminine" unicode="&#xaa;" horiz-adv-x="371" 
d="M272 318q-56 0 -70 56q-42 -56 -100 -56q-35 0 -58 20.5t-23 51.5q0 40 32 61.5t89 36.5q36 9 56 13v45q0 64 -56 64q-39 0 -55 -19q15 -3 25.5 -15t10.5 -28q0 -18 -12.5 -30.5t-30.5 -12.5t-31 12.5t-13 30.5q0 32 35.5 57t81.5 25q143 0 143 -125v-103q0 -35 18 -35
q11 0 25 14l12 -11q-13 -21 -34.5 -36.5t-44.5 -15.5zM198 395v88q-82 -22 -82 -73q0 -18 9.5 -30t28.5 -13q24 0 44 28z" />
    <glyph glyph-name="guillemotleft" unicode="&#xab;" horiz-adv-x="437" 
d="M157 251l86 -141q25 -43 29 -56q4 -9 2 -22.5t-11 -16.5l-238 236l238 237q18 -7 9 -40q-2 -8 -29 -56zM323 251l55 -109q17 -33 22 -56q5 -30 -7 -36l-172 201l172 201q13 -6 7 -35q-5 -23 -22 -56z" />
    <glyph glyph-name="registered" unicode="&#xae;" horiz-adv-x="717" 
d="M45 304q0 129 91.5 221.5t220.5 92.5q131 0 222.5 -92t91.5 -222t-91.5 -222t-222.5 -92q-129 0 -220.5 92.5t-91.5 221.5zM88 304q0 -112 78.5 -191.5t190.5 -79.5q113 0 192.5 79.5t79.5 191.5t-79.5 192t-192.5 80q-111 0 -190 -80t-79 -192zM317 293v-122
q0 -17 10 -23q2 -1 9.5 -3t12 -5.5t4.5 -8.5t-8 -5h-18l-36 3h-18h-18l-36 -3h-18q-8 0 -8 5t4.5 8t12.5 5t11 4q9 7 9 23v265q0 18 -9 23q-4 3 -12 5t-11 4q-7 5 -3 12q2 2 6 2q2 0 23.5 -2t43.5 -2h28l54 3h28q52 0 83 -28.5t31 -65.5q0 -34 -22.5 -58.5t-55.5 -33.5
q16 -6 29.5 -18.5t19 -22t16.5 -31.5q32 -63 48 -75q5 -3 10.5 -5t8.5 -4q4 -3 4 -8t-8 -5t-24.5 1t-26.5 1q-9 0 -23 -0.5t-20 -1t-12 0.5q-7 1 -12 12q-11 19 -28 56q-14 32 -22.5 48.5t-23 33t-29.5 16.5h-4zM317 314h37q35 0 44 37t-4 64q-17 44 -52 44q-25 0 -25 -33
v-112z" />
    <glyph glyph-name="degree" unicode="&#xb0;" horiz-adv-x="260" 
d="M26 605q0 44 30.5 74.5t73.5 30.5q44 0 74.5 -31t30.5 -74t-31 -74t-74 -31t-73.5 31t-30.5 74zM65 605q0 -27 19 -46t46 -19t46 19t19 46t-19 46t-46 19t-46 -19t-19 -46z" />
    <glyph glyph-name="twosuperior" unicode="&#xb2;" horiz-adv-x="398" 
d="M60 621q0 36 38 62.5t98 26.5q73 0 113.5 -30.5t40.5 -82.5q0 -43 -32 -79t-100 -85l-96 -70h75q101 0 135 39l6 8t4 7t2.5 5t2.5 2q8 2 10 -9q1 -4 -4 -19q-19 -49 -29 -96h-277l-7 16q8 8 38.5 39t53 56t49 60t41.5 71t15 69q0 39 -18 58.5t-44 19.5q-31 0 -53 -19
q17 -4 28 -17.5t11 -31.5q0 -21 -14.5 -35.5t-36.5 -14.5q-21 0 -35.5 14.5t-14.5 35.5z" />
    <glyph glyph-name="threesuperior" unicode="&#xb3;" horiz-adv-x="391" 
d="M219 615q0 37 -17 55t-42 18t-43 -15q16 -5 26 -18t10 -30q0 -21 -14.5 -35.5t-35.5 -14.5t-35 15t-14 36q0 32 33.5 58t93.5 26q68 0 106.5 -26.5t38.5 -67.5q0 -36 -25.5 -62t-60.5 -34q51 -5 81 -31.5t30 -68.5q0 -54 -50.5 -90t-136.5 -36q-49 0 -86.5 23t-37.5 58
q0 24 14.5 39t36.5 15q21 0 36 -14.5t15 -35.5q0 -18 -11.5 -31.5t-28.5 -17.5q22 -16 53 -16q37 0 59.5 26.5t22.5 79.5q0 38 -20 62.5t-57 25.5h-10v22h9q27 0 43.5 24t16.5 61z" />
    <glyph glyph-name="acute" unicode="&#xb4;" horiz-adv-x="239" 
d="M175 738l48 -64l-75 -60q-51 -39 -85 -45q-30 -6 -38 8l129 155z" />
    <glyph glyph-name="periodcentered" unicode="&#xb7;" horiz-adv-x="224" 
d="M25 335q0 35 25.5 60.5t61.5 25.5t61 -25.5t25 -60.5q0 -36 -25 -61.5t-61 -25.5t-61.5 25.5t-25.5 61.5z" />
    <glyph glyph-name="cedilla" unicode="&#xb8;" horiz-adv-x="236" 
d="M25 -175l10 20q20 -10 55 -10q27 0 39.5 14t12.5 31q0 13 -10.5 23.5t-26.5 10.5q-23 0 -42 -17l-24 7l41 123h48l-29 -66q7 3 29 3q36 0 59 -17.5t23 -52.5q0 -40 -33.5 -64.5t-76.5 -24.5q-52 0 -75 20z" />
    <glyph glyph-name="onesuperior" unicode="&#xb9;" horiz-adv-x="295" 
d="M81 634q-8 4 -21 7t-16 5q-5 4 -3 11q39 0 85.5 16t67.5 37h14v-359q0 -22 14 -30q6 -4 15 -6t13 -4q8 -6 3 -11q-6 -1 -15 -0.5t-35.5 2t-48.5 1.5t-49 -1.5l-36 -2t-16 0.5q-3 6 3 11q4 2 14 4t17 6q13 7 13 30v240q0 32 -19 43z" />
    <glyph glyph-name="ordmasculine" unicode="&#xba;" horiz-adv-x="407" 
d="M41 474q0 68 46.5 112t115.5 44q70 0 116.5 -43.5t46.5 -112.5q0 -68 -46.5 -112t-116.5 -44t-116 43.5t-46 112.5zM146 468q13 -64 35.5 -98.5t50.5 -30.5q25 4 33 43.5t-3 98.5q-11 62 -34.5 97t-51.5 31q-25 -4 -33.5 -43.5t3.5 -97.5z" />
    <glyph glyph-name="guillemotright" unicode="&#xbb;" horiz-adv-x="437" 
d="M279 251l-85 141q-26 42 -29 56q-9 33 9 40l237 -237l-237 -236q-18 7 -9 40q4 16 29 55zM114 251l-56 110q-16 30 -21 56q-7 29 7 35l171 -201l-171 -201q-14 6 -7 36q6 26 21 56z" />
    <glyph glyph-name="questiondown" unicode="&#xbf;" horiz-adv-x="480" 
d="M362 430q0 -33 -23 -56t-56 -23t-56.5 23t-23.5 56t23.5 56.5t56.5 23.5t56 -23.5t23 -56.5zM460 -64q0 -52 -56 -99t-141 -47q-94 0 -158.5 41.5t-64.5 110.5q0 15 3.5 30t8 26.5t14.5 25.5t16 22t20 21.5t19.5 18.5t21 18t18.5 16q103 93 103 158h35q0 -44 -15 -94.5
t-32.5 -88t-32.5 -83t-15 -81.5q0 -50 24 -77.5t64 -27.5q44 0 75 29q-31 3 -52 26.5t-21 55.5q0 35 24 59t59 24q36 0 59.5 -24.5t23.5 -59.5z" />
    <glyph glyph-name="Agrave" unicode="&#xc0;" horiz-adv-x="734" 
d="M255 829l34 79l23 -1l175 -130q-2 -7 -13.5 -12t-23.5 -5q-32 -1 -97 26zM453 697l208 -612q13 -35 39 -50q10 -5 23 -9t19 -8q5 -4 6.5 -10t-1.5 -8q-10 -2 -24 -1t-57 3.5t-77 2.5q-33 0 -75.5 -2.5t-56.5 -3.5t-24 1q-3 2 -1.5 8t6.5 10q5 3 20.5 6t23.5 11
q14 14 1 50l-45 136h-263l-48 -126q-16 -41 0 -53q6 -5 33 -12.5t32 -11.5q5 -3 6 -9.5t-1 -8.5q-8 -2 -17 -1t-40 3t-58 2t-58 -2t-40 -3t-17 1q-2 2 -1 8.5t6 9.5q5 4 30.5 9.5t42.5 15.5q28 16 42 52l182 471q11 30 15.5 43.5t3 30t-13.5 26.5q-6 5 -15.5 9t-14.5 8
q-10 7 -4 17q3 4 15 4q7 0 39.5 -3t55.5 -3q21 0 50 2t35 2q17 0 18 -5zM187 255h240l-112 338z" />
    <glyph glyph-name="Aacute" unicode="&#xc1;" horiz-adv-x="734" 
d="M490 829l-99 -43q-64 -27 -96 -26q-12 0 -24 5t-13 12l175 130l23 1zM453 697l208 -612q13 -35 39 -50q10 -5 23 -9t19 -8q5 -4 6.5 -10t-1.5 -8q-10 -2 -24 -1t-57 3.5t-77 2.5q-33 0 -75.5 -2.5t-56.5 -3.5t-24 1q-3 2 -1.5 8t6.5 10q5 3 20.5 6t23.5 11q14 14 1 50
l-45 136h-263l-48 -126q-16 -41 0 -53q6 -5 33 -12.5t32 -11.5q5 -3 6 -9.5t-1 -8.5q-8 -2 -17 -1t-40 3t-58 2t-58 -2t-40 -3t-17 1q-2 2 -1 8.5t6 9.5q5 4 30.5 9.5t42.5 15.5q28 16 42 52l182 471q11 30 15.5 43.5t3 30t-13.5 26.5q-6 5 -15.5 9t-14.5 8q-10 7 -4 17
q3 4 15 4q7 0 39.5 -3t55.5 -3q21 0 50 2t35 2q17 0 18 -5zM187 255h240l-112 338z" />
    <glyph glyph-name="Acircumflex" unicode="&#xc2;" horiz-adv-x="734" 
d="M367 830l-48 -27q-46 -26 -80 -33q-31 -7 -38 8l152 136h27l153 -136q-8 -14 -38 -8q-33 6 -80 33zM453 697l208 -612q13 -35 39 -50q10 -5 23 -9t19 -8q5 -4 6.5 -10t-1.5 -8q-10 -2 -24 -1t-57 3.5t-77 2.5q-33 0 -75.5 -2.5t-56.5 -3.5t-24 1q-3 2 -1.5 8t6.5 10
q5 3 20.5 6t23.5 11q14 14 1 50l-45 136h-263l-48 -126q-16 -41 0 -53q6 -5 33 -12.5t32 -11.5q5 -3 6 -9.5t-1 -8.5q-8 -2 -17 -1t-40 3t-58 2t-58 -2t-40 -3t-17 1q-2 2 -1 8.5t6 9.5q5 4 30.5 9.5t42.5 15.5q28 16 42 52l182 471q11 30 15.5 43.5t3 30t-13.5 26.5
q-6 5 -15.5 9t-14.5 8q-10 7 -4 17q3 4 15 4q7 0 39.5 -3t55.5 -3q21 0 50 2t35 2q17 0 18 -5zM187 255h240l-112 338z" />
    <glyph glyph-name="Atilde" unicode="&#xc3;" horiz-adv-x="734" 
d="M442 833q44 0 74 30l17 -9q-7 -17 -19 -35.5t-37 -37.5t-52 -19q-25 0 -73.5 20.5t-66.5 20.5q-43 0 -73 -34l-16 9q12 30 42.5 61.5t71.5 31.5q27 0 68.5 -19t63.5 -19zM453 697l208 -612q13 -35 39 -50q10 -5 23 -9t19 -8q5 -4 6.5 -10t-1.5 -8q-10 -2 -24 -1t-57 3.5
t-77 2.5q-33 0 -75.5 -2.5t-56.5 -3.5t-24 1q-3 2 -1.5 8t6.5 10q5 3 20.5 6t23.5 11q14 14 1 50l-45 136h-263l-48 -126q-16 -41 0 -53q6 -5 33 -12.5t32 -11.5q5 -3 6 -9.5t-1 -8.5q-8 -2 -17 -1t-40 3t-58 2t-58 -2t-40 -3t-17 1q-2 2 -1 8.5t6 9.5q5 4 30.5 9.5
t42.5 15.5q28 16 42 52l182 471q11 30 15.5 43.5t3 30t-13.5 26.5q-6 5 -15.5 9t-14.5 8q-10 7 -4 17q3 4 15 4q7 0 39.5 -3t55.5 -3q21 0 50 2t35 2q17 0 18 -5zM187 255h240l-112 338z" />
    <glyph glyph-name="Adieresis" unicode="&#xc4;" horiz-adv-x="734" 
d="M209 829q0 26 18.5 45t44.5 19t45 -19t19 -45t-19 -44.5t-45 -18.5t-44.5 18.5t-18.5 44.5zM399 829q0 26 19 45t45 19t44.5 -19t18.5 -45t-18.5 -44.5t-44.5 -18.5t-45 18.5t-19 44.5zM453 697l208 -612q13 -35 39 -50q10 -5 23 -9t19 -8q5 -4 6.5 -10t-1.5 -8
q-10 -2 -24 -1t-57 3.5t-77 2.5q-33 0 -75.5 -2.5t-56.5 -3.5t-24 1q-3 2 -1.5 8t6.5 10q5 3 20.5 6t23.5 11q14 14 1 50l-45 136h-263l-48 -126q-16 -41 0 -53q6 -5 33 -12.5t32 -11.5q5 -3 6 -9.5t-1 -8.5q-8 -2 -17 -1t-40 3t-58 2t-58 -2t-40 -3t-17 1q-2 2 -1 8.5
t6 9.5q5 4 30.5 9.5t42.5 15.5q28 16 42 52l182 471q11 30 15.5 43.5t3 30t-13.5 26.5q-6 5 -15.5 9t-14.5 8q-10 7 -4 17q3 4 15 4q7 0 39.5 -3t55.5 -3q21 0 50 2t35 2q17 0 18 -5zM187 255h240l-112 338z" />
    <glyph glyph-name="Aring" unicode="&#xc5;" horiz-adv-x="734" 
d="M282 844q0 36 25 61t60 25t60 -25t25 -61q0 -35 -25 -60t-60 -25t-60 25t-25 60zM323 844q0 -18 13 -31t31 -13t31 13t13 31q0 19 -13 31.5t-31 12.5t-31 -12.5t-13 -31.5zM453 697l208 -612q13 -35 39 -50q10 -5 23 -9t19 -8q5 -4 6.5 -10t-1.5 -8q-10 -2 -24 -1
t-57 3.5t-77 2.5q-33 0 -75.5 -2.5t-56.5 -3.5t-24 1q-3 2 -1.5 8t6.5 10q5 3 20.5 6t23.5 11q14 14 1 50l-45 136h-263l-48 -126q-16 -41 0 -53q6 -5 33 -12.5t32 -11.5q5 -3 6 -9.5t-1 -8.5q-8 -2 -17 -1t-40 3t-58 2t-58 -2t-40 -3t-17 1q-2 2 -1 8.5t6 9.5q5 4 30.5 9.5
t42.5 15.5q28 16 42 52l182 471q11 30 15.5 43.5t3 30t-13.5 26.5q-6 5 -15.5 9t-14.5 8q-10 7 -4 17q3 4 15 4q7 0 39.5 -3t55.5 -3q21 0 50 2t35 2q17 0 18 -5zM187 255h240l-112 338z" />
    <glyph glyph-name="AE" unicode="&#xc6;" horiz-adv-x="968" 
d="M812 352q0 -21 2.5 -44.5t3.5 -30.5t-1 -13q-2 -2 -8.5 -0.5t-9.5 5.5q-4 6 -7.5 20.5t-9.5 24.5q-13 21 -50 21h-126v-230q0 -38 19 -54t60 -16h79q42 0 67 18.5t52 67.5q21 42 27 45q5 4 15 4t13 -3q-9 -33 -25 -88t-22 -79h-88q-43 0 -147.5 2.5t-144.5 2.5
q-34 0 -72 -2.5t-49.5 -3.5t-20.5 1q-3 2 -1.5 8t6.5 10q6 4 20.5 7.5t24.5 9.5q21 15 21 50v136h-230l-77 -129q-25 -42 -14 -53q6 -6 34 -12t33 -9t6 -9.5t-1 -8.5q-8 -2 -17 -1t-39.5 3t-57.5 2t-58 -2t-40 -3t-17 1q-2 2 -1 8.5t6 9.5q6 4 30.5 9.5t40.5 14.5
q32 17 58 60l285 472q26 43 8 75q-14 22 -60 33q-5 2 -6.5 9t1.5 9q9 2 18 1t44.5 -3.5t69.5 -2.5q40 0 172 2.5t175 2.5h64q9 -67 26 -157q-3 -3 -11.5 -2t-12.5 5q-3 3 -23 47q-15 37 -39 54.5t-70 17.5h-52q-41 1 -60 -15.5t-19 -54.5v-226h126q35 0 50 21q6 11 9.5 25.5
t7.5 19.5q3 5 9.5 6t8.5 -1q2 -6 1 -13t-3.5 -30.5t-2.5 -44.5zM230 255h210v352z" />
    <glyph glyph-name="Ccedilla" unicode="&#xc7;" horiz-adv-x="662" 
d="M590 672q13 -55 28 -166q-4 -3 -14.5 -1t-13.5 8q-31 70 -84.5 114.5t-115.5 44.5q-92 0 -137 -75t-44 -174q0 -47 6 -88q18 -140 79 -220t135 -80q58 0 106 31t79 80l27 -16q-78 -129 -229 -139l-15 -35q10 4 29 4q35 0 58 -17.5t23 -52.5q0 -41 -33 -65t-77 -24
q-53 0 -75 20l11 20q17 -11 54 -11q27 0 40 14t13 32q0 13 -10.5 23.5t-27.5 10.5q-22 0 -41 -17l-25 7l31 91q-141 7 -234 108t-93 246q0 163 99.5 264t261.5 101q113 0 189 -38z" />
    <glyph glyph-name="Egrave" unicode="&#xc8;" horiz-adv-x="632" 
d="M204 829l34 79l23 -1l175 -130q-2 -7 -13.5 -12t-23.5 -5q-32 -1 -97 26zM475 352q0 -21 2.5 -44.5t3.5 -30t-1 -13.5q-2 -2 -8 -0.5t-9 5.5q-4 6 -8 20.5t-10 24.5q-13 21 -50 21h-126v-230q0 -38 19 -54t61 -16h78q42 0 67 18.5t52 67.5q3 6 7.5 14.5t7 14t6 10
t6.5 6.5q5 4 15 4t13 -3q-8 -32 -24 -87t-22 -80h-88q-43 0 -147.5 2.5t-144.5 2.5q-34 0 -72.5 -2.5t-50 -3.5t-20.5 1q-2 2 -0.5 8.5t5.5 9.5q6 4 20.5 7.5t24.5 9.5q21 13 21 50v530q0 37 -21 50q-10 7 -24.5 10.5t-20.5 6.5q-5 3 -6 9.5t1 8.5q9 2 20.5 1t50 -3.5
t72.5 -2.5q40 0 144 2.5t148 2.5h63q15 -98 26 -157q-3 -3 -11 -2t-13 5q-4 3 -7 10t-7.5 18.5t-7.5 18.5q-16 38 -40 55t-70 17h-51q-41 1 -60.5 -15.5t-19.5 -54.5v-226h126q37 0 50 21q6 10 10 24.5t8 20.5q3 5 9 6t8 -1q2 -7 1 -13.5t-3.5 -30t-2.5 -44.5z" />
    <glyph glyph-name="Eacute" unicode="&#xc9;" horiz-adv-x="632" 
d="M439 829l-99 -43q-64 -27 -96 -26q-12 0 -24 5t-13 12l175 130l23 1zM475 352q0 -21 2.5 -44.5t3.5 -30t-1 -13.5q-2 -2 -8 -0.5t-9 5.5q-4 6 -8 20.5t-10 24.5q-13 21 -50 21h-126v-230q0 -38 19 -54t61 -16h78q42 0 67 18.5t52 67.5q3 6 7.5 14.5t7 14t6 10t6.5 6.5
q5 4 15 4t13 -3q-8 -32 -24 -87t-22 -80h-88q-43 0 -147.5 2.5t-144.5 2.5q-34 0 -72.5 -2.5t-50 -3.5t-20.5 1q-2 2 -0.5 8.5t5.5 9.5q6 4 20.5 7.5t24.5 9.5q21 13 21 50v530q0 37 -21 50q-10 7 -24.5 10.5t-20.5 6.5q-5 3 -6 9.5t1 8.5q9 2 20.5 1t50 -3.5t72.5 -2.5
q40 0 144 2.5t148 2.5h63q15 -98 26 -157q-3 -3 -11 -2t-13 5q-4 3 -7 10t-7.5 18.5t-7.5 18.5q-16 38 -40 55t-70 17h-51q-41 1 -60.5 -15.5t-19.5 -54.5v-226h126q37 0 50 21q6 10 10 24.5t8 20.5q3 5 9 6t8 -1q2 -7 1 -13.5t-3.5 -30t-2.5 -44.5z" />
    <glyph glyph-name="Ecircumflex" unicode="&#xca;" horiz-adv-x="632" 
d="M316 830l-48 -27q-46 -26 -80 -33q-31 -7 -38 8l152 136h27l153 -136q-8 -14 -38 -8q-33 6 -80 33zM475 352q0 -21 2.5 -44.5t3.5 -30t-1 -13.5q-2 -2 -8 -0.5t-9 5.5q-4 6 -8 20.5t-10 24.5q-13 21 -50 21h-126v-230q0 -38 19 -54t61 -16h78q42 0 67 18.5t52 67.5
q3 6 7.5 14.5t7 14t6 10t6.5 6.5q5 4 15 4t13 -3q-8 -32 -24 -87t-22 -80h-88q-43 0 -147.5 2.5t-144.5 2.5q-34 0 -72.5 -2.5t-50 -3.5t-20.5 1q-2 2 -0.5 8.5t5.5 9.5q6 4 20.5 7.5t24.5 9.5q21 13 21 50v530q0 37 -21 50q-10 7 -24.5 10.5t-20.5 6.5q-5 3 -6 9.5t1 8.5
q9 2 20.5 1t50 -3.5t72.5 -2.5q40 0 144 2.5t148 2.5h63q15 -98 26 -157q-3 -3 -11 -2t-13 5q-4 3 -7 10t-7.5 18.5t-7.5 18.5q-16 38 -40 55t-70 17h-51q-41 1 -60.5 -15.5t-19.5 -54.5v-226h126q37 0 50 21q6 10 10 24.5t8 20.5q3 5 9 6t8 -1q2 -7 1 -13.5t-3.5 -30
t-2.5 -44.5z" />
    <glyph glyph-name="Edieresis" unicode="&#xcb;" horiz-adv-x="632" 
d="M158 829q0 26 18.5 45t44.5 19t45 -19t19 -45t-19 -44.5t-45 -18.5t-44.5 18.5t-18.5 44.5zM348 829q0 26 19 45t45 19t44.5 -19t18.5 -45t-18.5 -44.5t-44.5 -18.5t-45 18.5t-19 44.5zM475 352q0 -21 2.5 -44.5t3.5 -30t-1 -13.5q-2 -2 -8 -0.5t-9 5.5q-4 6 -8 20.5
t-10 24.5q-13 21 -50 21h-126v-230q0 -38 19 -54t61 -16h78q42 0 67 18.5t52 67.5q3 6 7.5 14.5t7 14t6 10t6.5 6.5q5 4 15 4t13 -3q-8 -32 -24 -87t-22 -80h-88q-43 0 -147.5 2.5t-144.5 2.5q-34 0 -72.5 -2.5t-50 -3.5t-20.5 1q-2 2 -0.5 8.5t5.5 9.5q6 4 20.5 7.5
t24.5 9.5q21 13 21 50v530q0 37 -21 50q-10 7 -24.5 10.5t-20.5 6.5q-5 3 -6 9.5t1 8.5q9 2 20.5 1t50 -3.5t72.5 -2.5q40 0 144 2.5t148 2.5h63q15 -98 26 -157q-3 -3 -11 -2t-13 5q-4 3 -7 10t-7.5 18.5t-7.5 18.5q-16 38 -40 55t-70 17h-51q-41 1 -60.5 -15.5
t-19.5 -54.5v-226h126q37 0 50 21q6 10 10 24.5t8 20.5q3 5 9 6t8 -1q2 -7 1 -13.5t-3.5 -30t-2.5 -44.5z" />
    <glyph glyph-name="Igrave" unicode="&#xcc;" horiz-adv-x="372" 
d="M74 829l34 79l23 -1l175 -130q-2 -7 -13.5 -12t-23.5 -5q-32 -1 -97 26zM105 615q0 35 -21 50q-11 6 -26.5 9.5t-20.5 7.5q-5 3 -6 9.5t1 8.5q10 2 24 1t56 -3.5t75 -2.5t75 2.5t55.5 3.5t23.5 -1q2 -2 0.5 -8.5t-5.5 -9.5q-6 -3 -20 -6.5t-24 -10.5q-21 -13 -21 -50
v-530q0 -37 21 -50q10 -7 24 -10.5t20 -6.5q4 -3 5.5 -9.5t-0.5 -8.5q-10 -2 -23.5 -1t-55.5 3.5t-75 2.5t-75 -2.5t-56 -3.5t-24 1q-2 2 -1 8.5t6 9.5q6 4 21.5 7.5t25.5 9.5q21 15 21 50v530z" />
    <glyph glyph-name="Iacute" unicode="&#xcd;" horiz-adv-x="372" 
d="M309 829l-99 -43q-64 -27 -96 -26q-12 0 -24 5t-13 12l175 130l23 1zM105 615q0 35 -21 50q-11 6 -26.5 9.5t-20.5 7.5q-5 3 -6 9.5t1 8.5q10 2 24 1t56 -3.5t75 -2.5t75 2.5t55.5 3.5t23.5 -1q2 -2 0.5 -8.5t-5.5 -9.5q-6 -3 -20 -6.5t-24 -10.5q-21 -13 -21 -50v-530
q0 -37 21 -50q10 -7 24 -10.5t20 -6.5q4 -3 5.5 -9.5t-0.5 -8.5q-10 -2 -23.5 -1t-55.5 3.5t-75 2.5t-75 -2.5t-56 -3.5t-24 1q-2 2 -1 8.5t6 9.5q6 4 21.5 7.5t25.5 9.5q21 15 21 50v530z" />
    <glyph glyph-name="Icircumflex" unicode="&#xce;" horiz-adv-x="372" 
d="M186 830l-48 -27q-46 -26 -80 -33q-31 -7 -38 8l152 136h27l153 -136q-8 -14 -38 -8q-33 6 -80 33zM105 615q0 35 -21 50q-11 6 -26.5 9.5t-20.5 7.5q-5 3 -6 9.5t1 8.5q10 2 24 1t56 -3.5t75 -2.5t75 2.5t55.5 3.5t23.5 -1q2 -2 0.5 -8.5t-5.5 -9.5q-6 -3 -20 -6.5
t-24 -10.5q-21 -13 -21 -50v-530q0 -37 21 -50q10 -7 24 -10.5t20 -6.5q4 -3 5.5 -9.5t-0.5 -8.5q-10 -2 -23.5 -1t-55.5 3.5t-75 2.5t-75 -2.5t-56 -3.5t-24 1q-2 2 -1 8.5t6 9.5q6 4 21.5 7.5t25.5 9.5q21 15 21 50v530z" />
    <glyph glyph-name="Idieresis" unicode="&#xcf;" horiz-adv-x="372" 
d="M28 829q0 26 18.5 45t44.5 19t45 -19t19 -45t-19 -44.5t-45 -18.5t-44.5 18.5t-18.5 44.5zM218 829q0 26 19 45t45 19t44.5 -19t18.5 -45t-18.5 -44.5t-44.5 -18.5t-45 18.5t-19 44.5zM105 615q0 35 -21 50q-11 6 -26.5 9.5t-20.5 7.5q-5 3 -6 9.5t1 8.5q10 2 24 1
t56 -3.5t75 -2.5t75 2.5t55.5 3.5t23.5 -1q2 -2 0.5 -8.5t-5.5 -9.5q-6 -3 -20 -6.5t-24 -10.5q-21 -13 -21 -50v-530q0 -37 21 -50q10 -7 24 -10.5t20 -6.5q4 -3 5.5 -9.5t-0.5 -8.5q-10 -2 -23.5 -1t-55.5 3.5t-75 2.5t-75 -2.5t-56 -3.5t-24 1q-2 2 -1 8.5t6 9.5
q6 4 21.5 7.5t25.5 9.5q21 15 21 50v530z" />
    <glyph glyph-name="Ntilde" unicode="&#xd1;" horiz-adv-x="820" 
d="M485 833q44 0 74 30l17 -9q-7 -17 -19 -35.5t-37 -37.5t-52 -19q-25 0 -73.5 20.5t-66.5 20.5q-43 0 -73 -34l-16 9q12 30 42.5 61.5t71.5 31.5q27 0 68.5 -19t63.5 -19zM664 607q0 41 -21 54q-10 7 -40.5 12.5t-36.5 8.5q-5 3 -6 9.5t1 8.5q8 2 16 1t40 -3t63 -2t63 2
t39.5 3t15.5 -1q2 -2 1 -8.5t-6 -9.5q-6 -3 -35 -8.5t-39 -12.5q-21 -13 -21 -54v-607h-77l-449 542v-449q0 -40 22 -54q10 -6 39 -11.5t34 -9.5t6.5 -10t-1.5 -8q-8 -2 -15.5 -1t-39 3t-63.5 2q-31 0 -63 -2t-39.5 -3t-15.5 1q-3 2 -1.5 8t6.5 10q6 4 36 9.5t40 11.5
q21 13 21 54v493q-36 55 -64 75q-12 8 -30 15l-17 6q-5 3 -6.5 9.5t1.5 8.5q8 2 16 1t39.5 -3t62.5 -2q32 0 62 2t35.5 3t13.5 -1l413 -491v398z" />
    <glyph glyph-name="Ograve" unicode="&#xd2;" horiz-adv-x="792" 
d="M284 829l34 79l23 -1l175 -130q-2 -7 -13.5 -12t-23.5 -5q-32 -1 -97 26zM40 350q0 158 101 259t255 101q156 0 256 -100.5t100 -259.5q0 -158 -101 -259t-255 -101q-156 0 -256 100.5t-100 259.5zM218 322q21 -138 94 -226t160 -70q69 14 95.5 109.5t6.5 234.5
q-19 130 -79 219t-137 89q-14 0 -27 -3q-82 -18 -108 -113.5t-5 -239.5z" />
    <glyph glyph-name="Oacute" unicode="&#xd3;" horiz-adv-x="792" 
d="M519 829l-99 -43q-64 -27 -96 -26q-12 0 -24 5t-13 12l175 130l23 1zM40 350q0 158 101 259t255 101q156 0 256 -100.5t100 -259.5q0 -158 -101 -259t-255 -101q-156 0 -256 100.5t-100 259.5zM218 322q21 -138 94 -226t160 -70q69 14 95.5 109.5t6.5 234.5
q-19 130 -79 219t-137 89q-14 0 -27 -3q-82 -18 -108 -113.5t-5 -239.5z" />
    <glyph glyph-name="Ocircumflex" unicode="&#xd4;" horiz-adv-x="792" 
d="M396 830l-48 -27q-46 -26 -80 -33q-31 -7 -38 8l152 136h27l153 -136q-8 -14 -38 -8q-33 6 -80 33zM40 350q0 158 101 259t255 101q156 0 256 -100.5t100 -259.5q0 -158 -101 -259t-255 -101q-156 0 -256 100.5t-100 259.5zM218 322q21 -138 94 -226t160 -70
q69 14 95.5 109.5t6.5 234.5q-19 130 -79 219t-137 89q-14 0 -27 -3q-82 -18 -108 -113.5t-5 -239.5z" />
    <glyph glyph-name="Otilde" unicode="&#xd5;" horiz-adv-x="792" 
d="M471 833q44 0 74 30l17 -9q-7 -17 -19 -35.5t-37 -37.5t-52 -19q-25 0 -73.5 20.5t-66.5 20.5q-43 0 -73 -34l-16 9q12 30 42.5 61.5t71.5 31.5q27 0 68.5 -19t63.5 -19zM40 350q0 158 101 259t255 101q156 0 256 -100.5t100 -259.5q0 -158 -101 -259t-255 -101
q-156 0 -256 100.5t-100 259.5zM218 322q21 -138 94 -226t160 -70q69 14 95.5 109.5t6.5 234.5q-19 130 -79 219t-137 89q-14 0 -27 -3q-82 -18 -108 -113.5t-5 -239.5z" />
    <glyph glyph-name="Odieresis" unicode="&#xd6;" horiz-adv-x="792" 
d="M238 829q0 26 18.5 45t44.5 19t45 -19t19 -45t-19 -44.5t-45 -18.5t-44.5 18.5t-18.5 44.5zM428 829q0 26 19 45t45 19t44.5 -19t18.5 -45t-18.5 -44.5t-44.5 -18.5t-45 18.5t-19 44.5zM40 350q0 158 101 259t255 101q156 0 256 -100.5t100 -259.5q0 -158 -101 -259
t-255 -101q-156 0 -256 100.5t-100 259.5zM218 322q21 -138 94 -226t160 -70q69 14 95.5 109.5t6.5 234.5q-19 130 -79 219t-137 89q-14 0 -27 -3q-82 -18 -108 -113.5t-5 -239.5z" />
    <glyph glyph-name="multiply" unicode="&#xd7;" horiz-adv-x="517" 
d="M115 140l-53 53l143 144l-145 145l54 53l145 -145l144 144l53 -54l-144 -143l142 -142l-54 -53l-141 141z" />
    <glyph glyph-name="Oslash" unicode="&#xd8;" horiz-adv-x="792" 
d="M91 -72l85 132q-65 48 -100.5 122.5t-35.5 167.5q0 158 101 259t255 101q98 0 175 -41l71 110h48l-85 -131q69 -47 108 -124.5t39 -173.5q0 -158 -101 -259t-255 -101q-103 0 -186 47l-71 -109h-48zM218 322q13 -79 40 -136l249 385q-63 107 -148 107q-15 0 -28 -3
q-82 -18 -108 -113.5t-5 -239.5zM529 530l-250 -386q38 -64 88.5 -96.5t104.5 -21.5q69 14 95.5 109.5t6.5 234.5q-12 85 -45 160z" />
    <glyph glyph-name="Ugrave" unicode="&#xd9;" horiz-adv-x="754" 
d="M270 829l34 79l23 -1l175 -130q-2 -7 -13.5 -12t-23.5 -5q-32 -1 -97 26zM623 291v324q0 37 -21 50q-10 7 -40.5 10.5t-36.5 6.5q-4 3 -5.5 9.5t0.5 8.5q8 2 16 1t40 -3t63 -2t63 2t39.5 3t15.5 -1q2 -2 1 -8.5t-6 -9.5q-5 -4 -34.5 -7.5t-39.5 -9.5q-21 -13 -21 -50
v-330q0 -155 -77 -225t-204 -70q-126 0 -203.5 71.5t-77.5 223.5v330q0 35 -21 50q-11 6 -26.5 9.5t-20.5 7.5q-5 3 -6 9.5t1 8.5q10 2 24 1t56 -3.5t75 -2.5t75 2.5t55.5 3.5t23.5 -1q2 -2 0.5 -8.5t-5.5 -9.5q-6 -3 -20 -6.5t-24 -10.5q-21 -13 -21 -50v-381
q0 -99 45.5 -149.5t116.5 -50.5q24 0 47.5 5t52.5 21.5t50 43t35.5 75t14.5 112.5z" />
    <glyph glyph-name="Uacute" unicode="&#xda;" horiz-adv-x="754" 
d="M505 829l-99 -43q-64 -27 -96 -26q-12 0 -24 5t-13 12l175 130l23 1zM623 291v324q0 37 -21 50q-10 7 -40.5 10.5t-36.5 6.5q-4 3 -5.5 9.5t0.5 8.5q8 2 16 1t40 -3t63 -2t63 2t39.5 3t15.5 -1q2 -2 1 -8.5t-6 -9.5q-5 -4 -34.5 -7.5t-39.5 -9.5q-21 -13 -21 -50v-330
q0 -155 -77 -225t-204 -70q-126 0 -203.5 71.5t-77.5 223.5v330q0 35 -21 50q-11 6 -26.5 9.5t-20.5 7.5q-5 3 -6 9.5t1 8.5q10 2 24 1t56 -3.5t75 -2.5t75 2.5t55.5 3.5t23.5 -1q2 -2 0.5 -8.5t-5.5 -9.5q-6 -3 -20 -6.5t-24 -10.5q-21 -13 -21 -50v-381q0 -99 45.5 -149.5
t116.5 -50.5q24 0 47.5 5t52.5 21.5t50 43t35.5 75t14.5 112.5z" />
    <glyph glyph-name="Ucircumflex" unicode="&#xdb;" horiz-adv-x="754" 
d="M382 830l-48 -27q-46 -26 -80 -33q-31 -7 -38 8l152 136h27l153 -136q-8 -14 -38 -8q-33 6 -80 33zM623 291v324q0 37 -21 50q-10 7 -40.5 10.5t-36.5 6.5q-4 3 -5.5 9.5t0.5 8.5q8 2 16 1t40 -3t63 -2t63 2t39.5 3t15.5 -1q2 -2 1 -8.5t-6 -9.5q-5 -4 -34.5 -7.5
t-39.5 -9.5q-21 -13 -21 -50v-330q0 -155 -77 -225t-204 -70q-126 0 -203.5 71.5t-77.5 223.5v330q0 35 -21 50q-11 6 -26.5 9.5t-20.5 7.5q-5 3 -6 9.5t1 8.5q10 2 24 1t56 -3.5t75 -2.5t75 2.5t55.5 3.5t23.5 -1q2 -2 0.5 -8.5t-5.5 -9.5q-6 -3 -20 -6.5t-24 -10.5
q-21 -13 -21 -50v-381q0 -99 45.5 -149.5t116.5 -50.5q24 0 47.5 5t52.5 21.5t50 43t35.5 75t14.5 112.5z" />
    <glyph glyph-name="Udieresis" unicode="&#xdc;" horiz-adv-x="754" 
d="M224 829q0 26 18.5 45t44.5 19t45 -19t19 -45t-19 -44.5t-45 -18.5t-44.5 18.5t-18.5 44.5zM414 829q0 26 19 45t45 19t44.5 -19t18.5 -45t-18.5 -44.5t-44.5 -18.5t-45 18.5t-19 44.5zM623 291v324q0 37 -21 50q-10 7 -40.5 10.5t-36.5 6.5q-4 3 -5.5 9.5t0.5 8.5
q8 2 16 1t40 -3t63 -2t63 2t39.5 3t15.5 -1q2 -2 1 -8.5t-6 -9.5q-5 -4 -34.5 -7.5t-39.5 -9.5q-21 -13 -21 -50v-330q0 -155 -77 -225t-204 -70q-126 0 -203.5 71.5t-77.5 223.5v330q0 35 -21 50q-11 6 -26.5 9.5t-20.5 7.5q-5 3 -6 9.5t1 8.5q10 2 24 1t56 -3.5t75 -2.5
t75 2.5t55.5 3.5t23.5 -1q2 -2 0.5 -8.5t-5.5 -9.5q-6 -3 -20 -6.5t-24 -10.5q-21 -13 -21 -50v-381q0 -99 45.5 -149.5t116.5 -50.5q24 0 47.5 5t52.5 21.5t50 43t35.5 75t14.5 112.5z" />
    <glyph glyph-name="Yacute" unicode="&#xdd;" horiz-adv-x="710" 
d="M478 829l-99 -43q-64 -27 -96 -26q-12 0 -24 5t-13 12l175 130l23 1zM96 615q-13 23 -22 33.5t-23 17.5q-13 7 -24 10t-15 6q-5 4 -6.5 10t1.5 8q10 2 24 1t56 -3.5t75 -2.5t75.5 2.5t57 3.5t24.5 -1q3 -2 1.5 -8t-6.5 -9q-5 -4 -19.5 -8t-18.5 -10q-10 -16 10 -50
l146 -250l113 231q24 50 1 67q-9 7 -35 11.5t-31 7.5t-6 9.5t1 8.5q8 2 14 1t37.5 -3.5t65.5 -2.5t65 2.5t37 3.5t14 -1q3 -2 1.5 -8t-6.5 -10q-7 -5 -28.5 -11t-32.5 -11q-20 -10 -34.5 -29t-40.5 -70l-120 -244v-232q0 -37 21 -50q10 -7 24 -10.5t20 -6.5q4 -3 5.5 -9.5
t-0.5 -8.5q-10 -2 -23.5 -1t-55.5 3.5t-75 2.5t-75 -2.5t-56 -3.5t-24 1q-2 2 -1 8.5t6 9.5q6 4 21.5 7.5t25.5 9.5q21 15 21 50v217z" />
    <glyph glyph-name="germandbls" unicode="&#xdf;" horiz-adv-x="658" 
d="M414 105q0 -26 -19 -44t-46 -20q17 -25 46 -25q38 0 62.5 55t13.5 146q-16 136 -76 177q-21 13 -56 13v27q35 2 44 28q10 26 6.5 76.5t-19.5 98.5q-21 63 -45 87.5t-47 18.5q-27 -7 -33 -50.5t-6 -156.5v-36v-415q0 -35 23 -50q10 -7 22.5 -10.5t18.5 -6.5q4 -3 5.5 -9.5
t-0.5 -8.5q-10 -2 -21.5 -1t-50.5 3.5t-73 2.5t-74.5 -2.5t-53.5 -3.5t-23 1q-3 2 -1.5 8t6.5 10q6 4 20.5 7.5t24.5 9.5q21 15 21 50v387q0 144 58 221t169 77q88 0 150.5 -49t62.5 -130q0 -55 -35.5 -102.5t-64.5 -55.5q30 0 64.5 -12t68 -35t55.5 -64t22 -92
q0 -93 -59.5 -166.5t-159.5 -73.5q-64 0 -98 34t-34 78q0 28 19.5 48.5t46.5 20.5t46.5 -19t19.5 -47z" />
    <glyph glyph-name="agrave" unicode="&#xe0;" horiz-adv-x="561" 
d="M182 674l48 64l21 -6l129 -155q-8 -14 -38 -8q-36 7 -85 45zM444 -10q-42 0 -71.5 24t-40.5 68q-72 -92 -162 -92q-58 0 -96 34t-38 89q0 66 51.5 101t142.5 59q82 19 95 22v80q0 53 -28.5 80.5t-69.5 27.5q-45 0 -81 -29q25 -5 41 -24.5t16 -45.5q0 -30 -21 -51t-51 -21
t-51 21t-21 51q0 48 54 87t137 39q99 0 165 -54t66 -154v-172q0 -70 29 -70q15 0 39 24l17 -12q-50 -82 -122 -82zM327 112q-2 16 -2 26v131q-61 -19 -80 -28q-62 -30 -62 -98q0 -31 17 -53.5t45 -22.5q21 0 44 13t38 32z" />
    <glyph glyph-name="aacute" unicode="&#xe1;" horiz-adv-x="561" 
d="M385 674l-76 -60q-49 -38 -84 -45q-31 -7 -38 8l128 155l21 6zM444 -10q-42 0 -71.5 24t-40.5 68q-72 -92 -162 -92q-58 0 -96 34t-38 89q0 66 51.5 101t142.5 59q82 19 95 22v80q0 53 -28.5 80.5t-69.5 27.5q-45 0 -81 -29q25 -5 41 -24.5t16 -45.5q0 -30 -21 -51
t-51 -21t-51 21t-21 51q0 48 54 87t137 39q99 0 165 -54t66 -154v-172q0 -70 29 -70q15 0 39 24l17 -12q-50 -82 -122 -82zM327 112q-2 16 -2 26v131q-61 -19 -80 -28q-62 -30 -62 -98q0 -31 17 -53.5t45 -22.5q21 0 44 13t38 32z" />
    <glyph glyph-name="acircumflex" unicode="&#xe2;" horiz-adv-x="561" 
d="M270 645l-37 -27q-46 -35 -79 -41q-30 -6 -38 8l140 141h27q23 -24 66.5 -66.5t73.5 -75.5q-3 -6 -15.5 -8t-22.5 1q-33 6 -79 41zM444 -10q-42 0 -71.5 24t-40.5 68q-72 -92 -162 -92q-58 0 -96 34t-38 89q0 66 51.5 101t142.5 59q82 19 95 22v80q0 53 -28.5 80.5
t-69.5 27.5q-45 0 -81 -29q25 -5 41 -24.5t16 -45.5q0 -30 -21 -51t-51 -21t-51 21t-21 51q0 48 54 87t137 39q99 0 165 -54t66 -154v-172q0 -70 29 -70q15 0 39 24l17 -12q-50 -82 -122 -82zM327 112q-2 16 -2 26v131q-61 -19 -80 -28q-62 -30 -62 -98q0 -31 17 -53.5
t45 -22.5q21 0 44 13t38 32z" />
    <glyph glyph-name="atilde" unicode="&#xe3;" horiz-adv-x="561" 
d="M362 640q42 0 71 32l16 -10q-11 -31 -38.5 -64t-65.5 -33q-24 0 -70.5 21.5t-63.5 21.5q-42 0 -70 -35l-15 9q11 30 40.5 64t68.5 34q26 0 65.5 -20t61.5 -20zM444 -10q-42 0 -71.5 24t-40.5 68q-72 -92 -162 -92q-58 0 -96 34t-38 89q0 66 51.5 101t142.5 59
q82 19 95 22v80q0 53 -28.5 80.5t-69.5 27.5q-45 0 -81 -29q25 -5 41 -24.5t16 -45.5q0 -30 -21 -51t-51 -21t-51 21t-21 51q0 48 54 87t137 39q99 0 165 -54t66 -154v-172q0 -70 29 -70q15 0 39 24l17 -12q-50 -82 -122 -82zM327 112q-2 16 -2 26v131q-61 -19 -80 -28
q-62 -30 -62 -98q0 -31 17 -53.5t45 -22.5q21 0 44 13t38 32z" />
    <glyph glyph-name="adieresis" unicode="&#xe4;" horiz-adv-x="561" 
d="M126 630q0 26 18 43.5t43 17.5t43 -17.5t18 -43.5t-18 -43.5t-43 -17.5t-43 17.5t-18 43.5zM291 630q0 26 17.5 43.5t43.5 17.5t43.5 -17.5t17.5 -43.5t-17.5 -43.5t-43.5 -17.5t-43.5 17.5t-17.5 43.5zM444 -10q-42 0 -71.5 24t-40.5 68q-72 -92 -162 -92q-58 0 -96 34
t-38 89q0 66 51.5 101t142.5 59q82 19 95 22v80q0 53 -28.5 80.5t-69.5 27.5q-45 0 -81 -29q25 -5 41 -24.5t16 -45.5q0 -30 -21 -51t-51 -21t-51 21t-21 51q0 48 54 87t137 39q99 0 165 -54t66 -154v-172q0 -70 29 -70q15 0 39 24l17 -12q-50 -82 -122 -82zM327 112
q-2 16 -2 26v131q-61 -19 -80 -28q-62 -30 -62 -98q0 -31 17 -53.5t45 -22.5q21 0 44 13t38 32z" />
    <glyph glyph-name="aring" unicode="&#xe5;" horiz-adv-x="561" 
d="M198 652q0 34 24.5 58t58.5 24t58 -24t24 -58t-24 -58.5t-58 -24.5q-35 0 -59 24.5t-24 58.5zM238 652q0 -18 12.5 -30.5t30.5 -12.5q17 0 29.5 12.5t12.5 30.5q0 17 -12.5 29.5t-29.5 12.5q-18 0 -30.5 -12.5t-12.5 -29.5zM444 -10q-42 0 -71.5 24t-40.5 68
q-72 -92 -162 -92q-58 0 -96 34t-38 89q0 66 51.5 101t142.5 59q82 19 95 22v80q0 53 -28.5 80.5t-69.5 27.5q-45 0 -81 -29q25 -5 41 -24.5t16 -45.5q0 -30 -21 -51t-51 -21t-51 21t-21 51q0 48 54 87t137 39q99 0 165 -54t66 -154v-172q0 -70 29 -70q15 0 39 24l17 -12
q-50 -82 -122 -82zM327 112q-2 16 -2 26v131q-61 -19 -80 -28q-62 -30 -62 -98q0 -31 17 -53.5t45 -22.5q21 0 44 13t38 32z" />
    <glyph glyph-name="ae" unicode="&#xe6;" horiz-adv-x="797" 
d="M563 -10q-156 0 -228 92q-78 -92 -165 -92q-57 0 -95.5 34.5t-38.5 85.5q0 36 15.5 63.5t45.5 46t60 30.5t73 23q82 19 95 22v78q0 54 -28 82t-70 28t-81 -29q25 -5 41 -24.5t16 -45.5q0 -30 -21 -51.5t-51 -21.5t-51 21.5t-21 51.5q0 53 56.5 89.5t134.5 36.5
q114 0 170 -46q63 46 143 46q105 0 163 -67.5t49 -154.5q-1 -16 -22 -16l-298 -1q6 -89 52 -146t132 -57q71 0 112 53l19 -12q-18 -37 -75.5 -78t-131.5 -41zM454 296h186q-3 76 -31.5 135.5t-72.5 51.5q-37 -7 -60 -60.5t-22 -126.5zM325 102v167q-61 -19 -80 -28
q-62 -30 -62 -98q0 -31 17.5 -53.5t48.5 -22.5q43 0 76 35z" />
    <glyph glyph-name="ccedilla" unicode="&#xe7;" horiz-adv-x="479" 
d="M21 249q-1 106 75 183.5t190 77.5q69 0 121 -36.5t52 -85.5q0 -30 -19.5 -51t-49.5 -21q-28 0 -48.5 20t-20.5 49q0 26 17 45.5t43 22.5q-5 9 -30 20.5t-59 11.5q-73 0 -105.5 -72.5t-13.5 -168.5q15 -74 63.5 -125t117.5 -51q26 0 54.5 13t46.5 34l19 -12
q-7 -13 -22 -29.5t-39.5 -36.5t-62.5 -33.5t-80 -13.5h-15l-12 -25q7 3 29 3q36 0 59 -17t23 -52q0 -40 -33.5 -64.5t-76.5 -24.5q-54 0 -76 20l11 20q16 -11 54 -11q27 0 40 14t13 32q0 13 -10.5 23.5t-27.5 10.5q-22 0 -41 -17l-24 6l29 88q-85 20 -138 89t-53 164z" />
    <glyph glyph-name="egrave" unicode="&#xe8;" horiz-adv-x="509" 
d="M156 674l48 64l21 -6l129 -155q-8 -14 -38 -8q-36 7 -85 45zM21 249q0 108 72 184.5t178 76.5q105 0 163 -67.5t49 -154.5q-1 -15 -22 -17h-291q7 -52 26.5 -95.5t59 -75.5t91.5 -32q69 0 112 53l18 -12q-16 -37 -74 -78t-132 -41q-108 0 -179 74t-71 185zM167 296h180
q-2 76 -30.5 136t-73.5 52q-40 -7 -61 -60t-15 -128z" />
    <glyph glyph-name="eacute" unicode="&#xe9;" horiz-adv-x="509" 
d="M359 674l-76 -60q-49 -38 -84 -45q-31 -7 -38 8l128 155l21 6zM21 249q0 108 72 184.5t178 76.5q105 0 163 -67.5t49 -154.5q-1 -15 -22 -17h-291q7 -52 26.5 -95.5t59 -75.5t91.5 -32q69 0 112 53l18 -12q-16 -37 -74 -78t-132 -41q-108 0 -179 74t-71 185zM167 296h180
q-2 76 -30.5 136t-73.5 52q-40 -7 -61 -60t-15 -128z" />
    <glyph glyph-name="ecircumflex" unicode="&#xea;" horiz-adv-x="509" 
d="M281 645l-37 -27q-46 -35 -79 -41q-30 -6 -38 8l140 141h27q26 -27 68.5 -69t71.5 -73q-3 -6 -15.5 -8t-22.5 1q-33 6 -79 41zM21 249q0 108 72 184.5t178 76.5q105 0 163 -67.5t49 -154.5q-1 -15 -22 -17h-291q7 -52 26.5 -95.5t59 -75.5t91.5 -32q69 0 112 53l18 -12
q-16 -37 -74 -78t-132 -41q-108 0 -179 74t-71 185zM167 296h180q-2 76 -30.5 136t-73.5 52q-40 -7 -61 -60t-15 -128z" />
    <glyph glyph-name="edieresis" unicode="&#xeb;" horiz-adv-x="509" 
d="M119 630q0 26 17.5 43.5t43.5 17.5t43.5 -17.5t17.5 -43.5t-17.5 -43.5t-43.5 -17.5t-43.5 17.5t-17.5 43.5zM284 630q0 26 18 43.5t43 17.5t43 -17.5t18 -43.5t-18 -43.5t-43 -17.5t-43 17.5t-18 43.5zM21 249q0 108 72 184.5t178 76.5q105 0 163 -67.5t49 -154.5
q-1 -15 -22 -17h-291q7 -52 26.5 -95.5t59 -75.5t91.5 -32q69 0 112 53l18 -12q-16 -37 -74 -78t-132 -41q-108 0 -179 74t-71 185zM167 296h180q-2 76 -30.5 136t-73.5 52q-40 -7 -61 -60t-15 -128z" />
    <glyph glyph-name="igrave" unicode="&#xec;" 
d="M63 674l49 64l20 -6l129 -155q-7 -15 -38 -8q-35 7 -84 45zM93 346q0 34 -20 49q-8 5 -20.5 9.5t-17.5 8.5q-10 6 -5 18q61 0 115.5 20.5t81.5 58.5h22v-425q0 -37 21 -50q10 -6 23.5 -9.5t18.5 -7.5q5 -3 6 -9.5t-1 -8.5q-10 -2 -21.5 -1t-50.5 3.5t-73 2.5t-74 -2.5
t-53 -3.5t-23 1q-2 2 -0.5 8.5t5.5 9.5q6 4 20.5 7.5t24.5 9.5q21 13 21 50v261z" />
    <glyph glyph-name="iacute" unicode="&#xed;" 
d="M266 674l-76 -60q-49 -38 -84 -45q-31 -7 -38 8l129 155l20 6zM93 346q0 34 -20 49q-8 5 -20.5 9.5t-17.5 8.5q-10 6 -5 18q61 0 115.5 20.5t81.5 58.5h22v-425q0 -37 21 -50q10 -6 23.5 -9.5t18.5 -7.5q5 -3 6 -9.5t-1 -8.5q-10 -2 -21.5 -1t-50.5 3.5t-73 2.5t-74 -2.5
t-53 -3.5t-23 1q-2 2 -0.5 8.5t5.5 9.5q6 4 20.5 7.5t24.5 9.5q21 13 21 50v261z" />
    <glyph glyph-name="icircumflex" unicode="&#xee;" 
d="M154 645l-36 -27q-45 -34 -79 -41q-31 -7 -38 8l139 141h28q25 -27 67.5 -69t71.5 -73q-3 -6 -15.5 -8t-22.5 1q-34 7 -79 41zM93 346q0 34 -20 49q-8 5 -20.5 9.5t-17.5 8.5q-10 6 -5 18q61 0 115.5 20.5t81.5 58.5h22v-425q0 -37 21 -50q10 -6 23.5 -9.5t18.5 -7.5
q5 -3 6 -9.5t-1 -8.5q-10 -2 -21.5 -1t-50.5 3.5t-73 2.5t-74 -2.5t-53 -3.5t-23 1q-2 2 -0.5 8.5t5.5 9.5q6 4 20.5 7.5t24.5 9.5q21 13 21 50v261z" />
    <glyph glyph-name="idieresis" unicode="&#xef;" 
d="M7 630q0 26 17.5 43.5t43.5 17.5t43.5 -17.5t17.5 -43.5t-17.5 -43.5t-43.5 -17.5t-43.5 17.5t-17.5 43.5zM172 630q0 25 18 43t44 18t43.5 -17.5t17.5 -43.5t-17.5 -43.5t-43.5 -17.5t-44 18t-18 43zM93 346q0 34 -20 49q-8 5 -20.5 9.5t-17.5 8.5q-10 6 -5 18
q61 0 115.5 20.5t81.5 58.5h22v-425q0 -37 21 -50q10 -6 23.5 -9.5t18.5 -7.5q5 -3 6 -9.5t-1 -8.5q-10 -2 -21.5 -1t-50.5 3.5t-73 2.5t-74 -2.5t-53 -3.5t-23 1q-2 2 -0.5 8.5t5.5 9.5q6 4 20.5 7.5t24.5 9.5q21 13 21 50v261z" />
    <glyph glyph-name="ntilde" unicode="&#xf1;" horiz-adv-x="669" 
d="M416 640q42 0 71 32l16 -10q-11 -31 -38.5 -64t-65.5 -33q-24 0 -70.5 21.5t-63.5 21.5q-42 0 -70 -35l-15 9q11 30 40.5 64t68.5 34q26 0 65.5 -20t61.5 -20zM580 85q0 -36 22 -50q10 -6 25 -9.5t20 -7.5q5 -3 6 -9.5t-1 -8.5q-10 -2 -22.5 -1t-52 3.5t-73.5 2.5
t-73.5 -2.5t-52 -3.5t-22.5 1q-2 2 -0.5 8.5t5.5 9.5q6 4 19 7.5t23 9.5q21 14 21 50v253q0 108 -74 108q-41 0 -101 -44v-317q0 -37 21 -50q10 -6 23.5 -9.5t18.5 -7.5q5 -3 6 -9.5t-1 -8.5q-10 -2 -21.5 -1t-50.5 3.5t-73 2.5t-74 -2.5t-53 -3.5t-23 1q-2 2 -0.5 8.5
t5.5 9.5q6 4 20.5 7.5t24.5 9.5q21 13 21 50v260q0 36 -20 49q-8 6 -20.5 10.5t-17.5 8.5q-10 6 -5 18q61 0 115.5 20.5t81.5 58.5h22v-80q102 80 174 80q78 0 117.5 -50t39.5 -142v-233z" />
    <glyph glyph-name="ograve" unicode="&#xf2;" horiz-adv-x="564" 
d="M188 674l49 64l20 -6l129 -155q-7 -15 -38 -8q-35 7 -84 45zM21 250q0 114 73.5 187t187.5 73q116 0 189 -72t73 -188q0 -115 -73.5 -187.5t-188.5 -72.5q-116 0 -188.5 72t-72.5 188zM185 240q22 -108 60 -168.5t85 -52.5q42 7 56.5 76t-4.5 167q-18 105 -58.5 166
t-86.5 54q-42 -7 -57 -75.5t5 -166.5z" />
    <glyph glyph-name="oacute" unicode="&#xf3;" horiz-adv-x="564" 
d="M391 674l-76 -60q-49 -38 -84 -45q-31 -7 -38 8l129 155l20 6zM21 250q0 114 73.5 187t187.5 73q116 0 189 -72t73 -188q0 -115 -73.5 -187.5t-188.5 -72.5q-116 0 -188.5 72t-72.5 188zM185 240q22 -108 60 -168.5t85 -52.5q42 7 56.5 76t-4.5 167q-18 105 -58.5 166
t-86.5 54q-42 -7 -57 -75.5t5 -166.5z" />
    <glyph glyph-name="ocircumflex" unicode="&#xf4;" horiz-adv-x="564" 
d="M277 645l-36 -27q-45 -34 -79 -41q-31 -7 -38 8l139 141h28q25 -27 67.5 -69t71.5 -73q-3 -6 -15.5 -8t-22.5 1q-34 7 -79 41zM21 250q0 114 73.5 187t187.5 73q116 0 189 -72t73 -188q0 -115 -73.5 -187.5t-188.5 -72.5q-116 0 -188.5 72t-72.5 188zM185 240
q22 -108 60 -168.5t85 -52.5q42 7 56.5 76t-4.5 167q-18 105 -58.5 166t-86.5 54q-42 -7 -57 -75.5t5 -166.5z" />
    <glyph glyph-name="otilde" unicode="&#xf5;" horiz-adv-x="564" 
d="M368 640q43 0 72 32l16 -10q-5 -13 -13 -26.5t-21 -31t-31.5 -28.5t-38.5 -11q-24 0 -71 21.5t-64 21.5q-40 0 -70 -35l-15 9q11 30 40.5 64t69.5 34q26 0 65.5 -20t60.5 -20zM21 250q0 114 73.5 187t187.5 73q116 0 189 -72t73 -188q0 -115 -73.5 -187.5t-188.5 -72.5
q-116 0 -188.5 72t-72.5 188zM185 240q22 -108 60 -168.5t85 -52.5q42 7 56.5 76t-4.5 167q-18 105 -58.5 166t-86.5 54q-42 -7 -57 -75.5t5 -166.5z" />
    <glyph glyph-name="odieresis" unicode="&#xf6;" horiz-adv-x="564" 
d="M132 630q0 26 18 43.5t43 17.5t43 -17.5t18 -43.5t-18 -43.5t-43 -17.5t-43 17.5t-18 43.5zM297 630q0 25 18 43t44 18q25 0 43 -17.5t18 -43.5t-18 -43.5t-43 -17.5q-26 0 -44 18t-18 43zM21 250q0 114 73.5 187t187.5 73q116 0 189 -72t73 -188q0 -115 -73.5 -187.5
t-188.5 -72.5q-116 0 -188.5 72t-72.5 188zM185 240q22 -108 60 -168.5t85 -52.5q42 7 56.5 76t-4.5 167q-18 105 -58.5 166t-86.5 54q-42 -7 -57 -75.5t5 -166.5z" />
    <glyph glyph-name="oslash" unicode="&#xf8;" horiz-adv-x="564" 
d="M73 -72l64 100q-55 33 -85.5 91t-30.5 131q0 114 73.5 187t187.5 73q82 0 144 -37l60 93h42l-73 -113q89 -73 89 -203q0 -115 -73.5 -187.5t-188.5 -72.5q-60 0 -113 22l-54 -84h-42zM185 240q11 -55 27 -98l143 222q-23 60 -54 91.5t-64 26.5q-42 -7 -57 -75.5t5 -166.5
zM369 321l-141 -218q45 -94 102 -84q42 7 56.5 76t-4.5 167q-3 21 -13 59z" />
    <glyph glyph-name="ugrave" unicode="&#xf9;" horiz-adv-x="636" 
d="M219 674l49 64l20 -6l129 -155q-7 -15 -38 -8q-35 7 -84 45zM75 352q-1 36 -21 48q-7 6 -19.5 10.5t-17.5 8.5q-10 6 -5 18q129 0 197 73h22v-348q0 -108 78 -108q43 0 97 43q-2 24 -2 41v213q0 36 -20 49q-8 6 -20.5 10.5t-17.5 8.5q-10 6 -5 18q130 0 197 73h22v-367
q0 -35 16 -48q6 -4 17 -8.5t16 -7.5q9 -8 5 -18q-35 -4 -78.5 -25t-74.5 -46h-22q-22 38 -29 80q-104 -80 -170 -80q-85 0 -124.5 52.5t-40.5 141.5v168z" />
    <glyph glyph-name="uacute" unicode="&#xfa;" horiz-adv-x="636" 
d="M422 674l-76 -60q-49 -38 -84 -45q-31 -7 -38 8l129 155l20 6zM75 352q-1 36 -21 48q-7 6 -19.5 10.5t-17.5 8.5q-10 6 -5 18q129 0 197 73h22v-348q0 -108 78 -108q43 0 97 43q-2 24 -2 41v213q0 36 -20 49q-8 6 -20.5 10.5t-17.5 8.5q-10 6 -5 18q130 0 197 73h22v-367
q0 -35 16 -48q6 -4 17 -8.5t16 -7.5q9 -8 5 -18q-35 -4 -78.5 -25t-74.5 -46h-22q-22 38 -29 80q-104 -80 -170 -80q-85 0 -124.5 52.5t-40.5 141.5v168z" />
    <glyph glyph-name="ucircumflex" unicode="&#xfb;" horiz-adv-x="636" 
d="M307 645l-36 -27q-45 -34 -79 -41q-31 -7 -38 8l139 141h28q25 -27 67.5 -69t71.5 -73q-3 -6 -15.5 -8t-22.5 1q-34 7 -79 41zM75 352q-1 36 -21 48q-7 6 -19.5 10.5t-17.5 8.5q-10 6 -5 18q129 0 197 73h22v-348q0 -108 78 -108q43 0 97 43q-2 24 -2 41v213q0 36 -20 49
q-8 6 -20.5 10.5t-17.5 8.5q-10 6 -5 18q130 0 197 73h22v-367q0 -35 16 -48q6 -4 17 -8.5t16 -7.5q9 -8 5 -18q-35 -4 -78.5 -25t-74.5 -46h-22q-22 38 -29 80q-104 -80 -170 -80q-85 0 -124.5 52.5t-40.5 141.5v168z" />
    <glyph glyph-name="udieresis" unicode="&#xfc;" horiz-adv-x="636" 
d="M163 630q0 26 17.5 43.5t43.5 17.5t43.5 -17.5t17.5 -43.5t-17.5 -43.5t-43.5 -17.5t-43.5 17.5t-17.5 43.5zM328 630q0 25 18 43t44 18t43.5 -17.5t17.5 -43.5t-17.5 -43.5t-43.5 -17.5t-44 18t-18 43zM75 352q-1 36 -21 48q-7 6 -19.5 10.5t-17.5 8.5q-10 6 -5 18
q129 0 197 73h22v-348q0 -108 78 -108q43 0 97 43q-2 24 -2 41v213q0 36 -20 49q-8 6 -20.5 10.5t-17.5 8.5q-10 6 -5 18q130 0 197 73h22v-367q0 -35 16 -48q6 -4 17 -8.5t16 -7.5q9 -8 5 -18q-35 -4 -78.5 -25t-74.5 -46h-22q-22 38 -29 80q-104 -80 -170 -80
q-85 0 -124.5 52.5t-40.5 141.5v168z" />
    <glyph glyph-name="yacute" unicode="&#xfd;" horiz-adv-x="527" 
d="M388 674l-76 -60q-49 -38 -84 -45q-31 -7 -38 8l128 155l21 6zM215 415l119 -255l109 247q17 37 0 54q-7 8 -35.5 13t-33.5 9q-5 3 -6 9t1 8q8 2 16 1t38.5 -3.5t60.5 -2.5t57 2.5t32.5 3.5t12.5 -1q1 -2 1 -4.5t-2 -7.5t-7 -8q-6 -4 -25 -8t-33 -9q-28 -13 -51 -63
l-220 -497q-32 -72 -49 -100q-34 -54 -78 -54q-32 0 -54 22.5t-22 53.5t22.5 53t53.5 22q49 0 70 -48q17 24 36 68l31 69l-213 426q-21 40 -40 51q-11 6 -25 9.5t-19 6.5t-6 9.5t1 8.5q10 2 23.5 1t54.5 -3.5t75 -2.5t72.5 2.5t50.5 3.5t21 -1q5 -8 -5 -18q-3 -3 -14.5 -8.5
t-17.5 -10.5q-17 -16 -2 -48z" />
    <glyph glyph-name="ydieresis" unicode="&#xff;" horiz-adv-x="527" 
d="M139 630q0 26 17.5 43.5t43.5 17.5t43.5 -17.5t17.5 -43.5t-17.5 -43.5t-43.5 -17.5t-43.5 17.5t-17.5 43.5zM304 630q0 26 18 43.5t43 17.5t43 -17.5t18 -43.5t-18 -43.5t-43 -17.5t-43 17.5t-18 43.5zM215 415l119 -255l109 247q17 37 0 54q-7 8 -35.5 13t-33.5 9
q-5 3 -6 9t1 8q8 2 16 1t38.5 -3.5t60.5 -2.5t57 2.5t32.5 3.5t12.5 -1q1 -2 1 -4.5t-2 -7.5t-7 -8q-6 -4 -25 -8t-33 -9q-28 -13 -51 -63l-220 -497q-32 -72 -49 -100q-34 -54 -78 -54q-32 0 -54 22.5t-22 53.5t22.5 53t53.5 22q49 0 70 -48q17 24 36 68l31 69l-213 426
q-21 40 -40 51q-11 6 -25 9.5t-19 6.5t-6 9.5t1 8.5q10 2 23.5 1t54.5 -3.5t75 -2.5t72.5 2.5t50.5 3.5t21 -1q5 -8 -5 -18q-3 -3 -14.5 -8.5t-17.5 -10.5q-17 -16 -2 -48z" />
    <glyph glyph-name="dotlessi" unicode="&#x131;" 
d="M93 346q0 34 -20 49q-8 5 -20.5 9.5t-17.5 8.5q-10 6 -5 18q61 0 115.5 20.5t81.5 58.5h22v-425q0 -37 21 -50q10 -6 23.5 -9.5t18.5 -7.5q5 -3 6 -9.5t-1 -8.5q-10 -2 -21.5 -1t-50.5 3.5t-73 2.5t-74 -2.5t-53 -3.5t-23 1q-2 2 -0.5 8.5t5.5 9.5q6 4 20.5 7.5t24.5 9.5
q21 13 21 50v261z" />
    <glyph glyph-name="OE" unicode="&#x152;" horiz-adv-x="1074" 
d="M40 350q0 158 101 259t255 101q40 0 110.5 -7.5t109.5 -7.5q40 0 144 2.5t148 2.5h64q15 -98 26 -157q-3 -3 -11.5 -2t-13.5 5q-4 3 -7 9.5t-7.5 19t-7.5 19.5q-16 37 -40 54t-70 17h-51q-41 1 -60.5 -15.5t-19.5 -54.5v-226h127q34 0 49 21q6 10 10 24.5t8 20.5
q3 5 9.5 6t8.5 -1q2 -7 1 -13.5t-3.5 -30t-2.5 -44.5t2.5 -44.5t3.5 -30t-1 -13.5q-2 -2 -8.5 -0.5t-9.5 5.5q-4 6 -8 20.5t-10 24.5q-14 21 -49 21h-127v-230q0 -38 19 -54t61 -16h78q42 0 67 18.5t52 67.5q3 6 7.5 14.5t7 14t6 10t6.5 6.5q5 4 16 4q10 0 13 -3
q-8 -31 -25 -86.5t-22 -80.5h-88q-44 0 -148 2.5t-144 2.5q-46 0 -115 -7.5t-105 -7.5q-156 0 -256 100.5t-100 259.5zM218 322q20 -136 93 -222.5t158 -73.5q72 11 98.5 107t6.5 237q-20 142 -89 232.5t-154 71.5q-82 -18 -108 -113.5t-5 -238.5z" />
    <glyph glyph-name="oe" unicode="&#x153;" horiz-adv-x="875" 
d="M21 250q0 114 73.5 187t187.5 73q115 0 187 -70q73 70 172 70q105 0 163 -67.5t49 -154.5q-1 -15 -22 -17h-291q13 -83 57 -143t120 -60q69 0 112 53l19 -12q-18 -37 -75.5 -78t-131.5 -41q-104 0 -175 69q-72 -69 -184 -69q-116 0 -188.5 72t-72.5 188zM537 296h181
q-3 76 -31.5 135.5t-72.5 51.5q-41 -7 -62.5 -59.5t-14.5 -127.5zM185 240q22 -108 60 -168.5t85 -52.5q42 7 56.5 76t-4.5 167q-18 105 -58 166t-86 54q-42 -7 -57.5 -75.5t4.5 -166.5z" />
    <glyph glyph-name="Scaron" unicode="&#x160;" horiz-adv-x="584" 
d="M292 856l48 27q42 24 80 33q31 4 38 -8l-153 -137h-27l-152 137q6 13 38 8q39 -10 80 -33zM522 565q0 -35 -24 -59.5t-60 -24.5q-35 0 -60 24.5t-25 59.5q0 29 18 51.5t45 29.5q-37 28 -107 28q-53 0 -88.5 -26t-35.5 -66q0 -21 9.5 -39.5t31.5 -35.5t37.5 -27t49 -27.5
t45.5 -24.5q47 -27 76.5 -46.5t60 -48t45 -61.5t14.5 -73q0 -92 -79 -150.5t-195 -58.5q-100 0 -175 51.5t-75 123.5q0 37 25.5 62t61.5 25t61.5 -25t25.5 -62q0 -34 -23 -59t-57 -27q53 -53 154 -53q68 0 105.5 28t37.5 73q0 43 -37.5 79t-108.5 73q-121 62 -173 114.5
t-52 131.5q0 76 68 130.5t188 54.5q92 0 154 -40t62 -105z" />
    <glyph glyph-name="scaron" unicode="&#x161;" horiz-adv-x="473" 
d="M251 650l36 27q45 34 79 41q31 7 38 -8q-25 -27 -67.5 -69t-71.5 -73h-28l-139 142q7 15 38 8q34 -7 79 -41zM418 401q0 -27 -17 -45.5t-43 -18.5q-27 0 -47 17.5t-20 43.5q0 22 13.5 40t34.5 24q-28 23 -87 23q-35 0 -60.5 -17t-26.5 -43q0 -20 21 -41t42.5 -33.5
t59.5 -31.5q74 -39 114 -78t40 -93q1 -67 -58.5 -112.5t-146.5 -45.5q-83 0 -139.5 36t-56.5 87q0 28 19 49t46 21q28 0 47.5 -19.5t19.5 -47.5q0 -25 -16.5 -44t-41.5 -22q39 -35 118 -35q50 0 77 19t27 43q0 26 -29 49t-87 53q-86 44 -124.5 85.5t-37.5 93.5
q1 62 51.5 107t141.5 45q68 0 117 -31t49 -78z" />
    <glyph glyph-name="Ydieresis" unicode="&#x178;" horiz-adv-x="710" 
d="M197 829q0 26 18.5 45t44.5 19t45 -19t19 -45t-19 -44.5t-45 -18.5t-44.5 18.5t-18.5 44.5zM387 829q0 26 19 45t45 19t44.5 -19t18.5 -45t-18.5 -44.5t-44.5 -18.5t-45 18.5t-19 44.5zM96 615q-13 23 -22 33.5t-23 17.5q-13 7 -24 10t-15 6q-5 4 -6.5 10t1.5 8
q10 2 24 1t56 -3.5t75 -2.5t75.5 2.5t57 3.5t24.5 -1q3 -2 1.5 -8t-6.5 -9q-5 -4 -19.5 -8t-18.5 -10q-10 -16 10 -50l146 -250l113 231q24 50 1 67q-9 7 -35 11.5t-31 7.5t-6 9.5t1 8.5q8 2 14 1t37.5 -3.5t65.5 -2.5t65 2.5t37 3.5t14 -1q3 -2 1.5 -8t-6.5 -10
q-7 -5 -28.5 -11t-32.5 -11q-20 -10 -34.5 -29t-40.5 -70l-120 -244v-232q0 -37 21 -50q10 -7 24 -10.5t20 -6.5q4 -3 5.5 -9.5t-0.5 -8.5q-10 -2 -23.5 -1t-55.5 3.5t-75 2.5t-75 -2.5t-56 -3.5t-24 1q-2 2 -1 8.5t6 9.5q6 4 21.5 7.5t25.5 9.5q21 15 21 50v217z" />
    <glyph glyph-name="Zcaron" unicode="&#x17d;" horiz-adv-x="683" 
d="M341 856l48 27q41 23 80 33q32 5 38 -8l-152 -137h-27l-153 137q7 12 38 8q38 -9 80 -33zM280 666q-76 -1 -107 -25t-57 -95q-16 -43 -20 -47q-5 -7 -14.5 -8.5t-12.5 1.5q7 41 11 124q1 32 0 52.5t0.5 31.5t8.5 14q14 3 18.5 0t31.5 -8.5t64 -5.5h422l10 -26l-408 -639
l140 1q93 0 142.5 18.5t88.5 86.5q4 7 9.5 18.5t9 18t7.5 8.5q5 4 16 4q10 0 13 -3q-42 -139 -52 -187l-552 -1l-18 27l407 640h-158z" />
    <glyph glyph-name="zcaron" unicode="&#x17e;" horiz-adv-x="508" 
d="M219 677l37 -27l36 27q46 35 79 41q31 7 38 -8q-27 -29 -69.5 -70.5t-70.5 -71.5h-27l-140 142q8 14 38 8q33 -6 79 -41zM67 445q2 12 3 24t1 19t1 13.5t2.5 9.5t4.5 4q4 1 11.5 -2.5t25 -8t42.5 -4.5h303l12 -17l-274 -458h78q67 -1 110 25t71 86q12 28 16 29
q11 0 13 -10q1 -8 -5 -23q-27 -73 -38 -132h-412l-12 18l274 457h-87q-50 1 -78.5 -24t-47.5 -75q-9 -26 -12 -29q-3 -2 -8.5 0.5t-6.5 7.5q-1 6 3 25q4 17 10 65z" />
    <glyph glyph-name="circumflex" unicode="&#x2c6;" horiz-adv-x="297" 
d="M184 618l-36 27l-36 -27q-45 -34 -79 -41q-31 -7 -38 8l139 141h28q25 -27 67.5 -69t71.5 -73q-3 -6 -15.5 -8t-22.5 1q-34 7 -79 41z" />
    <glyph glyph-name="caron" unicode="&#x2c7;" horiz-adv-x="376" 
d="M153 677l37 -27l36 27q46 35 79 41q31 7 38 -8q-27 -29 -69.5 -70.5t-70.5 -71.5h-27l-140 142q8 14 38 8q33 -6 79 -41z" />
    <glyph glyph-name="ring" unicode="&#x2da;" horiz-adv-x="196" 
d="M15 652q0 34 24.5 58t58.5 24t58.5 -24t24.5 -58t-24.5 -58.5t-58.5 -24.5t-58.5 24.5t-24.5 58.5zM55 652q0 -18 12.5 -30.5t30.5 -12.5t30.5 12.5t12.5 30.5q0 17 -12.5 29.5t-30.5 12.5t-30.5 -12.5t-12.5 -29.5z" />
    <glyph glyph-name="tilde" unicode="&#x2dc;" horiz-adv-x="332" 
d="M247 640q43 0 72 32l16 -10q-5 -13 -13 -26.5t-21 -31t-31.5 -28.5t-38.5 -11q-23 0 -70 21.5t-65 21.5q-40 0 -70 -35l-15 9q11 30 40.5 64t69.5 34q26 0 65.5 -20t60.5 -20z" />
    <glyph glyph-name="endash" unicode="&#x2013;" horiz-adv-x="536" 
d="M363 213h-349q-6 5 -2.5 29.5t16.5 34.5q15 12 42.5 14.5t84.5 2.5h19h349q5 -5 2 -29t-16 -34q-11 -9 -31.5 -13t-38.5 -4.5t-58 -0.5h-18z" />
    <glyph glyph-name="emdash" unicode="&#x2014;" horiz-adv-x="827" 
d="M654 213h-640q-6 5 -2.5 29.5t16.5 34.5q15 12 42.5 14.5t84.5 2.5h19h640q5 -5 2 -29t-16 -34q-11 -9 -31.5 -13t-38.5 -4.5t-58 -0.5h-18z" />
    <glyph glyph-name="quoteleft" unicode="&#x2018;" horiz-adv-x="215" 
d="M167 756q-48 -58 -57 -107q33 0 56 -23.5t23 -56.5t-24 -56.5t-57 -23.5q-34 0 -58.5 23.5t-24.5 60.5q0 50 40.5 108.5t88.5 88.5z" />
    <glyph glyph-name="quoteright" unicode="&#x2019;" horiz-adv-x="215" 
d="M47 504q47 54 58 107q-33 0 -56.5 23t-23.5 57q0 33 24.5 56t57.5 23q34 0 58 -23t24 -61q0 -51 -40.5 -108.5t-88.5 -87.5z" />
    <glyph glyph-name="quotesinglbase" unicode="&#x201a;" horiz-adv-x="215" 
d="M47 -117q47 54 58 107q-33 0 -56.5 23.5t-23.5 56.5t24.5 56t57.5 23q34 0 58 -23t24 -61q0 -51 -40.5 -108.5t-88.5 -87.5z" />
    <glyph glyph-name="quotedblleft" unicode="&#x201c;" horiz-adv-x="410" 
d="M363 756q-47 -54 -58 -107q33 0 56.5 -23.5t23.5 -56.5t-24.5 -56.5t-57.5 -23.5q-34 0 -58 23.5t-24 60.5q0 51 40.5 108.5t88.5 88.5zM167 756q-48 -58 -57 -107q33 0 56 -23.5t23 -56.5t-24 -56.5t-57 -23.5q-34 0 -58.5 23.5t-24.5 60.5q0 50 40.5 108.5t88.5 88.5z
" />
    <glyph glyph-name="quotedblright" unicode="&#x201d;" horiz-adv-x="410" 
d="M47 504q47 54 58 107q-33 0 -56.5 23t-23.5 57q0 33 24.5 56t57.5 23q34 0 58 -23t24 -61q0 -51 -40.5 -108.5t-88.5 -87.5zM243 504q48 58 57 107q-33 0 -56 23t-23 57q0 33 24 56t57 23q34 0 58.5 -23t24.5 -61q0 -50 -40.5 -108t-88.5 -88z" />
    <glyph glyph-name="quotedblbase" unicode="&#x201e;" horiz-adv-x="410" 
d="M47 -117q47 54 58 107q-33 0 -56.5 23.5t-23.5 56.5t24.5 56t57.5 23q34 0 58 -23t24 -61q0 -51 -40.5 -108.5t-88.5 -87.5zM243 -117q48 58 57 107q-33 0 -56 23.5t-23 56.5t24 56t57 23q34 0 58.5 -23t24.5 -61q0 -50 -40.5 -108t-88.5 -88z" />
    <glyph glyph-name="dagger" unicode="&#x2020;" horiz-adv-x="487" 
d="M220 443q-19 -4 -73 -38.5t-75 -34.5q-20 0 -37.5 30t-17.5 55q0 21 16.5 39t34.5 18q37 0 89.5 -21.5t62.5 -24.5q0 7 -4 17q-4 19 -30.5 67.5t-26.5 75.5q0 21 25 32t51 11q23 0 45 -11t22 -30q0 -34 -24 -84t-28 -78q2 1 28 4t41 10q59 26 87 28q18 1 33 -15.5
t15 -37.5q0 -26 -17 -59t-36 -33q-18 0 -75.5 38t-75.5 42l37 -161v-25q-2 -26 -3 -72t-4 -83q-2 -24 -16 -96.5t-21 -85.5q-2 -1 -8 -1t-8 2q-5 5 -20.5 84t-16.5 93q-3 37 -3.5 83.5t-1.5 72.5v28z" />
    <glyph glyph-name="bullet" unicode="&#x2022;" horiz-adv-x="282" 
d="M25 261q0 48 34 81.5t82 33.5t81.5 -33.5t33.5 -81.5t-33.5 -82t-81.5 -34t-82 34t-34 82z" />
    <glyph glyph-name="ellipsis" unicode="&#x2026;" horiz-adv-x="776" 
d="M40 70q0 33 23.5 56t56.5 23t56 -23t23 -56t-23 -56.5t-56 -23.5t-56.5 23.5t-23.5 56.5zM308 70q0 33 23.5 56t56.5 23t56 -23t23 -56t-23 -56.5t-56 -23.5t-56.5 23.5t-23.5 56.5zM576 70q0 33 23.5 56t56.5 23t56 -23t23 -56t-23 -56.5t-56 -23.5t-56.5 23.5
t-23.5 56.5z" />
    <glyph glyph-name="perthousand" unicode="&#x2030;" horiz-adv-x="1025" 
d="M93 -10l442 690h42l-442 -690h-42zM26 525q0 68 44 111.5t112 43.5q69 0 112 -43t43 -112q0 -68 -43.5 -111.5t-111.5 -43.5q-70 0 -113 43t-43 112zM121 523q2 -63 19 -97.5t44 -33.5t40.5 37t11.5 98q-2 63 -18.5 97.5t-44.5 33.5q-26 -2 -40 -37.5t-12 -97.5zM331 145
q0 68 43.5 111.5t111.5 43.5q69 0 112.5 -43t43.5 -112q0 -68 -44 -111.5t-112 -43.5q-69 0 -112 43t-43 112zM688 145q0 68 44 111.5t112 43.5q69 0 112 -43t43 -112q0 -68 -43.5 -111.5t-111.5 -43.5q-70 0 -113 43t-43 112zM426 143q2 -63 18.5 -97.5t43.5 -33.5t41 37
t12 98q-2 63 -19 97.5t-44 33.5t-40.5 -37t-11.5 -98zM783 143q2 -63 18.5 -97.5t44.5 -33.5q27 1 40.5 36.5t11.5 98.5t-18.5 97.5t-44.5 33.5q-26 -2 -40 -38t-12 -97z" />
    <glyph glyph-name="guilsinglleft" unicode="&#x2039;" horiz-adv-x="293" 
d="M157 251l100 -141q21 -28 29 -56q4 -9 2 -22.5t-11 -16.5l-252 236l252 237q18 -7 9 -40q-8 -26 -29 -56z" />
    <glyph glyph-name="guilsinglright" unicode="&#x203a;" horiz-adv-x="328" 
d="M171 251l-100 141q-23 35 -29 56q-7 34 9 40l252 -237l-252 -236q-17 6 -9 39q6 23 29 56z" />
    <glyph glyph-name="Euro" unicode="&#x20ac;" horiz-adv-x="622" 
d="M556 642q13 -55 28 -166q-4 -3 -14.5 -1t-13.5 8q-43 92 -81 131.5t-88 28.5t-84.5 -80t-35.5 -176h190q7 -16 -7 -26q-13 -9 -46 -9h-137q0 -6 1 -9v-17q1 -3 1 -9h171q7 -16 -6 -26q-13 -9 -47 -9h-114q15 -120 59.5 -183t103.5 -63q37 0 74.5 28t58.5 65l27 -16
q-24 -46 -75 -84.5t-120 -38.5q-121 0 -206 80.5t-98 211.5h-70q-7 15 7 25q13 10 61 10q0 23 1 35h-52q-7 15 7 25q10 8 48 10q16 134 101.5 213.5t207.5 79.5q85 0 148 -38z" />
    <glyph glyph-name="uniF200" unicode="&#xf200;" horiz-adv-x="733" 
d="M63 -75q-75 -201 -225 -201q-64 0 -112.5 38.5t-48.5 98.5q0 35 25.5 63t63.5 28q37 0 62.5 -25t25.5 -60t-25 -60t-61 -25q18 -24 68 -24q123 0 186 166l246 642q25 67 17 87q-2 7 -12 13q-6 4 -18.5 8.5t-17.5 8.5q-9 8 -4 17q3 4 16 4q8 0 42.5 -3t56.5 -3t51 2t35 2
q16 0 17 -5l209 -612q13 -35 39 -50q10 -5 23 -9t19 -8q5 -4 6.5 -10t-1.5 -8q-10 -2 -24 -1t-57 3.5t-77 2.5q-33 0 -75.5 -2.5t-57 -3.5t-24.5 1q-2 2 -0.5 8.5t5.5 9.5q5 3 21 6t24 11q14 14 1 50l-45 136l-263 1zM187 255h239l-112 338z" />
    <glyph glyph-name="uniF201" unicode="&#xf201;" horiz-adv-x="892" 
d="M209 566q0 -35 -25.5 -59.5t-61.5 -24.5q-42 0 -67 27.5t-25 64.5q0 52 47 94t130 42q31 0 85 -7.5t105 -7.5q30 0 95.5 2.5t109.5 2.5q91 0 140.5 -46.5t49.5 -107.5t-41.5 -103t-94.5 -58q89 -6 150 -55t61 -130q0 -94 -63 -147t-168 -53q-26 0 -113 2.5t-130 2.5
q-34 0 -73.5 -2.5t-52 -3.5t-22.5 1q-3 2 -1.5 8t6.5 10q6 4 20 7.5t24 9.5q22 14 22 50v472q0 57 -32.5 87.5t-81.5 30.5q-52 0 -80 -24q38 -1 62.5 -25t24.5 -60zM482 396h82q39 0 56 36t14 80t-19 76q-38 77 -91 77q-42 0 -42 -58v-211zM571 35h31q37 1 61.5 22.5
t32.5 53t5.5 66t-15.5 63.5q-53 122 -157 122h-48v-257q0 -72 90 -70z" />
    <glyph glyph-name="uniF202" unicode="&#xf202;" horiz-adv-x="992" 
d="M209 566q0 -35 -25 -59.5t-62 -24.5q-42 0 -66.5 27.5t-24.5 64.5q0 52 47 94t129 42q33 0 93 -7.5t98 -7.5q40 0 110.5 2.5t112.5 2.5q153 0 246.5 -101.5t93.5 -242.5q0 -161 -91.5 -258.5t-251.5 -97.5q-26 0 -106.5 2.5t-123.5 2.5q-34 0 -72 -2.5t-49.5 -3.5
t-20.5 1q-3 2 -1.5 8t6.5 10q6 4 20 7.5t24 9.5q22 14 22 50l-1 472q0 58 -32 88t-82 30q-52 0 -79 -24q38 -1 62 -25t24 -60zM544 665q-32 0 -47 -16t-15 -54v-491q0 -70 82 -70h51q74 0 118.5 45.5t54.5 120t-4 170.5q-24 147 -85.5 221t-154.5 74z" />
    <glyph glyph-name="uniF203" unicode="&#xf203;" horiz-adv-x="682" 
d="M473 587q0 39 26.5 62t65.5 23q-36 29 -98 29q-57 0 -134 -25q-34 -12 -49 -34.5t-15 -61.5v-211h126q35 0 50 21q6 10 10 24.5t8 20.5q3 5 9 6t8 -1q2 -7 1 -13.5t-3.5 -30t-2.5 -44.5t2.5 -44.5t3.5 -30t-1 -13.5q-2 -2 -8 -0.5t-9 5.5q-4 6 -8 20.5t-10 24.5
q-13 21 -50 21h-126v-230q0 -38 19 -54t61 -16h78q42 0 67 18.5t52 67.5q3 6 7.5 14.5t7 14t6 10t6.5 6.5q5 4 15 4t13 -3q-8 -32 -24 -87t-22 -80h-88q-43 0 -147.5 2.5t-144.5 2.5q-34 0 -72.5 -2.5t-50 -3.5t-20.5 1q-2 2 -0.5 8.5t5.5 9.5q6 4 20.5 7.5t24.5 9.5
q21 13 21 50v530q0 37 -21 50q-10 7 -24.5 10.5t-20.5 6.5q-4 3 -5.5 9.5t0.5 8.5q9 2 20.5 1t50 -3.5t72.5 -2.5q57 0 147 20.5t143 20.5q75 0 131 -38t56 -103q0 -37 -24.5 -64.5t-66.5 -27.5q-37 0 -62.5 24.5t-25.5 59.5z" />
    <glyph glyph-name="uniF204" unicode="&#xf204;" horiz-adv-x="845" 
d="M209 566q0 -35 -25 -59.5t-62 -24.5q-42 0 -66.5 27.5t-24.5 64.5q0 52 47 94t129 42q31 0 89.5 -7.5t106.5 -7.5q40 0 136.5 2.5t140.5 2.5h63q15 -98 26 -157q-3 -3 -11 -2t-13 5q-4 3 -7 9.5t-7.5 19t-7.5 19.5q-16 37 -40 54t-70 17h-51q-41 1 -60.5 -15.5
t-19.5 -54.5v-226h126q35 0 50 21q6 10 10 24.5t8 20.5q3 5 9 6t8 -1q2 -7 1 -13.5t-3.5 -30t-2.5 -44.5t2.5 -44.5t3.5 -30t-1 -13.5q-2 -2 -8 -0.5t-9 5.5q-4 6 -8 20.5t-10 24.5q-14 21 -50 21h-126v-230q0 -38 19 -54t61 -16h78q42 0 67 18.5t52 67.5q3 6 7.5 14.5t7 14
t6 10t6.5 6.5q5 4 15 4t13 -3q-8 -32 -24 -87t-22 -80h-88q-43 0 -147.5 2.5t-144.5 2.5q-34 0 -72.5 -2.5t-50 -3.5t-20.5 1q-2 2 -0.5 8.5t5.5 9.5q6 4 20.5 7.5t24.5 9.5q21 14 21 50v472q0 58 -32 88t-82 30q-52 0 -80 -24q38 -1 62.5 -25t24.5 -60z" />
    <glyph glyph-name="uniF205" unicode="&#xf205;" horiz-adv-x="667" 
d="M473 587q0 39 26.5 62t65.5 23q-36 29 -98 29q-57 0 -134 -25q-34 -12 -49 -34.5t-15 -61.5v-218h126q35 0 50 21q6 10 10 24.5t8 20.5q3 5 9 6t8 -1q2 -7 1 -13.5t-3.5 -30t-2.5 -44.5t2.5 -44.5t3.5 -30t-1 -13.5q-8 -5 -17 5q-4 6 -8 20.5t-10 24.5q-13 21 -50 21
h-126v-243q0 -37 21 -50q10 -7 24.5 -10.5t20.5 -6.5q5 -3 6 -9.5t-1 -8.5q-10 -2 -23.5 -1t-54.5 3.5t-75 2.5q-33 0 -75 -2.5t-56 -3.5t-24 1q-2 2 -0.5 8.5t5.5 9.5q6 4 20.5 7.5t24.5 9.5q21 13 21 50v530q0 37 -21 50q-10 7 -24.5 10.5t-20.5 6.5q-4 3 -5.5 9.5
t0.5 8.5q9 2 20.5 1t50 -3.5t72.5 -2.5q57 0 147 20.5t143 20.5q75 0 131 -38t56 -103q0 -37 -24.5 -64.5t-66.5 -27.5q-37 0 -62.5 24.5t-25.5 59.5z" />
    <glyph glyph-name="uniF206" unicode="&#xf206;" horiz-adv-x="796" 
d="M688 345q0 -21 2.5 -44.5t3.5 -30t-1 -13.5q-8 -5 -17 5q-4 6 -8 20.5t-10 24.5q-12 21 -50 21h-126v-243q0 -37 21 -50q10 -7 24.5 -10.5t20.5 -6.5q5 -3 6 -9.5t-1 -8.5q-10 -2 -23.5 -1t-54.5 3.5t-75 2.5q-33 0 -75 -2.5t-56 -3.5t-24 1q-2 2 -0.5 8.5t5.5 9.5
q6 4 20.5 7.5t24.5 9.5q21 14 21 50v472q0 58 -32 88t-82 30q-52 0 -80 -24q38 -1 62.5 -25t24.5 -60q0 -35 -25 -59.5t-62 -24.5q-42 0 -66.5 27.5t-24.5 64.5q0 52 47 94t129 42q29 0 81 -7.5t112 -7.5q40 0 138 2.5t142 2.5h73q15 -102 27 -163q-3 -3 -11 -2t-13 5
q-4 3 -7 9.5t-7.5 19t-7.5 19.5q-17 38 -41.5 57.5t-69.5 19.5h-61q-41 1 -60.5 -15.5t-19.5 -54.5v-233h126q37 0 50 21q6 10 10 24.5t8 20.5q3 5 9 6t8 -1q2 -7 1 -13.5t-3.5 -30t-2.5 -44.5z" />
    <glyph glyph-name="uniF207" unicode="&#xf207;" horiz-adv-x="756" 
d="M361 -135q0 -32 -21.5 -56t-53.5 -28q11 -20 35 -32.5t51 -12.5q56 0 94 43t38 135v117q-48 -41 -121 -41q-135 0 -239 99.5t-104 255.5q0 162 105.5 263.5t269.5 101.5q56 0 113.5 -12.5t85.5 -26.5q13 -55 28 -166q-4 -3 -14.5 -1t-13.5 8q-33 71 -93.5 117.5
t-128.5 46.5q-63 0 -106 -39t-60.5 -93t-17.5 -116q0 -47 7 -92q18 -140 74 -225.5t116 -85.5q56 0 99 50v161q0 36 -21 50q-10 6 -25.5 10t-21.5 8q-5 3 -6 9t1 8q10 2 24 1t56 -3.5t75 -2.5t75 2.5t55.5 3.5t23.5 -1q2 -2 0.5 -8t-5.5 -9q-6 -4 -20 -8t-24 -10
t-15.5 -37.5t-5.5 -58.5v-175q0 -151 -78.5 -232t-209.5 -81q-79 0 -138.5 47t-59.5 110q0 35 25.5 63t63.5 28q37 0 62.5 -25t25.5 -60z" />
    <glyph glyph-name="uniF208" unicode="&#xf208;" horiz-adv-x="834" 
d="M105 615q0 35 -21 50q-11 6 -26.5 9.5t-20.5 7.5q-5 3 -6 9.5t1 8.5q10 2 24 1t56 -3.5t75 -2.5t75 2.5t55.5 3.5t23.5 -1q2 -2 0.5 -8.5t-5.5 -9.5q-6 -3 -20 -6.5t-24 -10.5q-21 -13 -21 -50v-241l295 1v240q0 37 -21 50q-10 6 -25.5 9.5t-20.5 7.5t-6.5 10t1.5 8
q10 2 23.5 1t55.5 -3.5t75 -2.5t75 2.5t55.5 3.5t23.5 -1q3 -2 1.5 -8t-6.5 -10t-19 -7.5t-24 -9.5q-22 -14 -22 -50v-701q-1 -92 37.5 -135t94.5 -43q27 0 50.5 12.5t34.5 32.5q-32 4 -53 28t-21 56q0 35 25.5 59.5t62.5 24.5q38 0 63.5 -27.5t25.5 -62.5q0 -63 -59.5 -110
t-139.5 -47q-130 0 -208.5 81t-78.5 232v325h-295v-255q0 -37 21 -50q10 -7 24 -10.5t20 -6.5q4 -3 5.5 -9.5t-0.5 -8.5q-10 -2 -23.5 -1t-55.5 3.5t-75 2.5t-75 -2.5t-56 -3.5t-24 1q-2 2 -1 8.5t6 9.5q6 4 21.5 7.5t25.5 9.5q21 15 21 50v530z" />
    <glyph glyph-name="uniF209" unicode="&#xf209;" horiz-adv-x="1045" 
d="M777 615q0 37 -21 50q-10 6 -25.5 9.5t-20.5 7.5t-6.5 10t1.5 8q10 2 23.5 1t55.5 -3.5t75 -2.5t75 2.5t55.5 3.5t23.5 -1q3 -2 1.5 -8t-6.5 -10t-19 -7.5t-24 -9.5q-22 -14 -22 -50v-530q0 -36 22 -50q10 -6 24 -9.5t19 -7.5t6.5 -10t-1.5 -8q-10 -2 -23.5 -1t-55.5 3.5
t-75 2.5t-75 -2.5t-55.5 -3.5t-23.5 1q-3 2 -1.5 8t6.5 10q6 4 21 7.5t25 9.5q21 14 21 50v255h-295v-255q0 -37 21 -50q10 -7 24 -10.5t20 -6.5q4 -3 5.5 -9.5t-0.5 -8.5q-10 -2 -23.5 -1t-55.5 3.5t-75 2.5t-75 -2.5t-56 -3.5t-24 1q-2 2 -1 8.5t6 9.5q6 4 21.5 7.5
t25.5 9.5q21 15 21 50v472q0 58 -32.5 88t-81.5 30q-52 0 -80 -24q38 -1 62.5 -25t24.5 -60q0 -35 -25.5 -59.5t-61.5 -24.5q-42 0 -67 27.5t-25 64.5q0 52 47 94t130 42q31 0 87.5 -7.5t103.5 -7.5q33 0 75 2.5t55.5 3.5t23.5 -1q2 -2 0.5 -8.5t-5.5 -9.5q-6 -3 -20 -6.5
t-24 -10.5q-21 -13 -21 -50v-241h295v241z" />
    <glyph glyph-name="uniF20A" unicode="&#xf20a;" horiz-adv-x="603" 
d="M209 853q0 -35 -25 -60t-61 -25q-10 0 -16 1q8 -32 37 -49q26 -15 63 -22t55 -7.5t58 -0.5q100 0 201 9q49 3 51 1t0.5 -8.5t-5.5 -9.5q-6 -3 -20.5 -6.5t-24.5 -10.5q-21 -13 -21 -50v-530q0 -37 21 -50q10 -7 24 -10.5t20 -6.5q4 -3 5.5 -9.5t-0.5 -8.5
q-10 -2 -23.5 -1t-55.5 3.5t-75 2.5t-75 -2.5t-56 -3.5t-24 1q-2 2 -1 8.5t6 9.5q6 4 21.5 7.5t25.5 9.5q21 15 21 50v488q0 34 -13.5 49.5t-43.5 21.5q-4 1 -39 7.5t-61 15.5t-54 25q-94 52 -94 153q0 37 24.5 64.5t66.5 27.5q37 0 62.5 -24.5t25.5 -59.5z" />
    <glyph glyph-name="uniF20B" unicode="&#xf20b;" horiz-adv-x="583" 
d="M209 566q0 -35 -25 -59.5t-62 -24.5q-42 0 -66.5 27.5t-24.5 64.5q0 52 47 94t129 42q30 0 88.5 -7.5t110.5 -7.5q34 0 73 2.5t51 3.5t22 -1q2 -2 0.5 -8.5t-5.5 -9.5q-6 -3 -20 -6.5t-24 -10.5q-21 -13 -21 -50v-530q0 -37 21 -50q10 -7 24 -10.5t20 -6.5q4 -3 5.5 -9.5
t-0.5 -8.5q-10 -2 -23.5 -1t-55.5 3.5t-75 2.5t-75 -2.5t-56 -3.5t-24 1q-2 2 -1 8.5t6 9.5q6 4 21.5 7.5t25.5 9.5q21 15 21 50v472q0 58 -32 88t-82 30q-52 0 -80 -24q38 -1 62.5 -25t24.5 -60z" />
    <glyph glyph-name="uniF20C" unicode="&#xf20c;" horiz-adv-x="474" 
d="M104 566q0 -35 -25.5 -59.5t-61.5 -24.5q-42 0 -67 27.5t-25 64.5q0 52 47 94t130 42q32 0 88 -7.5t103 -7.5q33 0 75 2.5t55.5 3.5t23.5 -1q2 -2 1 -8.5t-6 -9.5q-5 -4 -19 -7.5t-25 -9.5q-21 -13 -21 -50v-506q0 -178 -64 -262q-75 -97 -199 -97q-62 0 -96 30t-34 74
q0 36 25 61t61 25t61.5 -25t25.5 -61q0 -20 -11 -41t-25 -31q90 8 90 134v641q-1 58 -33 88t-81 30q-52 0 -80 -24q38 -1 62.5 -25t24.5 -60z" />
    <glyph glyph-name="uniF20D" unicode="&#xf20d;" horiz-adv-x="756" 
d="M105 615q0 35 -21 50q-10 6 -25.5 10t-21.5 8q-5 3 -6 9t1 8q10 2 24 1t56 -3.5t75 -2.5t75 2.5t55.5 3.5t23.5 -1q2 -2 0.5 -8t-5.5 -9q-6 -4 -20 -8t-24 -10q-21 -13 -21 -50v-256l231 246q33 36 19 55q-8 12 -29 16t-25 7q-5 3 -6.5 9t1.5 8q8 2 17 1t41.5 -3.5
t62.5 -2.5t62.5 2.5t41.5 3.5t17 -1q5 -8 -5 -18q-8 -8 -37 -15.5t-44 -14.5q-30 -14 -74 -60l-161 -163l351 -464q42 -55 60.5 -78.5t50 -59t55.5 -49.5t46 -14q27 0 44 19q-37 -1 -62 24t-25 60t25.5 60t61.5 25q38 0 64 -28t26 -63q0 -57 -45.5 -94t-117.5 -37
q-65 0 -125 23t-112.5 66t-93.5 87.5t-86 104.5l-229 306v-232q0 -37 21 -50q10 -7 24 -10.5t20 -6.5q4 -3 5.5 -9.5t-0.5 -8.5q-10 -2 -23.5 -1t-55.5 3.5t-75 2.5t-75 -2.5t-56 -3.5t-24 1q-2 2 -1 8.5t6 9.5q5 4 20.5 7.5t26.5 9.5q21 15 21 50v530z" />
    <glyph glyph-name="uniF20E" unicode="&#xf20e;" horiz-adv-x="967" 
d="M316 557q0 58 -32.5 88t-81.5 30q-52 0 -80 -24q38 -1 62.5 -25t24.5 -60q0 -35 -25.5 -59.5t-61.5 -24.5q-42 0 -67 27.5t-25 64.5q0 52 47 94t130 42q31 0 87.5 -7.5t103.5 -7.5q33 0 75 2.5t55.5 3.5t23.5 -1q2 -2 0.5 -8.5t-5.5 -9.5q-6 -3 -20 -6.5t-24 -10.5
q-21 -13 -21 -50v-256l231 246q33 36 19 55q-8 12 -30 16t-25 6q-4 3 -5.5 9.5t0.5 8.5q8 2 17.5 1t42 -3.5t62.5 -2.5t62.5 2.5t41.5 3.5t17 -1q5 -8 -5 -17q-8 -8 -37.5 -16t-43.5 -15q-30 -14 -74 -60l-161 -163l244 -323q31 -41 69 -62q15 -9 34 -16t24 -10t6 -9.5
t-1 -8.5q-9 -2 -20 -1.5t-45.5 2.5t-62.5 2q-24 0 -54.5 -1.5t-41.5 -2t-24 1.5q-13 4 -23 21l-217 294v-231q0 -37 21 -50q10 -7 24 -10.5t20 -6.5q4 -3 5.5 -9.5t-0.5 -8.5q-10 -2 -23.5 -1t-55.5 3.5t-75 2.5t-75 -2.5t-56 -3.5t-24 1q-2 2 -1 8.5t6 9.5q6 4 21.5 7.5
t25.5 9.5q21 15 21 50v472z" />
    <glyph glyph-name="uniF20F" unicode="&#xf20f;" horiz-adv-x="596" 
d="M633 -133q0 35 25.5 60t62.5 25q38 0 63.5 -28t25.5 -63q0 -48 -34.5 -82.5t-88.5 -34.5q-47 0 -100 27t-92.5 61t-89 74.5t-82.5 57.5q-75 41 -199 41q-17 0 -41 -2.5t-33 -3.5t-16 1q-2 2 -0.5 8.5t5.5 9.5q6 4 20.5 7.5t24.5 9.5q21 13 21 50v530q0 35 -21 50
q-10 6 -25.5 10t-21.5 8q-5 3 -6 9t1 8q10 2 24 1t56 -3.5t75 -2.5t75 2.5t55.5 3.5t23.5 -1q2 -2 0.5 -8t-5.5 -9q-6 -4 -20 -8t-24 -10q-21 -12 -21 -49v-507q0 -37 37 -57q74 -42 114 -73t101 -92q55 -55 93 -82.5t74 -27.5q18 0 33 6q-38 0 -64 23.5t-26 60.5z" />
    <glyph glyph-name="uniF210" unicode="&#xf210;" horiz-adv-x="807" 
d="M209 566q0 -35 -25.5 -59.5t-61.5 -24.5q-42 0 -67 27.5t-25 64.5q0 52 47 94t130 42q31 0 87.5 -7.5t103.5 -7.5q33 0 75 2.5t55.5 3.5t23.5 -1q2 -2 0.5 -8.5t-5.5 -9.5q-6 -3 -20 -6.5t-24 -10.5q-21 -13 -21 -50v-511q0 -38 19 -54t61 -16h75q41 0 68 22.5t55 73.5
q3 6 7.5 14.5t7 13.5t6 10t6.5 7q5 4 13 4t12 -3q-39 -141 -47 -176h-85q-43 0 -147.5 2.5t-144.5 2.5q-34 0 -72.5 -2.5t-50 -3.5t-20.5 1q-2 2 -0.5 8.5t5.5 9.5q6 3 20.5 6.5t24.5 10.5q21 14 21 50v472q-1 58 -33 88t-81 30q-52 0 -80 -24q38 -1 62.5 -25t24.5 -60z" />
    <glyph glyph-name="uniF211" unicode="&#xf211;" horiz-adv-x="1023" 
d="M1057 -133q0 35 25.5 60t62.5 25q38 0 63.5 -28t25.5 -63q0 -65 -56.5 -111.5t-135.5 -46.5q-115 0 -192 79.5t-93 254.5l-48 523l-242 -560h-38l-220 572l-60 -487q-5 -39 18 -50q11 -5 37.5 -9t32.5 -8q5 -3 6 -9.5t-1 -8.5q-8 -2 -15.5 -1t-39 3t-62.5 2t-63 -2
t-39.5 -3t-15.5 1q-2 2 -1 8.5t6 9.5t29 8t38 13q28 16 33 57l70 535q-12 19 -26 29q-16 12 -33.5 16t-21.5 6q-5 4 -6.5 10t1.5 8q8 2 16 1t39.5 -3t62.5 -2q30 0 64 2.5t39 2.5q15 0 16 -5l190 -477l202 477q3 7 17 7q6 0 40 -3.5t63 -3.5q31 0 63 2t40 3t16 -1
q2 -2 1 -8.5t-6 -9.5q-7 -4 -29 -10.5t-31 -10.5q-28 -15 -24 -52l62 -691q9 -94 40.5 -137.5t74.5 -43.5q27 0 52 12t36 34q-35 1 -59 25.5t-24 58.5z" />
    <glyph glyph-name="uniF212" unicode="&#xf212;" horiz-adv-x="1029" 
d="M197 -133q0 -35 -24.5 -60t-61.5 -25q12 -19 39 -31.5t52 -12.5q66 0 106 47t40 146l1 654q-35 53 -65 76q-9 6 -18 10t-18 6.5t-12 4.5q-5 3 -6 9.5t1 8.5q8 2 16 1t40 -3t63 -2t61 2t36 3t14 -1l413 -491v398q0 39 -21 54q-11 6 -41.5 11.5t-35.5 9.5q-5 3 -6 9.5
t1 8.5q8 2 16 1t40 -3t63 -2t63 2t39.5 3t15.5 -1q2 -2 0.5 -8.5t-5.5 -9.5q-6 -3 -35 -8.5t-39 -12.5q-21 -13 -21 -54v-607h-78l-448 542v-607q0 -67 -16.5 -115t-45 -72t-57.5 -34t-61 -10q-75 0 -128 46.5t-53 110.5q0 35 25.5 63t63.5 28q37 0 62 -25t25 -60z" />
    <glyph glyph-name="uniF213" unicode="&#xf213;" horiz-adv-x="819" 
d="M839 798q0 35 25 59.5t61 24.5q-12 20 -36 32.5t-49 12.5q-64 0 -103 -47.5t-39 -146.5v-733h-77l-448 542v-449q-1 -40 21 -54q10 -6 39 -11.5t34 -9.5t6.5 -10t-1.5 -8q-8 -2 -15.5 -1t-39 3t-62.5 2q-32 0 -64 -2t-39.5 -3t-15.5 1q-3 2 -1.5 8t6.5 10q6 4 36 9.5
t40 11.5q21 13 22 54v492q-36 55 -65 76q-12 8 -30 15l-17 6q-5 3 -6.5 9.5t1.5 8.5q8 2 16 1t40 -3t63 -2t61 2t35.5 3t13.5 -1l413 -491v521q0 67 16.5 114.5t44 71.5t55.5 34t59 10q73 0 125 -46.5t52 -109.5q0 -35 -25.5 -63t-63.5 -28q-37 0 -62.5 25t-25.5 60z" />
    <glyph glyph-name="uniF214" unicode="&#xf214;" horiz-adv-x="850" 
d="M209 566q0 -35 -25 -59.5t-62 -24.5q-42 0 -66.5 27.5t-24.5 64.5q0 52 47 94t129 42q31 0 85 -7.5t101 -7.5q40 0 106.5 2.5t108.5 2.5q118 0 177.5 -57.5t59.5 -137.5q0 -103 -76.5 -168t-190.5 -66q-49 0 -96 18v-204q0 -37 21 -50q10 -6 24 -9.5t20 -7.5
q4 -3 5.5 -9.5t-0.5 -8.5q-10 -2 -23.5 -1t-55.5 3.5t-75 2.5t-75 -2.5t-56 -3.5t-24 1q-2 2 -1 8.5t6 9.5q5 4 20.5 7.5t26.5 9.5q21 15 21 50v472q0 58 -32 88t-82 30q-52 0 -80 -24q38 -1 62.5 -25t24.5 -60zM483 599l-1 -275q38 -18 79 -18q42 0 71 21q38 28 45 96.5
t-26 145.5q-20 43 -51.5 69.5t-63.5 26.5q-28 0 -40.5 -14.5t-12.5 -51.5z" />
    <glyph glyph-name="uniF215" unicode="&#xf215;" horiz-adv-x="804" 
d="M40 350q0 158 101 259t255 101q156 0 256 -100.5t100 -259.5q0 -158 -101 -259t-255 -101q-156 0 -256 100.5t-100 259.5zM218 322q21 -138 94 -226t160 -70q69 14 95.5 109.5t6.5 234.5q-19 130 -79 219t-137 89q-14 0 -27 -3q-82 -18 -108 -113.5t-5 -239.5zM890 -228
q0 35 25.5 59.5t62.5 24.5q38 0 63.5 -27.5t25.5 -62.5q0 -59 -50.5 -101t-128.5 -42q-37 0 -77.5 8.5t-105.5 43t-121 92.5q-100 105 -129 128q-40 32 -72 32q-44 0 -96 -39l-19 27q73 59 176 59q61 0 132 -24t132 -82q34 -32 82.5 -91t81 -86.5t67.5 -27.5t50 25
q-4 -1 -13 -1q-36 0 -61 25t-25 60z" />
    <glyph glyph-name="uniF216" unicode="&#xf216;" horiz-adv-x="715" 
d="M662 30q13 -30 17.5 -41t21 -46t28 -53t32 -46t38.5 -42.5t42.5 -26t49.5 -11.5q28 0 43 19q-36 0 -61 24.5t-25 59.5t25.5 60t62.5 25q38 0 63.5 -28t25.5 -63q0 -57 -45.5 -94t-116.5 -37q-47 0 -90 16t-75 39t-65.5 63.5t-56.5 75t-54 87.5q-21 36 -48 90.5t-45 88.5
t-41 69t-49 52t-56 17h-12v-243q0 -37 21 -50q10 -6 24 -9.5t20 -7.5q4 -3 5.5 -9.5t-0.5 -8.5q-10 -2 -23.5 -1t-55.5 3.5t-75 2.5t-75 -2.5t-56 -3.5t-24 1q-2 2 -1 8.5t6 9.5q5 4 20.5 7.5t26.5 9.5q21 15 21 50v530q1 36 -21 50q-10 6 -24.5 9.5t-19.5 7.5t-6.5 10
t1.5 8q9 2 20.5 1t49.5 -3.5t72 -2.5q40 0 109 2.5t111 2.5q104 0 163.5 -52.5t59.5 -124.5q0 -79 -59.5 -128.5t-140.5 -62.5q58 -8 98 -39q18 -15 33 -33t32 -51t24 -48t28.5 -67t26.5 -64zM272 601l-1 -239h77q47 0 73.5 36t26.5 82.5t-15 92.5q-18 46 -48 69t-63 23
q-50 0 -50 -64z" />
    <glyph glyph-name="uniF217" unicode="&#xf217;" horiz-adv-x="925" 
d="M209 566q0 -35 -25.5 -59.5t-62.5 -24.5q-42 0 -66.5 27.5t-24.5 64.5q0 52 47 94t129 42q34 0 88 -7.5t93 -7.5q40 0 109 2.5t111 2.5q104 0 163.5 -52.5t59.5 -124.5q0 -75 -54.5 -124t-130.5 -65q46 -9 83 -41q24 -21 42.5 -51t42 -77.5t43.5 -79.5q22 -38 40 -49
q10 -7 21 -11t16 -7t6 -9.5t-1 -8.5q-8 -2 -18.5 -1.5t-40 2.5t-49.5 2q-26 0 -53 -2t-36 -1q-23 3 -39 26q-20 31 -44 89.5t-41.5 101.5t-47.5 77t-66 34h-22v-243q0 -37 21 -50q10 -6 24 -9.5t20 -7.5q4 -3 5.5 -9.5t-0.5 -8.5q-10 -2 -23.5 -1t-55.5 3.5t-75 2.5
t-75 -2.5t-56 -3.5t-24 1q-2 2 -1 8.5t6 9.5q5 4 20.5 7.5t26.5 9.5q21 15 21 50v472q0 58 -32 88t-82 30q-52 0 -79 -24q38 -1 62.5 -25t24.5 -60zM482 601l-1 -239h77q47 0 73.5 36t26.5 82.5t-15 92.5q-18 46 -48 69t-63 23q-50 0 -50 -64z" />
    <glyph glyph-name="uniF218" unicode="&#xf218;" horiz-adv-x="656" 
d="M620 864q0 35 25.5 60t61.5 25q42 0 67 -27.5t25 -65.5q0 -63 -50 -108.5t-121 -64.5q-64 -17 -151 -28q-39 -5 -52 -21t-13 -56v-493q0 -37 21 -50q10 -7 24 -10.5t20 -6.5q4 -3 5.5 -9.5t-0.5 -8.5q-10 -2 -23.5 -1t-55.5 3.5t-75 2.5t-75 -2.5t-56 -3.5t-24 1
q-3 2 -1.5 8t6.5 10t20.5 7.5t26.5 9.5q21 15 21 50v509q0 39 -13 55t-43 15h-47q-45 0 -67.5 -19t-38.5 -58q-20 -44 -23 -47q-4 -4 -12.5 -5t-11.5 2q18 94 27 163q44 0 150.5 -2.5t161.5 -2.5q9 0 55.5 -0.5t69 0t62.5 3.5t74 10q111 23 129 72q-3 0 -7 -0.5t-6 -0.5
q-36 0 -61 25t-25 60z" />
    <glyph glyph-name="uniF219" unicode="&#xf219;" horiz-adv-x="706" 
d="M538 587q0 35 24.5 60t60.5 25h11q-26 29 -77 29q-60 0 -102.5 -28.5t-42.5 -77.5v-510q0 -37 21 -50q10 -7 24 -10.5t20 -6.5q4 -3 5.5 -9.5t-0.5 -8.5q-10 -2 -23.5 -1t-55.5 3.5t-75 2.5t-75 -2.5t-56 -3.5t-24 1q-3 2 -1.5 8t6.5 10q6 4 21.5 7.5t25.5 9.5
q21 15 21 50v509q0 39 -13 55t-43 15h-47q-45 0 -67.5 -18.5t-38.5 -57.5q-19 -45 -23 -48q-4 -4 -12.5 -5t-11.5 2q18 94 27 163q45 0 124 -2.5t129 -2.5q86 0 168 20.5t118 20.5q67 0 113.5 -37.5t46.5 -103.5q0 -37 -24.5 -64.5t-66.5 -27.5q-37 0 -62 24.5t-25 59.5z
" />
    <glyph glyph-name="uniF21A" unicode="&#xf21a;" horiz-adv-x="970" 
d="M798 798q0 35 25 59.5t61 24.5q-12 20 -36 32.5t-49 12.5q-64 0 -103 -47.5t-39 -146.5v-448q0 -155 -77 -225t-204 -70q-126 0 -203.5 71.5t-77.5 223.5v330q0 35 -21 50q-10 6 -25.5 10t-21.5 8q-5 3 -6 9t1 8q10 2 24 1t56 -3.5t75 -2.5t75 2.5t55.5 3.5t23.5 -1
q2 -2 0.5 -8t-5.5 -9q-6 -4 -20 -8t-24 -10q-21 -13 -21 -50v-381q0 -99 45.5 -149.5t116.5 -50.5q24 0 47.5 5t52.5 21.5t50 43t35.5 75t14.5 112.5v439q0 67 16.5 114.5t44.5 71.5t56 34t59 10q73 0 124.5 -46.5t51.5 -109.5q0 -35 -25.5 -63t-63.5 -28q-37 0 -62.5 25
t-25.5 60z" />
    <glyph glyph-name="uniF21B" unicode="&#xf21b;" horiz-adv-x="965" 
d="M199 566q0 -35 -25.5 -59.5t-61.5 -24.5q-42 0 -67 27.5t-25 64.5q0 52 47 94t130 42q31 0 87.5 -7.5t103.5 -7.5q33 0 75 2.5t55.5 3.5t23.5 -1q2 -2 0.5 -8.5t-5.5 -9.5q-6 -3 -20 -6.5t-24 -10.5q-21 -13 -21 -50v-381q0 -99 45.5 -149.5t116.5 -50.5q24 0 47.5 5
t52.5 21.5t50 43t35.5 75t14.5 112.5v324q0 37 -21 50q-10 7 -40.5 10.5t-36.5 6.5q-4 3 -5.5 9.5t0.5 8.5q8 2 16 1t40 -3t63 -2t63 2t39.5 3t15.5 -1q2 -2 1 -8.5t-6 -9.5q-5 -4 -34 -7.5t-40 -9.5q-21 -15 -21 -50v-330q0 -155 -77 -225t-204 -70q-126 0 -203 71.5
t-78 223.5v272q-1 58 -33 88t-81 30q-52 0 -80 -24q38 -1 62.5 -25t24.5 -60z" />
    <glyph glyph-name="uniF21C" unicode="&#xf21c;" horiz-adv-x="707" 
d="M72 615q-16 36 -38 50q-13 7 -25 10t-17 7t-6.5 10t1.5 8q10 2 23.5 1t56 -3.5t75.5 -2.5t75 2.5t56 3.5t24 -1q3 -2 1.5 -8t-6.5 -10q-5 -3 -16 -6t-17 -10q-14 -12 1 -51l179 -444q76 181 179 379q35 66 56.5 104.5t56 93t60.5 84.5t59 52.5t64 23.5q37 1 65 -25
t28 -62t-25.5 -61.5t-61.5 -25.5q-34 0 -59 23t-28 57q-21 -16 -44 -45t-47.5 -71t-39 -68t-38 -72t-24.5 -48q-127 -239 -231 -509v-1h-69z" />
    <glyph glyph-name="uniF21D" unicode="&#xf21d;" horiz-adv-x="1094" 
d="M72 615q-14 35 -38 50q-13 7 -25 10t-18 7q-4 3 -5.5 9.5t0.5 8.5q10 2 23.5 1t55.5 -3.5t75 -2.5q34 0 75 2.5t54.5 3.5t23.5 -1q3 -2 1.5 -8t-6.5 -10q-5 -3 -16 -6t-17 -10q-13 -11 1 -51l170 -460l138 267l-77 193q-14 35 -39 50q-12 7 -24 10.5t-18 6.5
q-4 3 -5.5 9.5t0.5 8.5q10 2 24 1t56 -3.5t75 -2.5q34 0 75 2.5t54.5 3.5t23.5 -1q6 -9 -6 -18q-5 -3 -16.5 -7t-16.5 -9q-13 -11 1 -51l159 -433q81 199 171 368q30 56 47 87.5t45.5 80t50 76t48.5 57t53 43t52 14.5q39 1 66 -24.5t27 -62.5q0 -36 -25.5 -61.5t-61.5 -25.5
q-34 0 -59 23t-28 57q-18 -14 -38.5 -39.5t-37 -50.5t-37.5 -61.5t-32 -58t-28.5 -55.5t-20.5 -39q-104 -199 -225 -510h-65l-150 377l-199 -377h-65z" />
    <glyph glyph-name="uniF21E" unicode="&#xf21e;" horiz-adv-x="741" 
d="M530 561l-96 -146l210 -330q24 -36 55 -51q11 -6 23.5 -9t18.5 -7q5 -3 6 -9.5t-1 -8.5q-10 -2 -25.5 -1t-59.5 3.5t-77 2.5t-77 -2.5t-59.5 -3.5t-25.5 1q-5 8 5 18q5 4 18.5 8.5t17.5 9.5q13 16 -10 49l-135 212l-113 -181q-36 -56 -8 -77q11 -8 33 -13t27 -8
q5 -4 6.5 -10t-1.5 -8q-9 -2 -19 -1t-46.5 3.5t-70.5 2.5t-70 -2.5t-46 -3.5t-19 1q-2 2 -0.5 8.5t5.5 9.5q6 4 35.5 12t46.5 15q55 23 100 94l119 191l-182 285q-23 35 -54 51q-11 6 -23.5 9t-18.5 7q-5 3 -6 9.5t1 8.5q10 2 26 1t60 -3.5t77 -2.5t76.5 2.5t59 3.5t25.5 -1
q5 -8 -5 -18q-5 -4 -18.5 -8.5t-17.5 -9.5q-12 -16 9 -49l108 -168l94 145q104 158 179.5 237t147.5 79q36 0 62.5 -25.5t26.5 -61.5t-25.5 -61.5t-61.5 -25.5t-61.5 25.5t-25.5 61.5q-77 -40 -220 -260z" />
    <glyph glyph-name="uniF21F" unicode="&#xf21f;" horiz-adv-x="742" 
d="M876 -133q0 35 25.5 60t61.5 25q38 0 64 -28t26 -63q-1 -60 -47 -95.5t-116 -35.5q-58 0 -118.5 29.5t-114 80.5t-96 103.5t-82.5 114.5l-159 243l-115 -185q-36 -56 -8 -77q11 -8 33 -13t27 -8q5 -4 6.5 -10t-1.5 -8q-9 -2 -19 -1t-46.5 3.5t-70.5 2.5t-70 -2.5
t-46 -3.5t-19 1q-2 2 -0.5 8.5t5.5 9.5q6 4 36 12t46 15q56 25 100 94l122 194l-187 286q-23 34 -53 49q-10 5 -22.5 8t-18.5 7q-4 3 -5.5 9t0.5 8q10 2 26 1t60 -3.5t77 -2.5t76.5 2.5t59 3.5t25.5 -1q5 -8 -5 -18q-5 -4 -18.5 -8.5t-17.5 -9.5q-12 -16 9 -49l108 -168
l89 137q37 55 8 77q-11 8 -33.5 13.5t-26.5 7.5q-5 4 -6.5 10t1.5 8q9 2 19 1t46 -3.5t70 -2.5t70 2.5t46 3.5t19 -1q3 -2 1.5 -8t-6.5 -9q-6 -5 -36 -13t-46 -15q-53 -22 -99 -94l-96 -146l284 -445q61 -97 110.5 -149.5t94.5 -52.5q23 0 39 14q-36 1 -61 25.5t-25 59.5z
" />
    <glyph glyph-name="uniF220" unicode="&#xf220;" horiz-adv-x="708" 
d="M96 615q-13 23 -22 33.5t-23 17.5q-13 7 -24 10t-15 6q-5 4 -6.5 10t1.5 8q10 2 23.5 1t56 -3.5t75.5 -2.5t75.5 2.5t57 3.5t24.5 -1q3 -2 1.5 -8t-6.5 -9q-5 -4 -19.5 -8t-18.5 -10q-10 -16 10 -50l146 -250l113 231q79 163 138.5 237.5t132.5 74.5q36 0 62.5 -25.5
t26.5 -61.5t-25.5 -61.5t-61.5 -25.5q-35 0 -60.5 25.5t-25.5 61.5q-15 -10 -31.5 -29.5t-29 -37t-30 -49.5t-26 -48t-26.5 -52.5t-22 -43.5l-120 -244v-232q0 -37 21 -50q10 -7 24 -10.5t20 -6.5q4 -3 5.5 -9.5t-0.5 -8.5q-10 -2 -23.5 -1t-55.5 3.5t-75 2.5t-75 -2.5
t-56 -3.5t-24 1q-2 2 -1 8.5t6 9.5q6 4 21.5 7.5t25.5 9.5q21 15 21 50v217z" />
    <glyph glyph-name="uniF221" unicode="&#xf221;" horiz-adv-x="683" 
d="M710 -135q0 36 24.5 61.5t60.5 25.5t62.5 -25.5t26.5 -61.5q0 -51 -36.5 -86.5t-104.5 -35.5q-19 0 -38.5 2.5t-35 5t-37 10.5t-33.5 12t-36 17t-33.5 18t-37.5 22.5t-35.5 22.5l-40.5 27t-41 27q-146 95 -284 93l-42 -1l-18 27l396 640h-158q-76 -1 -107 -25t-57 -95
q-16 -43 -20 -47q-5 -7 -14.5 -8.5t-12.5 1.5q7 41 11 124q1 32 0 52.5t0.5 31.5t8.5 14q14 3 18.5 0t31.5 -8.5t64 -5.5h422l10 -26l-397 -639q51 -16 99.5 -41.5t81 -47.5t90.5 -64q144 -105 243 -105q23 0 39 3q-30 6 -50 30t-20 55z" />
    <glyph glyph-name="uniF222" unicode="&#xf222;" horiz-adv-x="562" 
d="M567 -118q0 29 21 49.5t51 20.5q32 0 53 -23t21 -52q0 -47 -48 -87t-119 -40q-92 0 -156.5 61t-64.5 162v101q-70 -84 -155 -84q-58 0 -96 34t-38 89q0 66 51.5 101t142.5 59q82 19 95 22v80q0 53 -28.5 80.5t-69.5 27.5q-45 0 -81 -29q25 -5 41 -24.5t16 -45.5
q0 -30 -21 -51t-51 -21t-51 21t-21 51q0 48 54 87t137 39q99 0 165 -54t66 -154v-397q0 -67 27 -96t69 -29q20 0 41 10t29 22q-34 0 -57 18t-23 52zM325 110v159q-31 -8 -51.5 -15.5t-43.5 -21.5t-35 -36.5t-12 -52.5q0 -31 17 -53.5t45 -22.5q20 0 43 12.5t37 30.5z" />
    <glyph glyph-name="uniF223" unicode="&#xf223;" horiz-adv-x="1084" 
d="M551 594q0 76 -41 113.5t-109 37.5q-58 0 -94 -32t-36 -73q0 -75 99 -140q89 -57 89 -110q0 -31 -19.5 -52.5t-49.5 -21.5q-28 0 -48.5 20t-20.5 49q0 25 16.5 44.5t40.5 23.5q-5 9 -29.5 20.5t-56.5 11.5q-73 0 -105.5 -72.5t-13.5 -168.5q15 -74 63.5 -125t117.5 -51
q26 0 54.5 13t46.5 34l19 -12q-7 -13 -22 -29.5t-39.5 -36.5t-62.5 -33.5t-80 -13.5q-108 0 -178.5 74t-70.5 185q-1 106 75.5 183.5t191.5 77.5q14 0 32 -3q-74 55 -74 132q0 53 42 92t115 39q37 0 96.5 -19.5t98.5 -19.5q55 0 85 39h24v-298q54 38 116 38q103 0 173 -74
t68 -183q-2 -119 -73.5 -191t-161.5 -72q-57 0 -107.5 25.5t-73.5 55.5q-10 -14 -39.5 -39.5t-43.5 -31.5l-21 9q7 45 7 180v405zM707 175q0 -56 37 -107.5t83 -51.5q81 0 81 147q0 58 -10 106q-17 81 -55 138.5t-83 57.5q-24 0 -53 -22v-268z" />
    <glyph glyph-name="uniF224" unicode="&#xf224;" horiz-adv-x="1131" 
d="M551 594q0 76 -41 113.5t-109 37.5q-58 0 -94 -32t-36 -73q0 -75 99 -140q89 -57 89 -110q0 -31 -19.5 -52.5t-49.5 -21.5q-28 0 -48.5 20t-20.5 49q0 25 16.5 44.5t40.5 23.5q-5 9 -29.5 20.5t-56.5 11.5q-73 0 -105.5 -72.5t-13.5 -168.5q15 -74 63.5 -125t117.5 -51
q26 0 54.5 13t46.5 34l19 -12q-7 -13 -22 -29.5t-39.5 -36.5t-62.5 -33.5t-80 -13.5q-108 0 -178.5 74t-70.5 185q-1 106 75.5 183.5t191.5 77.5q14 0 32 -3q-74 55 -74 132q0 53 42 92t115 39q37 0 96.5 -19.5t98.5 -19.5q55 0 85 39h24v-340q104 80 176 80q80 0 120 -50
t40 -142v-233q0 -36 22 -50q10 -7 24.5 -10.5t20.5 -6.5q4 -3 5.5 -9.5t-0.5 -8.5q-10 -2 -22.5 -1t-52 3.5t-73.5 2.5t-73.5 -2.5t-52 -3.5t-22.5 1q-2 2 -1 8.5t6 9.5q6 4 19 7.5t23 9.5q21 15 21 50v253q0 108 -76 108q-44 0 -104 -46v-315q0 -37 21 -50q10 -6 23 -10
t19 -8q4 -3 5.5 -9t-0.5 -8q-10 -2 -21.5 -1t-50.5 3.5t-73 2.5t-74 -2.5t-53 -3.5t-23 1q-2 2 -1 8t6 9q6 4 20.5 8t24.5 10q21 15 21 50v509z" />
    <glyph glyph-name="uniF225" unicode="&#xf225;" horiz-adv-x="1080" 
d="M551 596q0 75 -41 112t-109 37q-58 0 -94 -32t-36 -73q0 -75 99 -140q89 -57 89 -110q0 -31 -19.5 -52.5t-49.5 -21.5q-28 0 -48.5 20t-20.5 49q0 25 16.5 44.5t40.5 23.5q-5 9 -29.5 20.5t-56.5 11.5q-73 0 -105.5 -72.5t-13.5 -168.5q15 -74 63.5 -125t117.5 -51
q26 0 54.5 13t46.5 34l19 -12q-7 -13 -22 -29.5t-39.5 -36.5t-62.5 -33.5t-80 -13.5q-108 0 -178.5 74t-70.5 185q-1 106 75.5 183.5t191.5 77.5q14 0 32 -3q-74 55 -74 132q0 53 42 92t115 39q37 0 96.5 -19.5t98.5 -19.5q55 0 85 39h24v-502q86 69 153 143q32 34 18 51
q-7 8 -25 12.5t-23 8.5q-5 3 -6 9t1 8q8 2 15.5 1t38.5 -3t60 -2t60 2t38.5 3t15.5 -1q3 -2 1.5 -8t-7.5 -9q-3 -3 -11 -5.5t-22.5 -7t-27.5 -9.5q-43 -17 -96 -65q-19 -16 -45.5 -40.5t-35.5 -32.5l195 -238q30 -36 53 -50q10 -6 23 -9.5t19 -7.5q4 -3 5.5 -9.5t-0.5 -8.5
q-9 -2 -17 -1.5t-39.5 2.5t-59.5 2q-17 0 -42.5 -1.5t-37.5 -2.5t-24 1q-14 3 -37 36l-140 187v-138q0 -37 21 -50q10 -6 23 -10t19 -8q4 -3 5.5 -9t-0.5 -8q-10 -2 -21.5 -1t-51 3.5t-72.5 2.5t-74 -2.5t-53.5 -3.5t-22.5 1q-2 2 -1 8t6 9q6 4 20.5 8t24.5 10q21 15 21 50
v511z" />
    <glyph glyph-name="uniF226" unicode="&#xf226;" horiz-adv-x="796" 
d="M271 640q0 -75 99 -140q89 -57 89 -110q0 -31 -19.5 -52.5t-49.5 -21.5q-28 0 -48.5 20t-20.5 49q0 25 16.5 44.5t40.5 23.5q-5 9 -29.5 20.5t-56.5 11.5q-73 0 -105.5 -72.5t-13.5 -168.5q15 -74 63.5 -125t117.5 -51q26 0 54.5 13t46.5 34l19 -12q-7 -13 -22 -29.5
t-39.5 -36.5t-62.5 -33.5t-80 -13.5q-108 0 -178.5 74t-70.5 185q-1 106 75.5 183.5t191.5 77.5q14 0 32 -3q-74 55 -74 132q0 53 42 92t115 39q37 0 96.5 -19.5t98.5 -19.5q55 0 85 39h24v-685q0 -37 21 -50q10 -6 23 -10t19 -8q4 -3 5.5 -9t-0.5 -8q-10 -2 -21.5 -1
t-50.5 3.5t-73 2.5t-74 -2.5t-53 -3.5t-23 1q-2 2 -1 8t6 9q6 4 20.5 8t24.5 10q21 15 21 50v509q0 74 -41.5 112.5t-108.5 38.5q-58 0 -94 -32t-36 -73z" />
    <glyph glyph-name="uniF227" unicode="&#xf227;" horiz-adv-x="833" 
d="M459 385q0 -29 -19.5 -49t-49.5 -20q-28 0 -48.5 20t-20.5 49q0 25 16.5 44.5t40.5 23.5q-5 9 -29.5 20.5t-56.5 11.5q-73 0 -105.5 -72.5t-13.5 -168.5q15 -74 63.5 -125t117.5 -51q26 0 54.5 13t46.5 34l19 -12q-7 -13 -22 -29.5t-39.5 -36.5t-62.5 -33.5t-80 -13.5
q-108 0 -178.5 74t-70.5 185q-1 106 75.5 183.5t191.5 77.5q31 0 53 -10q-41 46 -41 107q0 66 58 114.5t147 48.5q86 0 143 -42t57 -110v-118h101q5 -14 -6 -22q-12 -8 -56 -8h-39v-368q0 -60 43 -60q25 0 47 22l18 -12q-47 -62 -134 -62q-64 0 -97 40.5t-33 114.5v273
q0 32 -24 48q-9 6 -23.5 10t-18.5 6q-9 8 -5 18q87 3 144.5 34t57.5 82q0 53 -46 91t-130 38q-81 0 -129.5 -42t-48.5 -96q0 -53 49 -108q2 -2 29.5 -25t41 -43.5t13.5 -45.5z" />
    <glyph glyph-name="uniF228" unicode="&#xf228;" horiz-adv-x="604" 
d="M614 -118q0 29 20.5 49.5t51.5 20.5t52.5 -23t21.5 -52q0 -48 -48.5 -87.5t-119.5 -39.5q-92 0 -156 61t-64 162v67q-63 -50 -130 -50q-92 0 -157.5 75t-63.5 182q2 120 75.5 191.5t163.5 71.5q64 0 112 -32v118q0 31 -20 46q-8 6 -20.5 10t-17.5 8q-10 6 -5 18
q139 0 197 92h22v-865q0 -67 27 -96t69 -29q20 0 40 10t29 22h-8q-30 0 -51 20.5t-20 49.5zM372 70v280q-3 51 -44 96t-85 36q-30 -6 -47 -32.5t-20.5 -65t-1 -75t9.5 -72.5q18 -84 57 -134.5t83 -50.5q23 0 48 18z" />
    <glyph glyph-name="uniF229" unicode="&#xf229;" horiz-adv-x="349" 
d="M255 646q-1 29 20 49.5t51 20.5h8q-19 29 -64 29q-40 0 -71.5 -28t-31.5 -79q0 -41 21 -77.5t51 -60.5h125q4 -15 -6 -22q-11 -8 -56 -8h-63v-470q0 -116 -64.5 -183t-154.5 -67q-55 0 -94.5 30.5t-39.5 74.5q0 29 21 52t52 23t52 -20.5t21 -49.5t-19.5 -49t-48.5 -21
q19 -15 45 -15q31 0 52.5 24.5t21.5 76.5v594h-75q-7 14 6 22q10 8 56 8h13v7q0 123 54.5 193t133.5 70q56 0 92 -33.5t36 -80.5q0 -34 -20 -57t-52 -23q-29 0 -50.5 20.5t-21.5 49.5z" />
    <glyph glyph-name="uniF230" unicode="&#xf230;" horiz-adv-x="539" 
d="M26 319q0 84 62 137.5t166 53.5q59 0 108 -20q45 78 115 141t142 63q31 0 52 -21t21 -50q0 -30 -21 -50.5t-50 -20.5t-50 20.5t-21 49.5q0 12 3 21q-47 -15 -92 -62t-76 -101q99 -54 99 -155q0 -85 -63.5 -138.5t-166.5 -53.5q-65 0 -113 21q-26 -12 -26 -27
q0 -13 41 -23t157 -31q110 -21 156.5 -55.5t46.5 -92.5q0 -67 -71.5 -121t-187.5 -54q-87 0 -152 32t-65 91q0 30 21 51t51 21t51 -21t21 -51q0 -24 -15 -43t-37 -26q36 -29 128 -29q73 0 111 21t38 49q0 26 -39.5 46.5t-126.5 46.5q-114 33 -162.5 59.5t-48.5 69.5
q0 30 23.5 57t58.5 44q-88 53 -88 151zM178 322q12 -75 38 -118t64 -43q32 0 48 45t4 116q-12 73 -40.5 116.5t-64.5 43.5q-32 0 -46.5 -45t-2.5 -115z" />
    <glyph glyph-name="uniF231" unicode="&#xf231;" horiz-adv-x="825" 
d="M40 -127q0 30 21 51t51 21t51 -21t21 -51q0 -25 -15.5 -44.5t-38.5 -25.5q15 -12 52 -20t78 -8q72 0 109.5 25t35.5 54q-3 26 -34.5 41t-124.5 42q-2 1 -3 1q-116 34 -161 57.5t-45 66.5q0 32 22.5 60t55.5 45q-90 53 -90 152q0 84 62.5 137.5t166.5 53.5q57 0 108 -19
q45 80 136 159.5t166 79.5q36 0 62 -25t26 -61t-25 -61t-61 -25t-61.5 25t-25.5 61q0 13 5 30q-53 -26 -111 -83.5t-88 -110.5q46 -24 72 -64.5t26 -90.5q0 -85 -63 -138.5t-166 -53.5q-62 0 -112 21q-23 -15 -23 -27q0 -28 194 -54q107 -14 152 -51t45 -97
q0 -68 -67.5 -121.5t-185.5 -53.5q-87 0 -152 32t-65 91zM594 346q0 35 -20 48q-8 6 -20.5 10.5t-17.5 8.5q-10 6 -5 18q61 0 115.5 20.5t81.5 58.5h22v-425q0 -37 21 -50q10 -7 23 -10.5t19 -6.5q5 -3 6 -9.5t-1 -8.5q-10 -2 -21.5 -1t-50.5 3.5t-73 2.5t-74 -2.5t-53 -3.5
t-23 1q-2 2 -0.5 8.5t5.5 9.5q6 3 20.5 6.5t24.5 10.5q21 14 21 50v261zM178 322q12 -75 38 -118t64 -43q32 0 48 45t4 116q-12 73 -40.5 116.5t-64.5 43.5q-32 0 -46.5 -45t-2.5 -115z" />
    <glyph glyph-name="uniF232" unicode="&#xf232;" horiz-adv-x="663" 
d="M575 -95q0 -67 27 -96t69 -29q20 0 41 10t29 22q-34 0 -57 18t-23 52q0 29 21 49.5t51 20.5q32 0 53 -23t21 -52q0 -47 -48 -87t-119 -40q-92 0 -156.5 61t-64.5 162v365q0 108 -76 108q-44 0 -104 -46v-315q0 -37 21 -50q10 -6 23.5 -9.5t18.5 -7.5q5 -3 6 -9.5t-1 -8.5
q-10 -2 -21.5 -1t-50.5 3.5t-73 2.5t-74 -2.5t-53 -3.5t-23 1q-2 2 -0.5 8.5t5.5 9.5q6 4 20.5 7.5t24.5 9.5q21 13 21 50v511q0 31 -20 46q-8 6 -20.5 10t-17.5 8q-10 6 -5 18q139 0 197 92h22v-340q104 80 177 80q79 0 119 -50t40 -142v-413z" />
    <glyph glyph-name="uniF233" unicode="&#xf233;" 
d="M78 644q0 36 25.5 61t61.5 25t61 -25t25 -61t-25 -61t-61 -25t-61.5 25t-25.5 61zM335 -118q0 29 21 49.5t51 20.5q31 0 52.5 -23t21.5 -52q0 -47 -48.5 -87t-118.5 -40q-92 0 -156.5 61t-64.5 162v372q0 36 -20 49q-8 6 -20.5 10.5t-17.5 8.5q-10 6 -5 18
q61 0 115.5 20.5t81.5 58.5h22v-605q0 -67 27 -96t69 -29q20 0 40 10t29 22q-34 0 -56.5 18t-22.5 52z" />
    <glyph glyph-name="uniF234" unicode="&#xf234;" horiz-adv-x="613" 
d="M710 -118q0 29 21 49.5t52 20.5t52.5 -23t21.5 -52q0 -41 -33 -71t-93 -30q-159 0 -338 241l-154 206v-138q0 -37 21 -50q10 -6 23.5 -9.5t18.5 -7.5q5 -3 6 -9.5t-1 -8.5q-10 -2 -21.5 -1t-50.5 3.5t-73 2.5t-74 -2.5t-53 -3.5t-23 1q-2 2 -0.5 8.5t5.5 9.5
q6 4 20.5 7.5t24.5 9.5q21 13 21 50v511q0 31 -20 46q-8 6 -20.5 10t-17.5 8q-10 6 -5 18q139 0 197 92h22v-502q84 67 154 143q31 34 17 51q-7 8 -25.5 12.5t-22.5 7.5q-5 3 -6 9.5t1 8.5q8 2 15.5 1t39 -3t60.5 -2t60 2t38.5 3t15.5 -1q6 -9 -6 -17q-4 -3 -12 -5.5t-22 -7
t-27 -9.5q-44 -17 -97 -65q-31 -27 -82 -74l217 -312q69 -100 119 -151.5t91 -50.5q11 0 19 4q-32 0 -54 19.5t-22 50.5z" />
    <glyph glyph-name="uniF235" unicode="&#xf235;" horiz-adv-x="613" 
d="M677 -127q0 29 21 49.5t51 20.5q31 0 51.5 -23t20.5 -52q0 -47 -34.5 -82.5t-90.5 -35.5q-61 0 -109 42t-123 140l-225 292v-139q0 -37 21 -50q10 -6 23.5 -9.5t18.5 -7.5q5 -3 6 -9.5t-1 -8.5q-10 -2 -21.5 -1t-50.5 3.5t-73 2.5t-74 -2.5t-53 -3.5t-23 1q-2 2 -0.5 8.5
t5.5 9.5q6 4 20.5 7.5t24.5 9.5q21 13 21 50v511q0 31 -20 46q-8 6 -20.5 10t-17.5 8q-10 6 -5 18q139 0 197 92h22v-502q84 67 154 143q31 34 17 51q-7 8 -25.5 12.5t-22.5 7.5t-5.5 9.5t0.5 8.5q8 2 15.5 1t39 -3t60.5 -2t60 2t38.5 3t15.5 -1q6 -9 -6 -17q-4 -3 -12 -5.5
t-22 -7t-27 -9.5q-44 -17 -97 -65q-17 -15 -43.5 -39t-37.5 -34l267 -323q-37 -64 -28.5 -114t42 -80.5t75.5 -30.5q18 0 36 8t25 20q-35 0 -58 18t-23 52z" />
    <glyph glyph-name="uniF236" unicode="&#xf236;" 
d="M316 -118q0 29 21 49.5t51 20.5q32 0 53 -23t21 -52q0 -47 -48.5 -87t-118.5 -40q-92 0 -156.5 61t-64.5 162v619q0 36 -20 49q-9 7 -21 11.5t-17 7.5q-10 6 -5 18q139 0 197 92h22v-865q0 -67 27 -96t69 -29q20 0 40 10t29 22q-34 0 -56.5 18t-22.5 52z" />
    <glyph glyph-name="uniF237" unicode="&#xf237;" horiz-adv-x="988" 
d="M985 -118q0 29 21 49.5t51 20.5q31 0 52.5 -23t21.5 -52q0 -48 -48.5 -87.5t-118.5 -39.5q-92 0 -156.5 61t-64.5 162v365q0 108 -78 108q-35 0 -100 -52q9 -33 9 -76v-233q0 -36 22 -50q10 -6 25 -9.5t20 -7.5q5 -3 6 -9.5t-1 -8.5q-10 -2 -22.5 -1t-52 3.5t-73.5 2.5
t-73.5 -2.5t-52 -3.5t-22.5 1q-2 2 -0.5 8.5t5.5 9.5q6 4 19 7.5t23 9.5q21 14 21 50v253q0 108 -78 108q-33 0 -91 -45v-316q0 -37 21 -50q10 -6 23.5 -9.5t18.5 -7.5q5 -3 6 -9.5t-1 -8.5q-10 -2 -21.5 -1t-50.5 3.5t-73 2.5t-74 -2.5t-53 -3.5t-23 1q-2 2 -0.5 8.5
t5.5 9.5q6 4 20.5 7.5t24.5 9.5q21 13 21 50v260q0 36 -20 49q-8 6 -20.5 10.5t-17.5 8.5q-10 6 -5 18q61 0 115.5 20.5t81.5 58.5h22v-79q93 79 160 79q113 0 149 -93q105 93 176 93q82 0 123.5 -50t41.5 -142v-413q0 -67 27 -96t69 -29q20 0 40 10t29 22q-34 0 -56.5 18
t-22.5 52z" />
    <glyph glyph-name="uniF238" unicode="&#xf238;" horiz-adv-x="669" 
d="M666 -118q0 29 21 49.5t51 20.5q31 0 52.5 -23t21.5 -52q0 -48 -48.5 -87.5t-118.5 -39.5q-92 0 -156.5 61t-64.5 162v365q0 108 -74 108q-41 0 -101 -44v-317q0 -37 21 -50q10 -6 23.5 -9.5t18.5 -7.5q5 -3 6 -9.5t-1 -8.5q-10 -2 -21.5 -1t-50.5 3.5t-73 2.5t-74 -2.5
t-53 -3.5t-23 1q-2 2 -0.5 8.5t5.5 9.5q6 4 20.5 7.5t24.5 9.5q21 13 21 50v260q0 36 -20 49q-8 6 -20.5 10.5t-17.5 8.5q-10 6 -5 18q61 0 115.5 20.5t81.5 58.5h22v-80q102 80 174 80q78 0 117.5 -50t39.5 -142v-413q0 -67 27 -96t69 -29q20 0 40 10t29 22q-34 0 -56.5 18
t-22.5 52z" />
    <glyph glyph-name="uniF239" unicode="&#xf239;" horiz-adv-x="484" 
d="M535 664q31 0 52 -21t21 -50q0 -30 -20.5 -51t-50.5 -21q-29 0 -50 21t-21 55q-54 -25 -120 -122t-97 -170v-220q0 -37 21 -50q10 -6 23.5 -9.5t18.5 -7.5q5 -3 6 -9.5t-1 -8.5q-10 -2 -21.5 -1t-50.5 3.5t-73 2.5t-74 -2.5t-53 -3.5t-23 1q-2 2 -0.5 8.5t5.5 9.5
q6 4 20.5 7.5t24.5 9.5q21 13 21 50v260q0 36 -20 49q-8 6 -20.5 10.5t-17.5 8.5q-10 6 -5 18q61 0 115.5 20.5t81.5 58.5h22v-150q20 40 49.5 86.5t69 98t84.5 85.5t83 34z" />
    <glyph glyph-name="uniF23A" unicode="&#xf23a;" horiz-adv-x="894" 
d="M424 510q37 0 63 -13q35 13 92 13q115 0 175 -55t60 -153v-172q0 -70 29 -70q15 0 39 24l17 -12q-50 -82 -122 -82q-42 0 -71.5 24.5t-40.5 68.5q-73 -93 -162 -93q-57 0 -95.5 34.5t-38.5 85.5q0 36 15.5 63.5t45.5 46t60.5 30.5t73.5 23q9 2 44.5 10t49.5 12v75
q0 55 -28.5 85.5t-78.5 30.5q-23 0 -35 -5q39 -34 39 -80q0 -34 -22 -54t-55 -20t-54.5 20.5t-21.5 53.5q0 54 47 80q-12 5 -30 5q-51 0 -101.5 -40.5t-68.5 -84.5v-276q0 -37 21 -50q10 -6 23.5 -9.5t18.5 -7.5q5 -3 6 -9.5t-1 -8.5q-10 -2 -21.5 -1t-50.5 3.5t-73 2.5
t-74 -2.5t-53 -3.5t-23 1q-2 2 -0.5 8.5t5.5 9.5q6 3 20.5 6.5t24.5 10.5q21 13 21 50v261q0 34 -20 49q-8 5 -20.5 9.5t-17.5 8.5q-10 6 -5 18q61 0 115.5 20.5t81.5 58.5h22v-93q31 38 77.5 65.5t97.5 27.5zM660 108q-2 20 -2 30v131q-61 -19 -80 -28q-62 -30 -62 -98
q0 -30 17.5 -52.5t48.5 -23.5q19 -1 42 11.5t36 29.5z" />
    <glyph glyph-name="uniF23B" unicode="&#xf23b;" horiz-adv-x="646" 
d="M486 558q-36 0 -61 25t-25 66q-27 -27 -79.5 -126t-71.5 -148v-290q0 -37 21 -50q10 -6 23.5 -9.5t18.5 -7.5q5 -3 6 -9.5t-1 -8.5q-10 -2 -21.5 -1t-50.5 3.5t-73 2.5t-74 -2.5t-53 -3.5t-23 1q-2 2 -0.5 8.5t5.5 9.5q6 3 20.5 6.5t24.5 10.5q21 13 21 50v261
q0 34 -20 49q-8 5 -20.5 9.5t-17.5 8.5q-10 6 -5 18q61 0 115.5 20.5t81.5 58.5h22v-70q27 64 84 159q77 131 153 131q36 0 61.5 -25t25.5 -61t-25.5 -61t-61.5 -25zM415 346q0 34 -20 49q-8 5 -20 9.5t-17 8.5q-10 6 -5 18q61 0 115 20.5t82 58.5h22l-1 -425q0 -35 21 -50
q11 -6 24 -9.5t18 -7.5t6.5 -10t-1.5 -8q-10 -2 -21.5 -1t-50.5 3.5t-73 2.5t-74 -2.5t-53 -3.5t-23 1q-6 9 6 18q5 4 19.5 7.5t24.5 9.5q21 14 21 50v261z" />
    <glyph glyph-name="uniF23C" unicode="&#xf23c;" horiz-adv-x="613" 
d="M486 558q-36 0 -61 25.5t-25 62.5q-84 -91 -151 -332v-229q0 -37 21 -50q10 -6 23.5 -9.5t18.5 -7.5q5 -3 6 -9.5t-1 -8.5q-10 -2 -21.5 -1t-50.5 3.5t-73 2.5t-74 -2.5t-53 -3.5t-23 1q-2 2 -0.5 8.5t5.5 9.5q6 3 20.5 6.5t24.5 10.5q21 13 21 50v261q0 34 -20 49
q-8 5 -20.5 9.5t-17.5 8.5q-10 6 -5 18q61 0 115.5 20.5t81.5 58.5h22v-121q16 49 34.5 95t49.5 108t71 100t82 38q36 0 61.5 -25t25.5 -61t-25.5 -61t-61.5 -25zM415 346q0 34 -20 49q-8 5 -20.5 9.5t-17.5 8.5q-9 7 -5 18q62 0 116 20.5t81 58.5h22v-453q0 -79 -12 -124
t-46 -86q-29 -36 -76.5 -62t-85.5 -35l-11 22q40 26 57.5 64.5t17.5 116.5v393z" />
    <glyph glyph-name="uniF23D" unicode="&#xf23d;" horiz-adv-x="1060" 
d="M527 590q0 76 -39.5 115.5t-111.5 39.5q-55 0 -94.5 -31.5t-39.5 -79.5q0 -25 8 -46t29.5 -41.5t30 -27.5t37.5 -27q71 -49 71 -92q0 -27 -17 -45t-43 -18q-27 0 -47 17.5t-20 43.5q0 22 14 40t34 24q-28 23 -87 23q-35 0 -60.5 -17t-26.5 -43q0 -20 21 -41t42.5 -33.5
t59.5 -31.5q74 -39 114 -78t40 -93q1 -67 -58.5 -112.5t-146.5 -45.5q-83 0 -139.5 36t-56.5 87q0 28 19 49t46 21q28 0 47.5 -19.5t19.5 -47.5q0 -25 -16.5 -44t-41.5 -22q39 -35 118 -35q50 0 77 19t27 43q0 26 -29 49t-87 53q-86 44 -124.5 85.5t-37.5 93.5
q1 62 51.5 107t141.5 45q18 0 35 -3q-70 51 -70 124q0 60 45 99.5t118 39.5q49 0 103.5 -19.5t88.5 -19.5q62 0 89 39h22v-298q55 38 116 38q104 0 173.5 -74t67.5 -183q-2 -119 -73.5 -191t-161.5 -72q-57 0 -107.5 25.5t-73.5 55.5q-10 -14 -39.5 -39.5t-43.5 -31.5l-21 9
q7 45 7 180v401zM683 175q0 -56 37 -107.5t83 -51.5q81 0 81 147q0 58 -10 106q-17 81 -55 138.5t-83 57.5q-24 0 -53 -22v-268z" />
    <glyph glyph-name="uniF23E" unicode="&#xf23e;" horiz-adv-x="1107" 
d="M527 590q0 76 -39.5 115.5t-111.5 39.5q-55 0 -94.5 -31.5t-39.5 -79.5q0 -25 8 -46t29.5 -41.5t30 -27.5t37.5 -27q71 -49 71 -92q0 -27 -17 -45t-43 -18q-27 0 -47 17.5t-20 43.5q0 22 13.5 40t34.5 24q-29 23 -87 23q-35 0 -60.5 -17t-26.5 -43q0 -15 9.5 -30
t30.5 -29t38 -23.5t45 -23.5q74 -38 113.5 -77.5t40.5 -93.5q0 -67 -59.5 -112.5t-146.5 -45.5q-82 0 -139 36t-57 87q0 28 19.5 49t46.5 21q28 0 47.5 -19.5t19.5 -47.5q0 -25 -16.5 -44t-41.5 -22q39 -35 118 -35q50 0 77 19t27 43q0 26 -29 49t-87 53q-86 44 -124.5 85.5
t-37.5 93.5q1 63 51 107.5t141 44.5q19 0 36 -3q-70 51 -70 124q0 60 45 99.5t118 39.5q49 0 103.5 -19.5t88.5 -19.5q62 0 89 39h22v-340q104 80 177 80q79 0 119 -50t40 -142v-233q0 -36 22 -50q10 -7 24.5 -10.5t20.5 -6.5q5 -3 6 -9.5t-1 -8.5q-10 -2 -22.5 -1t-52 3.5
t-73.5 2.5t-73.5 -2.5t-52 -3.5t-22.5 1q-2 2 -1 8.5t6 9.5q6 4 19 7.5t23 9.5q21 14 21 50v253q0 108 -76 108q-44 0 -104 -46v-315q0 -37 21 -50q10 -6 23.5 -9.5t18.5 -7.5q5 -3 6 -9.5t-1 -8.5q-10 -2 -21.5 -1t-50.5 3.5t-73 2.5t-74 -2.5t-53 -3.5t-23 1q-2 2 -1 8.5
t6 9.5q6 4 20.5 7.5t24.5 9.5q21 14 21 50v505z" />
    <glyph glyph-name="uniF23F" unicode="&#xf23f;" horiz-adv-x="1057" 
d="M527 590q0 76 -39.5 115.5t-111.5 39.5q-55 0 -94.5 -31.5t-39.5 -79.5q0 -25 8 -46t29.5 -41.5t30 -27.5t37.5 -27q71 -49 71 -91q0 -27 -17 -45.5t-43 -18.5q-27 0 -47 17.5t-20 43.5q0 22 13.5 40t34.5 24q-28 23 -87 23q-35 0 -60.5 -17t-26.5 -43q0 -20 21 -41
t42.5 -33.5t59.5 -31.5q74 -39 114 -78t40 -93q1 -67 -58.5 -112.5t-146.5 -45.5q-83 0 -139.5 36t-56.5 87q0 28 19 49t46 21q28 0 47.5 -19.5t19.5 -47.5q0 -25 -16.5 -44t-41.5 -22q39 -35 118 -35q50 0 77 19t27 43q0 26 -29 49t-87 53q-86 44 -124.5 85.5t-37.5 93.5
q1 62 51.5 107t141.5 45q20 0 35 -3q-70 51 -70 124q0 60 45 99.5t118 39.5q49 0 104 -19.5t88 -19.5q62 0 89 39h22v-502q84 67 154 143q31 34 17 51q-6 8 -24.5 13t-23.5 8q-4 3 -5.5 9t0.5 8q8 2 15.5 1t39 -3t60.5 -2t60 2t38.5 3t15.5 -1q6 -9 -6 -17q-4 -3 -12 -5.5
t-22 -7t-27 -9.5q-44 -17 -97 -65q-17 -15 -43.5 -39t-37.5 -34l195 -238q29 -35 53 -50q10 -6 23 -9.5t19 -7.5q5 -3 6 -9.5t-1 -8.5q-8 -2 -16.5 -1.5t-39.5 2.5t-59 2q-17 0 -43 -1.5t-37.5 -2.5t-24.5 1q-12 3 -37 36l-140 187v-138q0 -36 22 -50q10 -6 23 -9.5t18 -7.5
t6.5 -10t-1.5 -8q-10 -2 -21.5 -1t-50.5 3.5t-73 2.5t-74 -2.5t-52.5 -3.5t-22.5 1q-3 2 -1.5 8t6.5 10t19.5 7.5t24.5 9.5q21 14 21 50v505z" />
    <glyph glyph-name="uniF240" unicode="&#xf240;" horiz-adv-x="773" 
d="M418 401q0 -27 -17 -45.5t-43 -18.5q-27 0 -47 17.5t-20 43.5q0 22 13.5 40t34.5 24q-28 23 -87 23q-35 0 -60.5 -17t-26.5 -43q0 -20 21 -41t42.5 -33.5t59.5 -31.5q74 -39 114 -78t40 -93q1 -67 -58.5 -112.5t-146.5 -45.5q-83 0 -139.5 36t-56.5 87q0 28 19 49t46 21
q28 0 47.5 -19.5t19.5 -47.5q0 -25 -16.5 -44t-41.5 -22q39 -35 118 -35q50 0 77 19t27 43q0 26 -29 49t-87 53q-86 44 -124.5 85.5t-37.5 93.5q1 62 51.5 107t141.5 45q20 0 35 -3q-70 51 -70 124q0 60 45 99.5t118 39.5q49 0 104 -19.5t88 -19.5q62 0 89 39h22v-685
q0 -36 22 -50q10 -6 23 -9.5t18 -7.5t6.5 -10t-1.5 -8q-10 -2 -21.5 -1t-50.5 3.5t-73 2.5t-74 -2.5t-52.5 -3.5t-22.5 1q-3 2 -1.5 8t6.5 10t19.5 7.5t24.5 9.5q21 14 21 50v505q0 76 -39.5 115.5t-111.5 39.5q-55 0 -94.5 -31.5t-39.5 -79.5q0 -25 8 -46t29.5 -41.5
t30 -27.5t37.5 -27q71 -49 71 -91z" />
    <glyph glyph-name="uniF241" unicode="&#xf241;" horiz-adv-x="351" 
d="M262 470h-39v-565q0 -67 27 -96t69 -29q20 0 40 10t29 22q-34 0 -57 18t-23 52q0 29 21 49.5t52 20.5t52.5 -23t21.5 -52q0 -48 -48.5 -87.5t-119.5 -39.5q-92 0 -156 61t-64 162v445q0 32 -24 48q-9 6 -23.5 10t-18.5 7q-10 6 -5 18q75 0 130.5 39.5t74.5 94.5h22v-135
h101q4 -15 -6 -22q-11 -8 -56 -8z" />
    <glyph glyph-name="uniF242" unicode="&#xf242;" horiz-adv-x="351" 
d="M67 418q0 32 -24 48q-9 6 -23.5 10t-18.5 6q-10 6 -5 18q75 0 130.5 40t74.5 95h22v-103q52 23 114 67.5t108 72.5t85 28q31 0 52 -20.5t21 -50.5q0 -29 -20.5 -50t-50.5 -21q-29 0 -50 21t-21 50q0 6 2 12q-26 -7 -105 -62t-135 -78v-399q0 -60 43 -60q25 0 47 22
l18 -12q-47 -62 -134 -62q-64 0 -97 40.5t-33 114.5v273z" />
    <glyph glyph-name="uniF243" unicode="&#xf243;" horiz-adv-x="978" 
d="M262 470h-39v-368q0 -60 43 -60q25 0 47 22l18 -12q-47 -62 -134 -62q-64 0 -97 40.5t-33 114.5v273q0 32 -24 48q-9 6 -23.5 10t-18.5 7q-10 6 -5 18q46 0 86.5 14.5t63.5 39.5q19 21 30.5 46t22 56.5t17.5 46.5q29 66 95 66q28 0 70 -18.5t74 -18.5q49 0 74 37h24v-340
q104 80 177 80q79 0 119 -50t40 -142v-233q0 -36 22 -50q10 -6 25 -9.5t20 -7.5q5 -3 6 -9.5t-1 -8.5q-10 -2 -22.5 -1t-52 3.5t-73.5 2.5t-73.5 -2.5t-52 -3.5t-22.5 1q-2 2 -0.5 8.5t5.5 9.5q6 4 19 7.5t23 9.5q21 14 21 50v253q0 108 -76 108q-44 0 -104 -46v-315
q0 -37 21 -50q10 -6 23.5 -9.5t18.5 -7.5q5 -3 6 -9.5t-1 -8.5q-10 -2 -21.5 -1t-50.5 3.5t-73 2.5t-74 -2.5t-53 -3.5t-23 1q-2 2 -0.5 8.5t5.5 9.5q6 3 20.5 6.5t24.5 10.5q21 14 21 50v529q0 68 -25 99.5t-65 31.5q-37 0 -60.5 -36t-23.5 -117v-92h101q5 -14 -6 -22
q-12 -8 -56 -8z" />
    <glyph glyph-name="uniF244" unicode="&#xf244;" horiz-adv-x="668" 
d="M67 418q0 32 -24 48q-9 6 -23.5 10t-18.5 7q-10 6 -5 18q75 0 130.5 39.5t74.5 94.5h22v-135h90q80 0 133 39t72 96h22v-135h101q4 -15 -6 -22q-11 -8 -56 -8h-39v-368q0 -60 43 -60q25 0 47 22l18 -12q-46 -62 -134 -62q-64 0 -97 40.5t-33 114.5v277q0 25 -10.5 36.5
t-38.5 11.5h-112v-368q0 -60 43 -60q25 0 47 22l18 -12q-47 -62 -134 -62q-64 0 -97 40.5t-33 114.5v273z" />
    <glyph glyph-name="uniF245" unicode="&#xf245;" horiz-adv-x="635" 
d="M646 -118q0 29 21 49.5t51 20.5q32 0 53 -23t21 -52q0 -47 -48 -87t-119 -40q-92 0 -156.5 61t-64.5 162v93q-98 -76 -164 -76q-85 0 -124.5 52.5t-40.5 141.5v167q-1 37 -21 49q-7 6 -19.5 10.5t-17.5 8.5q-10 6 -5 18q129 0 197 73h22v-348q0 -108 78 -108q42 0 95 42
v255q0 36 -20 49q-8 6 -20.5 10.5t-17.5 8.5q-10 6 -5 18q130 0 197 73h22v-605q0 -67 27 -96t69 -29q20 0 41 10t29 22q-34 0 -57 18t-23 52z" />
    <glyph glyph-name="uniF246" unicode="&#xf246;" horiz-adv-x="530" 
d="M212 415l121 -288q63 180 166 361q20 35 27 46.5t32 47.5t43 52.5t46.5 32.5t55.5 16q31 0 52 -21t21 -50q0 -30 -20.5 -50.5t-50.5 -20.5q-29 0 -50 20.5t-21 54.5q-55 -37 -126.5 -168.5t-117 -245.5t-74.5 -202h-84l-183 396q-23 51 -46 67q-11 8 -23.5 12t-17.5 7
t-6 9.5t1 8.5q10 2 22.5 1t52.5 -3.5t74 -2.5t74 2.5t53 3.5t23 -1q5 -8 -5 -18q-5 -4 -15.5 -8.5t-17.5 -8.5q-22 -14 -6 -50z" />
    <glyph glyph-name="uniF247" unicode="&#xf247;" horiz-adv-x="788" 
d="M212 415l117 -280q51 194 99 318q47 127 73 172q59 105 128 105q36 0 61.5 -25t25.5 -61t-25.5 -61t-61.5 -25q-34 0 -58.5 22.5t-27.5 55.5q-38 -49 -92 -197q-30 -82 -73.5 -233.5t-61.5 -205.5h-84l-183 396q-23 51 -46 67q-11 8 -23.5 12t-17.5 7t-6 9.5t1 8.5
q10 2 22.5 1t52.5 -3.5t74 -2.5t74 2.5t53 3.5t23 -1q5 -8 -5 -18q-5 -4 -15.5 -8.5t-17.5 -8.5q-22 -14 -6 -50zM558 346q0 34 -21 49q-7 5 -19.5 9.5t-17.5 8.5q-10 6 -5 18q61 0 115 20.5t82 58.5h22v-425q0 -37 21 -50q10 -6 23 -9.5t18 -7.5q12 -9 6 -18
q-10 -2 -21.5 -1t-50.5 3.5t-73 2.5t-74 -2.5t-53 -3.5t-23 1q-3 2 -1.5 8t6.5 10t19.5 7.5t25.5 9.5q21 15 21 50v261z" />
    <glyph glyph-name="uniF248" unicode="&#xf248;" horiz-adv-x="834" 
d="M996 683q31 0 52 -21t21 -50q0 -30 -20.5 -50.5t-50.5 -20.5q-31 0 -51 22t-20 54q-40 -24 -89.5 -104.5t-94 -186t-74 -184t-50.5 -142.5h-80l-108 273l-145 -273h-80l-157 396q-19 49 -46 67q-11 8 -23.5 12t-17.5 7t-6 9.5t1 8.5q10 2 21.5 1t50.5 -3.5t73 -2.5
t73.5 2.5t52 3.5t22.5 -1q5 -8 -5 -18q-5 -4 -15.5 -8.5t-17.5 -8.5q-20 -12 -6 -50l107 -311l104 205l-34 87q-19 49 -46 67q-12 8 -24 12t-17 7q-5 4 -6.5 10t1.5 8q10 2 21.5 1t50.5 -3.5t73 -2.5t73.5 2.5t52 3.5t21.5 -1q7 -7 -5 -18q-5 -4 -15.5 -8.5t-16.5 -8.5
q-20 -13 -7 -50l99 -284q44 123 123 297q18 41 39.5 79t52.5 81t68.5 69t74.5 26z" />
    <glyph glyph-name="uniF249" unicode="&#xf249;" horiz-adv-x="1092" 
d="M206 415l107 -310l104 204l-34 87q-19 49 -46 67q-11 8 -23.5 12t-17.5 7q-5 4 -6.5 10t1.5 8q10 2 21.5 1t50.5 -3.5t73 -2.5t73.5 2.5t52 3.5t22.5 -1q2 -2 1 -8t-6 -10t-15.5 -8.5t-17.5 -8.5q-20 -13 -7 -50l95 -274q50 186 97 312q2 5 12.5 32.5t15 39.5t16 39.5
t20 42t21.5 37.5t25 35.5t27 25.5t31.5 19t33.5 6q36 0 61.5 -25t25.5 -61t-25.5 -61t-61.5 -25q-34 0 -58.5 22.5t-27.5 55.5q-37 -47 -92 -197q-30 -82 -74 -234t-62 -205h-80l-108 273l-145 -273h-80l-157 396q-19 49 -46 67q-11 8 -23.5 12t-17.5 7t-6 9.5t1 8.5
q10 2 21.5 1t50.5 -3.5t73 -2.5t73.5 2.5t52 3.5t22.5 -1q5 -8 -5 -18q-5 -4 -15.5 -8.5t-17.5 -8.5q-20 -12 -6 -50zM861 346q0 34 -20 49q-8 5 -20 9.5t-17 8.5q-10 6 -5 18q61 0 115 20.5t82 58.5h22l-1 -425q0 -36 22 -50q10 -6 23 -9.5t18 -7.5t6.5 -10t-1.5 -8
q-10 -2 -21.5 -1t-50.5 3.5t-73 2.5t-74 -2.5t-52.5 -3.5t-22.5 1q-3 2 -1.5 8t6.5 10t19.5 7.5t24.5 9.5q21 14 21 50v261z" />
    <glyph glyph-name="uniF24A" unicode="&#xf24a;" horiz-adv-x="566" 
d="M692 -118q0 29 21 49.5t52 20.5t52.5 -23t21.5 -52q0 -38 -33 -68t-90 -30q-103 0 -209.5 85t-179.5 198l-87 134l-83 -103q-19 -24 -19 -39q0 -16 29 -25q7 -2 23.5 -5t21.5 -6q12 -8 5 -18q-8 -2 -16 -1t-38.5 3.5t-60.5 2.5t-60.5 -2.5t-38.5 -3.5t-16 1
q-1 1 -1.5 4.5t2 8t7.5 7.5q6 4 26.5 9.5t36.5 12.5q25 13 66 58l102 117l-128 198q-23 36 -51 51q-11 6 -23.5 9.5t-17.5 6.5q-11 8 -5 18q10 2 22.5 1t52.5 -3.5t74 -2.5t73.5 2.5t52 3.5t22.5 -1q7 -10 -6 -17q-25 -12 -29 -20q-7 -12 16 -48l57 -91l67 83q19 24 19 40
t-29 24q-6 2 -23 5.5t-22 6.5q-10 7 -5 18q8 2 16 1t39 -3.5t61 -2.5t60.5 2.5t38.5 3.5t16 -1q5 -14 -9 -20q-6 -4 -26 -9.5t-37 -13.5q-25 -12 -66 -57l-87 -99l153 -245q29 -47 47 -73.5t46.5 -65t50.5 -59t49.5 -36t53.5 -15.5q10 0 18 4q-32 -1 -53.5 19.5t-21.5 50.5z
" />
    <glyph glyph-name="uniF24B" unicode="&#xf24b;" horiz-adv-x="566" 
d="M648 -118q0 29 21 49.5t51 20.5q32 0 53 -23t21 -52q0 -51 -39 -89t-96 -38q-82 0 -147.5 61t-148.5 191l-124 193l-82 -102q-19 -24 -19 -39q0 -16 29 -25q7 -2 23.5 -5t21.5 -6t6.5 -9.5t-1.5 -8.5q-8 -2 -16 -1t-38.5 3.5t-60.5 2.5t-60.5 -2.5t-38.5 -3.5t-16 1
q-1 1 -1.5 4.5t2 8t7.5 7.5q6 4 26.5 9.5t36.5 12.5q28 14 66 58l102 116l-128 199q-23 36 -51 51q-11 6 -23.5 9.5t-17.5 6.5q-11 8 -5 18q10 2 22.5 1t52.5 -3.5t74 -2.5t73.5 2.5t52 3.5t22.5 -1q7 -10 -6 -17q-25 -12 -29 -20q-8 -13 16 -48l58 -91l66 83q20 25 20 40
q0 16 -30 24q-6 2 -23 5.5t-22 6.5q-10 7 -5 18q8 2 16 1t39 -3.5t61 -2.5t60.5 2.5t38.5 3.5t16 -1q2 -2 0.5 -9.5t-8.5 -10.5q-6 -4 -26.5 -9.5t-37.5 -13.5q-26 -12 -66 -57l-85 -98l194 -303q-33 -68 -19.5 -118t50.5 -78.5t79 -28.5q29 0 48.5 11t25.5 26
q-34 -3 -57.5 18t-23.5 52z" />
    <glyph glyph-name="uniF24C" unicode="&#xf24c;" horiz-adv-x="566" 
d="M693 541q-30 0 -50.5 20.5t-20.5 54.5q-10 -6 -22.5 -17t-22.5 -21t-25.5 -27t-23.5 -26t-25.5 -30l-22.5 -27q-17 -20 -130 -162l143 -221q23 -36 51 -51q11 -6 23.5 -9.5t17.5 -6.5q6 -4 7 -10t-2 -8q-10 -2 -22.5 -1t-52.5 3.5t-74 2.5t-73.5 -2.5t-52 -3.5t-22.5 1
q-7 10 6 17q25 12 29 20q8 13 -15 48l-73 111l-83 -103q-19 -24 -19 -39q0 -16 29 -25q7 -2 23.5 -5t21.5 -6q12 -8 5 -18q-8 -2 -16 -1t-38.5 3.5t-60.5 2.5t-60.5 -2.5t-38.5 -3.5t-16 1q-1 1 -1.5 4.5t2 8t7.5 7.5q6 4 26.5 9.5t36.5 12.5q28 14 66 58l103 117l-129 198
q-23 36 -51 51q-11 6 -23.5 9.5t-17.5 6.5q-6 4 -7 10t2 8q10 2 22.5 1t52.5 -3.5t74 -2.5t73.5 2.5t52 3.5t22.5 -1q7 -10 -6 -17q-25 -12 -29 -20q-8 -13 16 -48l56 -87q86 109 126 158q11 14 37 47t38.5 47.5t35 39t38.5 35t38 19.5t43 9q30 0 51.5 -21t21.5 -50
q0 -30 -21 -50.5t-50 -20.5z" />
    <glyph glyph-name="uniF24D" unicode="&#xf24d;" horiz-adv-x="508" 
d="M601 -118q0 29 21 49.5t51 20.5q31 0 52.5 -23t21.5 -52q0 -50 -39.5 -88.5t-100.5 -38.5q-53 0 -97 24.5t-97 73.5t-80 67q-69 47 -128.5 66t-138.5 19h-34l-12 18l274 457h-87q-50 1 -78.5 -24t-47.5 -75q-9 -26 -12 -29q-3 -2 -8.5 0.5t-6.5 7.5q-1 6 3 25q4 17 10 65
q2 12 3 24t1 19t1 13.5t2.5 9.5t4.5 4q4 1 11.5 -2.5t25 -8t42.5 -4.5h303l12 -18l-274 -457q15 -4 30.5 -9.5t27.5 -10t26.5 -13.5t23.5 -14t24 -17t21 -16.5t21 -18t19 -17t20 -19t18 -17.5q53 -51 92 -75t86 -24q24 0 45.5 12t27.5 26q-34 0 -57 18t-23 52z" />
    <glyph glyph-name="s_t" unicode="&#xfb06;" horiz-adv-x="804" 
d="M302 504q-33 40 -33 100q0 69 56.5 117.5t145.5 48.5q87 0 146 -42t59 -110v-118h101q5 -14 -6 -22q-12 -8 -56 -8h-39v-368q0 -60 43 -60q25 0 47 22l18 -12q-46 -62 -134 -62q-64 0 -97 40.5t-33 114.5v273q0 32 -24 48q-9 6 -23.5 10t-18.5 6q-9 8 -5 18
q87 3 144.5 34t57.5 82q0 53 -48.5 91t-133.5 38q-81 0 -127.5 -42t-46.5 -99q0 -70 52 -112q2 -1 10 -8t11.5 -9.5t11.5 -9.5t12 -11.5t10 -11.5t9 -13t5 -13.5t2 -14.5q0 -27 -17 -45.5t-43 -18.5q-27 0 -47 17.5t-20 43.5q0 22 13.5 40t34.5 24q-29 23 -87 23
q-35 0 -60.5 -17t-26.5 -43q0 -20 21 -41t42.5 -33.5t59.5 -31.5q74 -39 114 -78t40 -93q1 -67 -58.5 -112.5t-146.5 -45.5q-83 0 -139.5 36t-56.5 87q0 28 19 49t46 21q28 0 47.5 -19.5t19.5 -47.5q0 -25 -16.5 -44t-41.5 -22q39 -35 118 -35q50 0 77 19t27 43q0 26 -29 49
t-87 53q-86 44 -124.5 85.5t-37.5 93.5q1 62 51.5 107t141.5 45q34 0 50 -6z" />
    <glyph glyph-name="grave.case" horiz-adv-x="260" 
d="M117 786l-99 43l34 79l23 -1l175 -130q-1 -7 -13 -12t-24 -5q-32 -1 -96 26z" />
    <glyph glyph-name="dieresis.case" horiz-adv-x="363" 
d="M23 829q0 26 19 45t45 19t44.5 -19t18.5 -45t-18.5 -44.5t-44.5 -18.5t-45 18.5t-19 44.5zM214 829q0 26 18.5 45t44.5 19q27 0 45.5 -19t18.5 -45t-18.5 -44.5t-45.5 -18.5q-26 0 -44.5 18.5t-18.5 44.5z" />
    <glyph glyph-name="acute.case" horiz-adv-x="260" 
d="M219 908l34 -79l-99 -43q-64 -27 -96 -26q-12 0 -24 5t-13 12l175 130z" />
    <glyph glyph-name="circumflex.case" horiz-adv-x="376" 
d="M236 803l-48 27l-48 -27q-47 -27 -80 -33q-31 -7 -38 8l152 136h28l152 -136q-7 -15 -38 -8q-33 6 -80 33z" />
    <glyph glyph-name="tilde.case" horiz-adv-x="380" 
d="M265 833q44 0 74 30l17 -9q-7 -17 -18.5 -35t-36.5 -37.5t-53 -19.5q-25 0 -73.5 20.5t-66.5 20.5q-43 0 -73 -34l-16 9q12 30 42.5 61.5t71.5 31.5q27 0 68.5 -19t63.5 -19z" />
    <glyph glyph-name="ring.case" horiz-adv-x="195" 
d="M13 844q0 36 25 61t60 25t60 -25t25 -61q0 -35 -25 -60t-60 -25t-60 25t-25 60zM54 844q0 -18 12.5 -31t31.5 -13q18 0 31 13t13 31q0 19 -13 31.5t-31 12.5q-19 0 -31.5 -12.5t-12.5 -31.5z" />
    <glyph glyph-name="caron.case" horiz-adv-x="376" 
d="M140 883l48 -27l48 27q42 24 80 33q32 5 38 -8l-152 -137h-28l-152 137q6 13 38 8q38 -9 80 -33z" />
    </font>
</defs>
</svg>
